<?xml version="1.0" encoding="utf-8"?>
<!-- Generator: Adobe Illustrator 22.1.0, SVG Export Plug-In . SVG Version: 6.00 Build 0)  -->
<svg version="1.1" id="Layer_1" xmlns="http://www.w3.org/2000/svg" xmlns:xlink="http://www.w3.org/1999/xlink" x="0px" y="0px"
	 viewBox="0 0 1184 792" style="enable-background:new 0 0 1184 792;" xml:space="preserve">
<style type="text/css">
	.st0{fill:#4C7EB9;}
	.st1{fill:#97B758;}
	.st2{fill:#41628E;}
	.st3{fill:#41638E;}
	.st4{fill:#4E7FB9;}
	.st5{fill:#446690;}
	.st6{fill:#5081BB;}
	.st7{fill:#5182BB;}
	.st8{fill:#010101;}
	.st9{fill:#5D8BC0;}
	.st10{fill:#5887BE;}
	.st11{fill:#5A88BF;}
	.st12{fill:#FCFCFB;}
	.st13{fill:#FEFEFE;}
	.st14{font-family:'HelvNeueBoldforIBM';}
	.st15{font-size:23.0931px;}
	.st16{font-family:'Helvetica';}
	.st17{font-size:24px;}
	.st18{fill:#FFFFFF;}
	.st19{font-size:21px;}
	.st20{font-family:'HelvNeueRomanforIBM';}
</style>
<g>
	<path class="st0" d="M658,12c0,5.8,0,11.6,0,17.4c0,1.8,0,3.3-2.5,3.3c-2.4,0-2.5-1.4-2.5-3.3c0.1-5.8,0-11.6,0-17.4
		C654.7,12,656.3,12,658,12z"/>
	<path class="st1" d="M972.5,311c-28.3,0-56.6-0.1-84.9,0.1c-3.7,0-4.7-0.9-4.7-4.7c0.2-24.3,0.2-48.6,0-72.9c0-3.4,0.8-4.5,4.4-4.5
		c56.8,0.1,113.6,0.1,170.4,0c3.6,0,4.4,1,4.4,4.5c-0.1,24.3-0.2,48.6,0,72.9c0,4.3-1.5,4.8-5.1,4.8
		C1028.8,311,1000.7,311,972.5,311L972.5,311z"/>
	<path class="st1" d="M972,534c-28,0-56-0.1-83.9,0.1c-4.2,0-5.2-1.2-5.1-5.3c0.2-24,0.2-48,0-71.9c0-3.9,1-5,5-5
		c56.3,0.1,112.6,0.2,168.9,0c4.6,0,5.4,1.4,5.4,5.6c-0.2,24-0.2,48,0,71.9c0,3.8-1,4.7-4.7,4.7C1028.9,534,1000.4,534,972,534
		L972,534z"/>
	<path class="st1" d="M348.5,476c28.1,0,56.3,0.1,84.4-0.1c4.2,0,5.2,1.1,5.2,5.3c-0.2,24.1-0.2,48.3,0,72.4c0,3.4-0.8,4.5-4.4,4.5
		c-56.8-0.1-113.6-0.1-170.4,0c-3.5,0-4.4-1-4.4-4.5c0.1-24.1,0.2-48.3,0-72.4c0-4,0.9-5.3,5.2-5.3C292.2,476.1,320.3,476,348.5,476
		z"/>
	<path class="st1" d="M972.7,547c28.1,0,56.3,0.1,84.4-0.1c3.8,0,5,0.9,5,4.9c-0.2,24.1-0.2,48.3,0,72.4c0,4.2-1.4,4.8-5.1,4.8
		c-56.5-0.1-112.9-0.1-169.4,0c-3.6,0-4.8-0.8-4.8-4.6c0.2-24.3,0.2-48.6,0-72.9c0-3.9,1.3-4.6,4.8-4.6
		C916,547.1,944.3,547,972.7,547z"/>
	<path class="st1" d="M348.4,653c-28.1,0-56.3-0.1-84.4,0.1c-3.8,0-5.1-0.7-5.1-4.8c0.2-24.3,0.2-48.6,0-72.9c0-3.6,1.2-4.4,4.5-4.4
		c56.6,0.1,113.2,0.1,169.9,0c3.6,0,4.8,0.7,4.8,4.6c-0.2,24.3-0.2,48.6,0,72.9c0,3.9-1.2,4.6-4.8,4.6
		C405,652.9,376.7,653,348.4,653L348.4,653z"/>
	<path class="st1" d="M972.5,134c28.1,0,56.3,0.1,84.4-0.1c4.2,0,5.2,1.1,5.2,5.2c-0.2,24.1-0.2,48.3,0,72.4c0,3.4-0.7,4.5-4.4,4.5
		c-56.8-0.1-113.6-0.1-170.4,0c-3.5,0-4.5-0.9-4.4-4.4c0.2-24.1,0.2-48.3,0-72.4c0-4.1,0.9-5.3,5.1-5.3
		C916.2,134.1,944.3,134,972.5,134z"/>
	<path class="st1" d="M348.6,666c28.1,0,56.3,0.1,84.4-0.1c3.8,0,5,0.9,5,4.9c-0.2,24.1-0.2,48.3,0,72.4c0,4.2-1.4,4.8-5.1,4.8
		c-56.5-0.1-112.9-0.1-169.4,0c-3.6,0-4.8-0.8-4.8-4.6c0.2-24.3,0.2-48.6,0-72.9c0-3.9,1.2-4.6,4.8-4.6C292,666,320.3,666,348.6,666
		z"/>
	<path class="st2" d="M321,770c-61.3,0-122.6,0-183.9,0c-32.9,0-57.9-24.8-58-57.8c-0.2-40.7,0-81.3-0.1-122c0-32.3-0.1-64.7,0-97
		c0.1-31.1,22.3-55.2,53.3-58c1.5-0.1,3-0.1,4.5-0.2c1.4-0.1,2.1,0.5,2.2,2c0,1.7-0.9,1.8-2.2,2c-4,0.4-8,0.5-11.9,1.4
		C99,446.5,83,467.4,83,495.1c0,36.3,0,72.6,0,109c0,35.5,0,71,0,106.5c0,20.3,8.1,36.4,25.4,47.5c9.1,5.8,19.2,7.9,30,7.9
		c121.8,0,243.6,0.1,365.4-0.1c31.3,0,54-22.7,54.1-53.9c0.2-73.1,0-146.3,0.1-219.4c0-27.9-21.7-54-57.3-53.7
		c-54,0.4-108,0.1-161.9,0.1c-1,0-2,0-3,0c-1.3,0-2.8,0.4-2.8-1.8c-0.1-2.4,1.6-2.1,3-2.1c0.8,0,1.7,0,2.5,0c55,0,110,0,165,0
		c33.5,0,58.4,24.8,58.5,58.3c0.1,73.3,0.1,146.6,0,219.9c0,31.5-25.5,56.6-57,56.6C443.7,770,382.4,770,321,770z"/>
	<path class="st2" d="M603.9,348.8c-9.3,18.5-24.1,28.3-45,28.3c-128.3,0-256.6,0-384.9,0c-27.8,0-48.8-20.6-48.9-48.4
		c-0.1-42.8,0-85.7,0-128.5c0-17.5,0-35,0-52.5c0-28.7,20.9-49.5,49.5-49.5c23.3,0,46.7,0,70,0c1.2,0,2.3,0,3.5,0
		c1.5,0,1.9,0.9,1.9,2.2c0,1.4-0.8,1.6-1.9,1.6c-1.2,0-2.3,0-3.5,0c-24,0.1-48-0.4-72,0.3c-26,0.8-43.4,19.5-43.5,45.7
		c-0.1,30.2,0,60.3,0,90.5c0,29.7-0.1,59.3,0,89c0.1,23.6,14.7,41.1,37.3,45c3.6,0.6,7.3,0.6,11,0.6c120,0,240,0,359.9,0
		c2.5,0,5,0.3,7-1.7c0.5-0.5,1.6-0.9,2.2-0.7c21.2,6.9,44.5-3,53.1-22.6c0.4-0.9,1.6-1.9,0.5-3.1H600c1.2,0,1.1-0.8,1-1.6
		c1.4-0.8,1.5-2.3,1.9-3.6c2.1-12.5,1-25.2,1.1-37.8c0.1-42.5,0.1-85.1,0.1-127.6c0-1.2,0.1-2.3,0.2-3.5c0.3,0,0.5,0,0.8,0
		c1.3,0.7,1.4,2.6,3,3c0,35.3,0,70.5,0,105.8c0,2,0.2,4,0.4,5.9c-2,1.6-2.4,3.4-0.4,5.3c0,12.2,0,24.4,0,36.7
		c0,4.1-0.2,8.2-1.2,12.3c-0.2,0.5-0.3,0.9-0.5,1.4c0,0.8,0,1.6,0,2.4C604.5,345,604.1,346.8,603.9,348.8z"/>
	<path class="st2" d="M899.3,649c-49.5,0-99,0-148.5,0c-21.9,0-39.7-17.2-39.8-39.1c-0.2-50.5-0.2-101,0-151.5
		c0.1-21.9,18.1-39.3,40.1-39.4c2.8,0,5.7-0.2,8.5,0.1c1.5,0.1,4.1-1.2,4.2,1.8c0.2,3.3-2.5,1.9-4,2c-4.3,0.3-8.7-0.1-13,0.5
		c-19.2,2.5-31.9,17.6-31.9,37.8c0,39.2,0,78.3,0,117.5c0,8.8,0.3,17.7-0.1,26.5c-1.1,23,15.6,40.4,40.1,40.1
		c55.5-0.6,111-0.2,166.5-0.2c41.3,0,82.7,0,124,0c23.5,0,38.5-14.8,38.5-38.3c0.1-48.8,0-97.7,0-146.5c0-20.7-14.1-35.8-34.7-37.1
		c-6.8-0.4-13.7-0.2-20.5-0.3c-1.2,0-2.8,0.4-2.9-1.7c0-1.4,0.5-2.2,2-2.2c10.6,0.6,21.3-1.4,31.8,1.8c16.7,5.1,28.2,20.2,28.2,37.6
		c0,50.5,0,101,0,151.5c0,21.5-17.7,39-39.2,39C999,649,949.2,649,899.3,649L899.3,649z"/>
	<path class="st3" d="M899.4,338c-49.5,0-99,0-148.5,0c-21.9,0-39.7-17.1-39.8-39c-0.2-50.7-0.2-101.3,0-152
		c0.1-21.3,18.2-38.9,39.5-38.9c2.3,0,4.7,0,7,0c1.6,0,2.5,0.6,2.4,2.3c-0.1,1.8-1.4,1.6-2.5,1.6c-5.5,0.1-11,0-16.3,1.7
		c-15.6,4.8-26,17.7-26,34c-0.2,50.3-0.3,100.6,0,151c0.1,19.8,15.5,35.2,35.4,35.3c58.3,0.3,116.6,0.2,175,0.2c40.3,0,80.7,0,121,0
		c18.8,0,32.4-10.7,36.8-28.3c0.9-3.6,0.8-7.3,0.8-10.9c0-48.2,0-96.3,0-144.5c0-22.6-14.6-37.6-37.2-38.3c-2.2-0.1-4.3,0-6.5,0
		c-1.2,0-2.4,0.1-2.4-1.7c0-1.4,0.5-2.1,2-2.2c28.8-3.1,47.9,16.5,48,38.9c0.2,51,0.2,102,0,153c0,20.5-18.1,38.1-38.6,38.1
		C999.4,338,949.4,338,899.4,338L899.4,338z"/>
	<path class="st4" d="M823,232c-6.7,0-13.3-0.1-20,0.1c-2.8,0.1-4.2-0.4-4.1-3.8c0.2-9.6,0.2-19.3,0-28.9c0-2.6,0.7-3.4,3.4-3.4
		c13.8,0.1,27.6,0.1,41.4,0c2.8,0,3.3,1,3.3,3.5c-0.1,9.6-0.1,19.3,0,28.9c0,2.8-0.8,3.7-3.6,3.7C836.6,231.9,829.8,232,823,232z"/>
	<path class="st4" d="M823,190c-6.8,0-13.6-0.1-20.5,0.1c-2.9,0.1-3.6-0.9-3.6-3.7c0.2-9.6,0.1-19.3,0-28.9c0-2.5,0.7-3.5,3.3-3.5
		c13.8,0.1,27.6,0.1,41.4,0c2.7,0,3.4,0.9,3.3,3.4c-0.1,9.6-0.1,19.3,0,28.9c0,2.7-0.7,3.8-3.6,3.7C836.6,189.9,829.8,190,823,190z"
		/>
	<path class="st4" d="M823.1,514c6.8,0,13.6,0.1,20.5-0.1c2.6-0.1,3.5,0.7,3.4,3.3c-0.1,9.8-0.1,19.6,0,29.4c0,2.7-1,3.3-3.5,3.3
		c-13.8-0.1-27.6-0.1-41.4,0c-2.3,0-3.2-0.7-3.2-3.1c0.1-10,0.1-20,0-29.9c0-2.5,1-3.1,3.2-3.1C809.2,514.1,816.2,514,823.1,514z"/>
	<path class="st4" d="M823.5,472c6.7,0,13.3,0.1,20-0.1c2.9-0.1,3.6,1,3.6,3.7c-0.1,9.6-0.1,19.3,0,28.9c0,2.5-0.7,3.5-3.4,3.5
		c-13.8-0.1-27.6-0.1-41.4,0c-2.8,0-3.3-1-3.3-3.5c0.1-9.6,0.1-19.3,0-28.9c0-2.8,0.7-3.8,3.6-3.7C809.5,472.1,816.5,472,823.5,472z
		"/>
	<path class="st4" d="M246,310c-6.3,0-12.6-0.1-19,0.1c-2.8,0.1-4.2-0.3-4.1-3.7c0.2-9.6,0.1-19.3,0-28.9c0-2.6,0.7-3.5,3.4-3.5
		c13.5,0.1,26.9,0.1,40.4,0c2.7,0,3.4,0.9,3.3,3.5c-0.1,9.6-0.2,19.3,0,28.9c0.1,3.4-1.3,3.8-4.1,3.7C259.3,309.9,252.7,310,246,310
		z"/>
	<path class="st4" d="M246.5,191c6.7,0,13.3,0.1,20-0.1c2.8-0.1,3.7,0.9,3.7,3.7c-0.1,9.6-0.2,19.3,0,28.9c0.1,3-1.2,3.5-3.8,3.5
		c-13.1-0.1-26.3-0.2-39.4,0c-3.1,0-3.9-0.9-3.9-3.9c0.2-9.3,0.3-18.6,0-27.9c-0.1-3.7,1.3-4.4,4.6-4.3
		C233.8,191.2,240.1,191,246.5,191L246.5,191z"/>
	<path class="st4" d="M246,269c-6.3,0-12.6-0.1-19,0.1c-2.8,0.1-4.2-0.4-4.1-3.7c0.2-9.6,0.2-19.3,0-28.9c0-2.6,0.7-3.4,3.4-3.4
		c13.5,0.1,26.9,0.1,40.4,0c2.2,0,3.3,0.4,3.3,3c-0.1,10-0.1,20,0,29.9c0,2.9-1.3,3.2-3.6,3.2C259.6,268.9,252.8,269,246,269
		L246,269z"/>
	<path class="st5" d="M605,171c-0.3,0-0.5,0-0.8,0c-0.1-7.2-0.2-14.3-0.2-21.5c0-29.1-18.3-47.4-47.5-47.5
		c-60.6-0.1-121.2,0-181.9,0c-2.2,0-4.3,0-6.5,0c-1.3,0-2.3-0.2-2.2-1.9c0-1.5,0.7-2.1,2.1-2.1c1.2,0,2.3,0,3.5,0
		c62.6,0,125.3,0,187.9,0c27.4,0,48.5,21.1,48.5,48.3c0,7.2,0,14.3,0,21.5C607,169,606,170,605,171z"/>
	<path class="st6" d="M282.6,269.6c6.8-2.4,12.9-4.5,18.9-6.6c1.6-0.5,3.4-1.2,4.3,0.9c1,2.4-1,3.2-2.7,3.9
		c-1.2,0.5-2.5,0.9-4.2,1.5c1.3,1.4,2.7,1.4,4.1,1.7c31.8,6.3,63.6,12.5,95.4,18.8c1.9,0.4,4.7-0.3,3.8,3.5
		c-0.9,3.6-3.3,1.7-4.7,1.4c-31.2-6-62.3-12.2-93.5-18.3c-1.6-0.3-3.2-0.8-4.9-0.4c-0.3,2.2,1.9,2.5,2.8,3.8
		c0.8,1.2,1.6,2.4,0.4,3.6c-1.2,1.3-2.6,1.3-4,0.1C293.2,279.1,288.2,274.6,282.6,269.6z"/>
	<path class="st7" d="M298.2,302.1c0.8,2.1,2.5,2.6,3.7,3.7s2.8,2.3,1.3,4.1c-1.4,1.7-3,1-4.4-0.1c-5.2-3.9-10.3-7.8-16.3-12.3
		c6.9-3,13.2-5.8,19.4-8.5c1.3-0.6,2.7-0.4,3.5,1.1c1,1.9-0.4,2.8-1.7,3.6c-1.6,0.9-3.3,1.6-6.2,2.9c9.9,1.2,18.6,2.3,27.3,3.3
		c24.6,2.8,49.3,5.5,73.9,8.3c1.8,0.2,4.3-0.2,3.9,3.1c-0.4,3.4-2.5,2.1-4.4,1.9c-32.7-3.7-65.5-7.4-98.2-11.1
		C299.6,302.1,299,302.1,298.2,302.1z"/>
	<path class="st7" d="M298.5,246.2c1.5,1.9,3.5,1.9,5,2.8c1.4,0.9,3.2,1.6,2.1,3.8c-0.9,1.7-2.4,1.5-3.9,0.9
		c-6.1-2.5-12.2-5.1-19.1-7.9c5.8-4.6,11.1-8.7,16.5-12.9c1.3-1,2.8-1.3,4,0.2c1.2,1.6,0,2.8-1,3.9c-1.2,1.3-3.3,1.7-3.8,4.1
		c16.1-2.1,32.1-4.3,48-6.4c17.6-2.4,35.2-4.7,52.8-7.2c2.2-0.3,2.9,0.4,3.2,2.5c0.5,3.2-2,2.7-3.5,2.9c-13.2,1.8-26.4,3.5-39.5,5.3
		C339.1,240.7,319,243.4,298.5,246.2z"/>
	<path class="st7" d="M298.6,213.9c0.9,2.1,2.8,2.6,4.1,3.8c1.2,1.1,2,2.4,0.7,3.9c-1,1.1-2.4,1.1-3.6,0.2
		c-5.5-3.9-11.1-7.9-17.2-12.3c6.8-3.1,12.8-6,18.9-8.8c1.6-0.7,2.9-0.8,3.8,0.9c1.1,1.9-0.4,2.7-1.6,3.5c-1.5,0.9-3,1.7-5.7,3.2
		c9.8,0.9,18.3,1.8,26.8,2.5c24.2,2.2,48.4,4.3,72.5,6.4c0.7,0.1,1.3,0.2,2,0.3c1.7,0.2,3.3,0.1,2.9,2.8c-0.3,2.4-1.5,2.5-3.3,2.3
		c-12.1-1.1-24.2-2.3-36.3-3.4c-20.4-1.8-40.7-3.7-61.1-5.5C300.7,213.9,299.7,213.9,298.6,213.9z"/>
	<path class="st8" d="M471,259c-17.4,0-34.9-0.1-52.3,0.1c-4.4,0-5.9-0.7-5.7-4.1c0.3-15,0.3-30,0-44.9c0-3.5,1.6-4.1,6-4.1
		c34.7,0.1,69.4,0.1,104.1,0c4.9,0,6.1,1.1,6,4.5c-0.3,14.8-0.3,29.6,0,44.4c0.1,3.8-1.8,4.3-6.3,4.2C505.5,258.9,488.2,259,471,259
		z M471.5,208c-16.8,0-33.7,0.1-50.4-0.1c-4,0-5.5,0.4-5.5,3.7c0.3,13.8,0.3,27.7,0,41.5c0,2.9,0.5,4,5,3.9
		c33.4-0.2,66.8-0.1,100.1,0c4,0,5.5-0.4,5.5-3.7c-0.3-13.8-0.3-27.7,0-41.5c0.1-3.6-1.8-4-5.9-3.9C504.2,208.1,487.8,208,471.5,208
		z"/>
	<path class="st8" d="M471,330c-17.4,0-34.9-0.1-52.3,0.1c-4.4,0-5.7-0.8-5.7-4.1c0.3-14.8,0.3-29.6,0-44.4c0-3.3,1-4.6,6-4.6
		c34.7,0.2,69.4,0.2,104.1,0c4.9,0,6,1.1,6,4.5c-0.3,14.6-0.3,29.3,0,43.9c0.1,3.6-1,4.8-6.3,4.7C505.5,329.8,488.2,330,471,330z
		 M470.9,328c16.8,0,33.7-0.1,50.4,0.1c3.8,0,4.9-0.7,4.9-3.6c-0.1-14-0.1-28,0-42c0-2.8-1.1-3.6-4.9-3.6
		c-33.7,0.1-67.2,0.1-100.8,0c-3.8,0-4.9,0.8-4.9,3.6c0.1,14,0.1,28,0,42c0,2.8,1.1,3.6,4.9,3.6C437.3,327.9,454.1,328,470.9,328z"
		/>
	<path class="st6" d="M653.1,373.2c0-2.8,0-5.6-0.1-8.4c0-1.6,0.6-2.4,2.3-2.4c1.8,0,2.8,0.5,2.7,2.5c-0.1,2.8-0.1,5.6,0,8.4
		c0,1.4-0.5,3.1,1,4.1c1.8,1.1,1.2,2.1,0.4,3.6c-1.1,2.1-2.9,1.8-4.7,1.7c-2.4-0.1-1.7-2-1.8-3.3c-0.1-1.8,0-3.6,0.1-5.4
		C653.1,373.6,653.1,373.4,653.1,373.2z"/>
	<path class="st4" d="M658,162.5c0,2.5-0.1,5,0,7.5c0.1,1.9-0.6,2.7-2.6,2.7c-2.1,0-2.4-1-2.5-2.8c-0.3-5.6,0.8-11.3-0.7-16.9
		c-0.5-1.9,1.4-1.9,2.6-2.3c2.2-0.8,2.8,1.1,2.9,2.3c0.3,3.1,0.1,6.3,0.1,9.5C657.9,162.5,658,162.5,658,162.5z"/>
	<path class="st4" d="M653,302.4c0-2.3,0.1-4.7,0-7c-0.1-1.9,0.3-3.2,2.7-3.1c2.1,0,2.6,1.2,2.4,2.9c-0.7,4.9,2.1,9.8,0.1,14.8
		c-0.6,1.6-0.7,2.7-2.7,2.7s-2.6-0.9-2.5-2.8C653.1,307.4,653,304.9,653,302.4z"/>
	<path class="st4" d="M657.9,548.8c0,2,0,4,0.1,6c0.1,1.8-0.3,2.9-2.4,2.8c-1.9,0-2.7-0.7-2.6-2.6c0.1-5,0.1-10,0-14.9
		c-0.1-2.3,1.2-2.9,3-3c2.6-0.1,3.3,2.2,2.8,3.6c-0.7,2.1-0.6,4.2-0.8,6.3C658,547.7,658,548.3,657.9,548.8z"/>
	<path class="st0" d="M658,757.5c0,2.5-0.1,5,0,7.4c0.1,1.8-0.6,2.7-2.5,2.7s-2.6-0.9-2.5-2.7c0.1-4.9,0.1-9.9,0-14.8
		c0-1.8,0.5-2.7,2.5-2.7s2.6,0.9,2.5,2.7C658,752.6,658,755,658,757.5z"/>
	<path class="st0" d="M658,337.4c0,2.5,0,5,0,7.4c0,1.7-0.3,2.8-2.4,2.9c-1.9,0-2.7-0.7-2.7-2.6c0.1-5.1,0.1-10.2,0-15.3
		c0-1.7,0.7-2.3,2.4-2.4c1.8,0,2.7,0.6,2.7,2.6C657.9,332.4,658,334.9,658,337.4z"/>
	<path class="st0" d="M653,722.4c0-2.5,0.1-5,0-7.4c-0.1-1.9,0.7-2.6,2.6-2.6c2.1,0,2.4,1.1,2.4,2.8c0,4.9-0.1,9.9,0,14.8
		c0,1.9-0.7,2.6-2.6,2.6c-2,0-2.5-1-2.4-2.8C653,727.4,653,724.9,653,722.4z"/>
	<path class="st0" d="M653,407.2c0-2.3,0-4.6,0-6.9c0-1.7,0.2-2.9,2.3-2.9c1.8,0,2.7,0.6,2.7,2.6c-0.1,5.1,0,10.2,0,15.4
		c0,1.6-0.6,2.4-2.3,2.4c-1.8,0-2.8-0.6-2.7-2.6C653.1,412.4,653,409.8,653,407.2z"/>
	<path class="st4" d="M653,442.3c0-2.5,0.1-5,0-7.4c-0.1-2,0.9-2.6,2.7-2.5c1.7,0,2.3,0.8,2.3,2.4c0,5.1-0.1,10.2,0,15.4
		c0,2-0.9,2.5-2.7,2.5c-1.7,0-2.4-0.7-2.3-2.4C653,447.6,653,444.9,653,442.3z"/>
	<path class="st0" d="M658,687.4c0,2.5-0.1,5,0,7.5c0.1,1.8-0.5,2.8-2.5,2.8s-2.6-1-2.5-2.8c0.1-5,0.1-10,0-15c0-2,1-2.5,2.8-2.5
		s2.3,0.9,2.3,2.5C658,682.4,658,684.9,658,687.4z"/>
	<path class="st0" d="M658,477.9c0,2.3-0.1,4.6,0,6.9c0.1,1.7-0.4,2.8-2.4,2.8c-1.9,0-2.7-0.7-2.7-2.6c0.1-4.9,0.1-9.9,0-14.8
		c0-1.7,0.3-2.8,2.4-2.9c2.4-0.1,2.7,1.2,2.6,3.1C658,472.9,658,475.4,658,477.9z"/>
	<path class="st0" d="M658,512.7c0,2.5,0,5,0,7.5c0,1.6-0.5,2.5-2.3,2.5s-2.8-0.5-2.8-2.5c0.1-5.2,0.1-10.3,0-15.5
		c0-1.8,1-2.3,2.5-2.2c1.5,0,2.5,0.5,2.5,2.3C657.9,507.3,658,510,658,512.7z"/>
	<path class="st4" d="M658,582.7c0,2.5-0.1,5,0,7.4c0.1,2-1,2.5-2.8,2.5c-1.7,0-2.3-0.8-2.3-2.4c0-5.1,0.1-10.2,0-15.4
		c0-2,1-2.5,2.8-2.5c1.7,0,2.3,0.8,2.3,2.5C658,577.4,658,580.1,658,582.7z"/>
	<path class="st4" d="M658,617.9c0,2.5,0,5,0,7.4c0,1.8-0.9,2.3-2.5,2.3c-1.5,0-2.6-0.3-2.6-2.2c0-5.3,0-10.6,0-15.9
		c0-1.8,0.9-2.2,2.5-2.3c2-0.1,2.6,0.8,2.6,2.7C658,612.7,658,615.3,658,617.9z"/>
	<path class="st4" d="M658,652.4c0,2.3,0,4.6,0,6.9c0,1.7,0.1,3.3-2.4,3.3c-2.3,0-2.7-1.2-2.7-3.1c0.1-4.6,0-9.2,0-13.9
		c0-1.7-0.1-3.3,2.4-3.4c2.8-0.1,2.7,1.8,2.7,3.6C658,648.1,658,650.2,658,652.4z"/>
	<path class="st4" d="M653,267.1c0-2.5,0-5,0-7.4c0-1.8,0.9-2.3,2.5-2.3c1.5,0,2.6,0.4,2.6,2.2c0,5.3,0,10.6,0,15.9
		c0,1.8-0.9,2.3-2.5,2.3c-1.5,0-2.6-0.3-2.6-2.2C653,272.7,653,269.9,653,267.1z"/>
	<path class="st4" d="M658,57.6c0,2.3-0.1,4.6,0,6.9c0.1,1.9-0.3,3.1-2.6,3.1c-2.1,0-2.4-1.1-2.4-2.8c0-5,0.1-9.9,0-14.9
		c0-1.9,0.7-2.6,2.6-2.6c2.1,0,2.5,1.1,2.4,2.8C658,52.7,658,55.1,658,57.6z"/>
	<path class="st4" d="M658,92.6c0,2.3-0.1,4.6,0,6.9c0.1,1.9-0.3,3.2-2.6,3.1c-2-0.1-2.4-1.1-2.4-2.9c0.1-5,0.1-9.9,0-14.9
		c0-1.9,0.7-2.6,2.6-2.6c2.1,0,2.5,1.1,2.4,2.8C658,87.6,658,90.1,658,92.6z"/>
	<path class="st4" d="M658,127.7c0,2.5-0.1,5,0,7.4c0.1,2-0.9,2.6-2.7,2.5c-1.7-0.1-2.3-0.8-2.3-2.4c0-5.1,0.1-10.3,0-15.4
		c0-2,0.8-2.6,2.7-2.5c1.7,0,2.4,0.8,2.3,2.4C658,122.4,658,125.1,658,127.7z"/>
	<path class="st4" d="M658,197.6c0,2.5,0,5,0,7.4c0,1.9-0.7,2.6-2.6,2.6c-2.1,0-2.5-1-2.4-2.8c0-5,0.1-9.9,0-14.9
		c0-1.9,0.7-2.7,2.6-2.7c2,0,2.5,1.1,2.5,2.8C657.9,192.6,658,195.1,658,197.6z"/>
	<path class="st6" d="M658,232.8c0,2.3,0,4.6,0,7c0,1.7-0.3,2.9-2.4,2.9c-1.8,0-2.7-0.6-2.7-2.6c0.1-5.1,0.1-10.3,0-15.4
		c0-1.7,0.7-2.4,2.4-2.4c1.9-0.1,2.8,0.6,2.7,2.6C657.9,227.5,658,230.2,658,232.8L658,232.8z"/>
	<path class="st9" d="M602.9,339.9c-0.4,1.3-0.4,2.8-1.9,3.6c-0.8,0.2-1.1,0.8-1,1.6h0.1c-1.1-0.6-2.3-1.3-3.4-1.9
		c-1.8-0.9-1.1-2.1-0.4-3.2c0.7-1.1,1.3-2.4,3-1.2C600.4,339.4,601.4,340.4,602.9,339.9z"/>
	<path class="st10" d="M706.7,320.9c-0.9,1.1-0.2,3.5-2.3,3.3c-1.4-0.1-3.8,0-3.5-2.4c0.1-1.3,0.3-3.3,2.4-3.1
		C704.6,318.8,706.5,318.8,706.7,320.9z"/>
	<path class="st10" d="M682.8,139.7c2.6-0.4,2.5,1.5,2.9,2.7c0.7,2.2-1.3,2.2-2.6,2.6c-2.7,0.9-2.5-1.6-2.9-2.9
		C679.7,140.1,682.1,140.5,682.8,139.7z"/>
	<path class="st10" d="M580.7,275.7c1.2,0.6,3.4,0.3,3.1,2.4c-0.2,1.3-0.1,3.7-2.7,3.1c-1.3-0.3-3.4-0.3-2.8-2.5
		C578.6,277.6,578.5,275.6,580.7,275.7z"/>
	<path class="st9" d="M653.7,532c-0.4,1.7-2,2.4-3.2,2.6c-1.8,0.3-2.6-1.6-2.8-2.9c-0.2-2.1,1.8-2.8,3.3-2.9
		C652.7,528.7,653,530.7,653.7,532z"/>
	<path class="st9" d="M640.9,371.8c-1.1-1.3-3.7-1.2-3.1-3.4c0.3-1.2,1-3.3,2.7-2.9c1.3,0.3,3.6,0.7,3,3
		C643.1,369.9,642.3,371.2,640.9,371.8z"/>
	<path class="st11" d="M592.6,178.9c-0.4,1.7-2,2-3.4,2.1c-2,0.1-2.3-1.8-2.4-3.1c-0.2-2.4,2.3-2.3,3.5-2.4
		C592.1,175.4,591.9,177.6,592.6,178.9z"/>
	<path class="st9" d="M571.3,182.5c2.2,0.2,2.3,2.1,2.4,3.3c0.3,2-1.7,2.2-3.1,2.4c-2.5,0.4-2.5-2-2.5-3.3
		C568,182.9,570.3,183.3,571.3,182.5z"/>
	<path class="st10" d="M620.5,481.5c-0.2,2.1-1.8,2.7-3,3c-1.9,0.5-2.5-1.5-2.9-2.7c-0.6-2.1,1.6-2.8,3-3
		C619.5,478.4,619.4,480.9,620.5,481.5z"/>
	<path class="st9" d="M631.6,498.7c-0.5,1.6-2,2.6-3.3,2.6c-1.8,0-2.8-2-2.8-3.5c0.1-1.5,2-2.3,3.4-2.3
		C630.7,495.5,630.9,497.5,631.6,498.7z"/>
	<path class="st11" d="M561.6,191.8c-2.2,0.2-2.3-1.5-2.7-2.9c-0.7-2.3,1.4-2.3,2.6-2.7c2.6-0.8,2.5,1.6,2.9,3
		C565,191.6,562.5,191,561.6,191.8z"/>
	<path class="st11" d="M647.3,304.4c-1.2-0.7-3.5-0.3-3-2.5c0.3-1.2,0.1-3.8,2.8-3c1.3,0.4,3.3,0.5,2.7,2.7
		C649.5,302.8,649.5,304.7,647.3,304.4z"/>
	<path class="st9" d="M699.5,409.6c-1.1-0.9-3.3-1-3-2.8c0.2-1.3,0.7-3.6,2.9-3.2c1.3,0.3,3.2,1,2.9,2.8
		C702,407.7,701.3,409.3,699.5,409.6z"/>
	<path class="st11" d="M657.9,548.8c0-0.6,0-1.2,0-1.8c0.2,0,0.3,0.1,0.5,0.1c1.8,0.1,3.3-3.7,5.3-0.3c0.8,1.4,1.3,2.2-0.3,3.7
		C660.4,553.2,659.9,549,657.9,548.8z"/>
	<path class="st11" d="M562.1,401.5c-1.8-0.2-2.4-1.8-2.7-3c-0.5-1.9,1.5-2.5,2.7-2.8c2.1-0.5,2.8,1.7,3,3
		C565.4,400.4,563.3,400.6,562.1,401.5z"/>
	<path class="st9" d="M681.4,573.8c-0.7,1.5-2,2.6-3.4,2.6c-1.9-0.1-2.8-2.1-2.6-3.6c0.1-1.4,2-2.4,3.4-2.3
		C680.3,570.6,680.8,572.4,681.4,573.8z"/>
	<path class="st11" d="M676.5,146.2c0,2.3-1.9,2.4-3.1,2.6c-2.1,0.5-2.2-1.6-2.5-2.9c-0.6-2.6,1.9-2.5,3.2-2.7
		C676.2,142.9,675.7,145.3,676.5,146.2z"/>
	<path class="st11" d="M682.6,392.7c1.1,0.9,3.2,1.1,2.9,2.9c-0.2,1.2-1,3.3-2.7,3c-1.3-0.2-3.7-0.7-3.1-2.9
		C680.1,394.4,680.6,392.7,682.6,392.7z"/>
	<path class="st9" d="M537.7,357c-0.5,1.7-2,2.5-3.3,2.7c-1.8,0.3-2.6-1.7-2.8-2.9c-0.3-2,1.8-2.8,3.3-2.9
		C536.6,353.8,536.9,355.8,537.7,357z"/>
	<path class="st11" d="M624.1,360.8c-1.2-0.8-3.1-1.1-3-2.9c0.1-1.4,0.8-3.4,2.4-3.2c1.3,0.1,3.5,0.9,3.3,2.9
		C626.6,358.9,625.7,360.4,624.1,360.8z"/>
	<path class="st11" d="M579.2,420.3c1.6,0.5,2.4,1.9,2.5,3.2c0.2,1.8-1.7,2.6-3,2.6c-1.9,0.1-3-1.6-2.9-3.3
		C575.9,421.4,577.8,421,579.2,420.3z"/>
	<path class="st11" d="M578.9,330.5c0.8-1.2,1-3.3,2.7-3c1.3,0.2,3.6,0.9,3.1,3.1c-0.3,1.2-1,3.1-2.8,2.8
		C580.5,333.1,579.1,332.3,578.9,330.5z"/>
	<path class="st10" d="M595.2,445.3c2,0.3,2.7,1.8,3,3.1c0.5,1.9-1.5,2.5-2.7,2.8c-2.1,0.5-2.8-1.7-3-3
		C592.1,446.3,594.6,446.5,595.2,445.3z"/>
	<path class="st10" d="M684.5,312c1.1,0.6,3.3,0.3,3.1,2.2c-0.1,1.2-0.1,3.4-2,3.3c-1.4,0-3.6,0-3.5-2.4
		C682.2,313.9,682.5,312.1,684.5,312z"/>
	<path class="st9" d="M666.2,311c-1.1-0.6-3.3-0.3-3-2.4c0.1-1.3,0.2-3.4,2.2-3.2c1.3,0.1,3.7,0.2,3.4,2.6
		C668.6,309.3,668.4,311,666.2,311z"/>
	<path class="st11" d="M640.5,298c-0.6,1.4-0.6,3.4-2.8,3c-1.4-0.3-3.3-0.4-2.7-2.6c0.3-1.3,0.3-3.4,2.6-2.7
		C638.8,296.1,640.9,295.8,640.5,298z"/>
	<path class="st11" d="M628.5,297.9c-1.1-0.8-3.4-0.4-3.1-2.4c0.2-1.3,0.2-3.7,2.7-3.2c1.3,0.3,3.2,0.4,2.8,2.6
		C630.7,296.1,630.6,297.9,628.5,297.9z"/>
	<path class="st11" d="M664.5,146.9c2.2-0.1,2.4,1.6,2.5,3c0.2,2.1-1.7,2.3-3,2.5c-2.2,0.3-2.1-1.9-2.4-3.1
		C661.1,147.2,663.3,147.5,664.5,146.9z"/>
	<path class="st10" d="M590.2,279c1.1,0.8,3.3,0.3,3,2.5c-0.2,1.3-0.2,3.4-2.2,3.2c-1.2-0.1-3.7,0.1-3.2-2.5
		C588,280.7,588.2,279.1,590.2,279z"/>
	<path class="st9" d="M692.3,136.1c2.2-0.2,2.4,1.5,2.7,2.8c0.7,2.6-1.8,2.5-3.1,2.8c-2.1,0.5-2.1-1.7-2.4-3
		C689,136.4,691.5,137,692.3,136.1z"/>
	<path class="st9" d="M702.1,138c-2.5,0.4-2.8-1.2-3.1-2.6c-0.5-2.1,1.3-2.4,2.6-2.8c2.6-0.8,2.5,1.7,2.8,3
		C705.1,137.9,702.6,137.1,702.1,138z"/>
	<path class="st10" d="M601.9,175c0,2.2-2,2.2-3.2,2.5c-2.2,0.4-2.2-1.8-2.4-3c-0.3-2.1,1.7-2.3,3-2.4
		C601.4,171.7,601.2,173.8,601.9,175z"/>
	<path class="st9" d="M617.7,164.8c2.2-0.2,2.5,1.5,2.7,2.9c0.4,2.1-1.6,2.3-2.9,2.6c-2.2,0.5-2.2-1.5-2.5-2.8
		C614.5,165.3,616.5,165.4,617.7,164.8z"/>
	<path class="st10" d="M636.5,163c-2.2,0.4-2.6-1.3-2.9-2.7c-0.6-2.3,1.5-2.2,2.8-2.7c2.4-0.8,2.2,1.4,2.6,2.6
		C639.6,162.4,637.8,162.6,636.5,163z"/>
	<path class="st10" d="M645.5,159.7c-2.2,0.1-2.2-1.7-2.4-3c-0.4-2.1,1.5-2.4,2.9-2.6c2.1-0.3,2.3,1.7,2.6,3
		C648.9,159.3,646.5,158.8,645.5,159.7z"/>
	<path class="st10" d="M703.3,607c-0.4,1.6-1.8,2.4-3.1,2.6c-1.8,0.2-2.5-1.8-2.7-2.9c-0.2-1.9,1.8-2.8,3.2-2.9
		C702.4,603.7,702.7,605.6,703.3,607z"/>
	<path class="st9" d="M551.8,195.5c-2.1,0-2-1.9-2.3-3.1c-0.5-2.1,1.5-2.1,2.8-2.4c2.1-0.6,2.4,1.2,2.7,2.6
		C555.4,195,553.1,194.7,551.8,195.5z"/>
	<path class="st10" d="M653.1,373.2c0,0.2,0,0.5,0,0.7c-2.1,0.4-2.8,5.1-6.1,1.9c-1.4-1.3-0.7-2.3,0.1-3.3
		C649.5,368.8,651,373.4,653.1,373.2z"/>
	<path class="st11" d="M545.8,196.4c0.1,2.2-1.8,2.2-3,2.5c-2.1,0.5-2.3-1.6-2.6-2.8c-0.6-2.5,1.9-2.5,3.2-2.7
		C545.4,193,545,195.3,545.8,196.4z"/>
	<path class="st10" d="M618.6,351.7c-0.7,1.5-1,3.3-2.8,3.3c-1.4,0-3.3-0.8-3.2-2.5c0-1.2,0.9-3.2,2.6-3.2
		C616.5,349.3,617.7,350.5,618.6,351.7z"/>
	<path class="st11" d="M546,265.1c-0.5,1.2-0.4,3.2-2.5,2.9c-1.3-0.1-3.4-0.2-3-2.3c0.2-1.2,0.1-3.5,2.3-3.2
		C544.1,262.7,546,262.8,546,265.1z"/>
	<path class="st9" d="M555.7,268.3c-1,1.3-0.4,3.7-2.7,3.2c-1.3-0.3-3.3-0.4-3-2.6c0.2-1.4,0.5-3.2,2.6-2.9
		C554,266.2,555.5,266.6,555.7,268.3z"/>
	<path class="st11" d="M565,271.7c-0.7,1.2-0.3,3.5-2.6,3c-1.2-0.3-3.5-0.2-3-2.4c0.2-1.3,0.3-3.4,2.5-3
		C563.2,269.4,564.9,269.7,565,271.7z"/>
	<path class="st11" d="M603.9,348.8c0.2-2,0.6-3.8,2.5-5c1.6,0.7,4.1,0.7,3.3,3.6C608.6,351.2,606,348.9,603.9,348.8z"/>
	<path class="st9" d="M599.7,282.3c1.1,0.8,3.4,0.3,3,2.5c-0.3,1.3-0.4,3.4-2.5,3c-1.3-0.2-3.4-0.3-3-2.5
		C597.4,284.1,597.5,282.2,599.7,282.3z"/>
	<path class="st9" d="M568,319.4c-0.6,1.3-1,3.3-2.6,3.2c-1.3,0-3.1-0.9-3.2-2.6c-0.1-1.5,0.9-3.1,2.5-3.2
		C566.1,316.8,567.6,317.6,568,319.4z"/>
	<path class="st11" d="M621.5,291.7c-0.7,1.1-0.3,3.4-2.6,2.8c-1.5-0.4-3.5-0.6-2.8-3c0.4-1.4,0.8-3,2.9-2.3
		C620.3,289.5,622.2,289.5,621.5,291.7z"/>
	<path class="st9" d="M580.1,184.8c-2.3-0.2-2.4-2.1-2.6-3.3c-0.3-2.1,1.8-2.2,3-2.4c2-0.2,2.3,1.7,2.4,3.1
		C583.2,184.3,580.9,183.9,580.1,184.8z"/>
	<path class="st10" d="M589.5,437.1c2.1,0.1,2.8,1.7,3.1,2.9c0.5,1.9-1.5,2.5-2.8,2.8c-1.9,0.5-2.5-1.4-2.9-2.7
		C586.5,438.1,588.9,438.2,589.5,437.1z"/>
	<path class="st10" d="M526,292.5c-0.8,1.1-1.1,3.1-3,2.7c-1.2-0.3-3.3-0.8-2.7-2.8c0.3-1.2,0.9-3.1,2.8-2.8
		C524.4,289.8,525.9,290.6,526,292.5z"/>
	<path class="st11" d="M609.3,465.1c-0.2,1.8-1.6,2.6-3,2.7c-1.8,0.2-2.6-1.6-2.8-2.9c-0.2-1.7,1.7-2.4,2.9-2.7
		C608.4,461.9,608.5,463.9,609.3,465.1z"/>
	<path class="st9" d="M697,318.2c-0.4,1.1-0.4,3.1-2.6,2.6c-1.2-0.3-3.4-0.2-2.8-2.6c0.4-1.2,0.2-3.5,2.5-2.9
		C695.4,315.7,697.3,315.8,697,318.2z"/>
	<path class="st10" d="M611.8,476.4c-1.7-0.7-2.8-1.9-2.6-3.4c0.2-1.6,1.9-2.7,3.2-2.6c1.5,0.1,2.5,1.9,2.5,3.3
		C614.8,475.5,612.8,475.5,611.8,476.4z"/>
	<path class="st7" d="M626,490.2c-0.5,1.7-1.9,2.6-3.2,2.6c-1.6,0.1-2.5-1.7-2.6-3c-0.1-1.7,1.7-2.5,3-2.6
		C625,487.1,625.2,489,626,490.2z"/>
	<path class="st9" d="M642.8,515.3c-0.6,1.5-1.9,2.5-3.3,2.6c-1.8,0.1-2.6-1.7-2.6-3.1c0-1.6,1.6-2.7,3.1-2.6
		C641.6,512.2,642,514.1,642.8,515.3z"/>
	<path class="st9" d="M629.8,163.8c0.2,2.4-1.7,2.5-2.9,2.9c-2.2,0.6-2.3-1.5-2.6-2.7c-0.7-2.5,1.7-2.5,3-2.8
		C629.5,160.6,628.8,163.3,629.8,163.8z"/>
	<path class="st11" d="M675.9,565.2c-0.4,1.7-2,2.5-3.3,2.6c-1.8,0.2-2.6-1.6-2.7-3c-0.1-1.7,1.7-2.6,3.1-2.7
		C674.8,562.1,675.1,564,675.9,565.2z"/>
	<path class="st11" d="M590.3,338.9c-1.2-0.8-3.1-1.1-3-2.8c0.1-1.3,0.9-3.2,2.7-3c1.4,0.1,3.2,0.9,2.9,2.7
		C592.9,337.1,592.2,338.6,590.3,338.9z"/>
	<path class="st11" d="M517.7,286.8c-0.8,1.3-1.1,3.1-2.9,3c-1.4-0.1-3.1-1-2.9-2.7c0.1-1.4,0.8-3.1,2.6-3
		C516,284.3,517.3,285.2,517.7,286.8z"/>
	<path class="st10" d="M686.9,582c-0.6,1.6-2,2.6-3.3,2.7c-1.7,0.1-2.4-1.8-2.5-3.1c-0.1-1.7,1.6-2.6,3-2.6
		C685.8,578.9,686.3,580.7,686.9,582z"/>
	<path class="st10" d="M689.5,587.1c1.7,0.4,2.6,1.8,2.6,3.2c0,1.6-1.6,2.6-3.1,2.6c-1.7,0-2.6-1.8-2.7-3.1
		C686.4,588.2,688.2,587.7,689.5,587.1z"/>
	<path class="st10" d="M697.9,598.3c-0.1,1.9-1.6,2.5-3,2.8c-1.8,0.3-2.6-1.4-2.8-2.8c-0.2-1.8,1.6-2.6,2.9-2.8
		C696.7,595.2,697,597.2,697.9,598.3z"/>
	<path class="st10" d="M571,272.3c1.3,0.9,3.6,0.3,3.3,2.5c-0.2,1.3-0.2,3.3-2.3,3.1c-1.4-0.1-3.1-0.3-3-2.4
		C569,274.1,569.5,272.7,571,272.3z"/>
	<path class="st11" d="M559.8,389.9c-0.3,2.1-1.8,2.7-3.1,3c-1.9,0.4-2.6-1.5-2.8-2.8c-0.3-1.8,1.5-2.5,2.8-2.8
		C558.7,386.9,558.6,389.2,559.8,389.9z"/>
	<path class="st10" d="M668.9,384.7c-1,1.3-1.3,3.3-3.1,3c-1.3-0.3-3.1-0.9-2.8-2.8c0.2-1.3,0.9-3.1,2.8-2.7
		C667.2,382.4,668.6,383.1,668.9,384.7z"/>
	<path class="st11" d="M632.3,360.1c1.1,0.9,3.2,1.1,2.7,3c-0.3,1.3-0.9,3.2-2.9,2.7c-1.2-0.3-3.2-0.9-2.7-2.8
		C629.7,361.7,630.3,360.1,632.3,360.1z"/>
	<path class="st10" d="M543,303c-1,1.3-1.2,3.3-3.1,3c-1.3-0.2-3.2-0.8-2.8-2.7c0.3-1.3,0.8-3.2,2.7-2.8
		C541.1,300.8,542.5,301.6,543,303z"/>
	<path class="st10" d="M540.2,368.1c-2-0.4-2.8-1.9-2.9-3.2c-0.1-1.7,1.7-2.6,3-2.7c1.7-0.1,2.5,1.7,2.6,3.1
		C543.1,367.1,540.9,367.1,540.2,368.1z"/>
	<path class="st7" d="M554,381.9c-0.4,1.7-1.8,2.6-3.1,2.7c-1.7,0.2-2.5-1.7-2.6-3c-0.2-1.7,1.7-2.4,3-2.6
		C553.1,378.8,553.4,380.6,554,381.9z"/>
	<path class="st11" d="M677.1,390c-0.5,1.4-1,3.1-2.7,3c-1.3-0.1-3.2-0.9-3.1-2.6c0.1-1.3,0.9-3.1,2.6-3.1
		C675.3,387.4,676.6,388.4,677.1,390z"/>
	<path class="st10" d="M688,401.1c0.9-1.1,1.1-3.2,2.9-2.8c1.3,0.3,3.1,1,2.8,2.8c-0.3,1.3-0.9,3.2-2.8,2.7
		C689.7,403.6,688,403,688,401.1z"/>
	<path class="st9" d="M573.4,412c1.7,0.4,2.6,1.8,2.6,3.2c0,1.7-1.7,2.6-3.1,2.6c-1.7,0.1-2.6-1.7-2.6-3.1
		C570.3,413.2,572.1,412.7,573.4,412z"/>
	<path class="st10" d="M719.1,417.3c-0.6,1.3-1,3.1-2.8,2.8c-1.3-0.2-3.3-0.7-2.9-2.6c0.2-1.3,0.9-3.2,2.7-3
		C717.4,414.7,718.7,415.6,719.1,417.3z"/>
	<path class="st11" d="M587.2,431.9c-0.3,1.7-1.7,2.6-3.1,2.7c-1.8,0.2-2.4-1.8-2.7-3c-0.3-1.8,1.6-2.5,2.9-2.6
		C586.2,428.7,586.6,430.6,587.2,431.9z"/>
	<path class="st10" d="M600.8,453.8c2,0.4,2.8,1.8,2.9,3.2c0.2,1.8-1.7,2.6-3,2.7c-1.6,0.2-2.5-1.6-2.7-3
		C597.8,454.6,600,454.7,600.8,453.8z"/>
	<path class="st9" d="M672.5,312.1c0.7-1.7,0.7-3.5,2.8-3.2c1.4,0.2,3.1,0.4,2.8,2.5c-0.2,1.3-0.3,3.1-2.5,2.8
		C674.2,313.9,672.8,313.6,672.5,312.1z"/>
	<path class="st10" d="M634,509.8c-1.7-0.3-2.4-1.7-2.7-3.1c-0.4-1.9,1.4-2.5,2.8-2.8c1.9-0.3,2.5,1.5,2.8,2.8
		C637.1,508.6,635.2,508.9,634,509.8z"/>
	<path class="st11" d="M576.4,324.8c-0.6,1.3-0.9,3.1-2.7,3.1c-1.5,0-3.1-1-3-2.6c0.1-1.3,0.7-3.2,2.5-3.1
		C574.6,322.2,575.9,323.2,576.4,324.8z"/>
	<path class="st10" d="M667.1,553.8c2.1,0.3,2.9,1.7,2.9,3.1c0.1,1.7-1.6,2.6-3,2.7c-1.8,0.2-2.4-1.8-2.6-3
		C664.1,554.7,666.3,554.8,667.1,553.8z"/>
	<path class="st4" d="M605,171c1-1,2-2,3-3c2.4,0,2.8,1.9,2.9,3.6c0.2,2-1.8,1.8-3,2.5C606.4,173.6,606.3,171.7,605,171z"/>
	<path class="st10" d="M556.9,317.1c-1.4-0.5-3.1-1-3-2.7c0.1-1.3,0.8-3.2,2.6-3.1c1.3,0.1,3.2,0.8,3.2,2.5
		C559.6,315.2,558.6,316.6,556.9,317.1z"/>
	<path class="st10" d="M707.7,408.9c1.3,0.9,3.3,1.2,2.9,3.1c-0.3,1.3-1,3.2-2.8,2.8c-1.2-0.3-3.2-0.9-2.8-2.8
		C705.3,410.6,706.1,409.2,707.7,408.9z"/>
	<path class="st10" d="M567.7,409.7c-1.8-0.1-2.5-1.7-2.7-3c-0.3-1.9,1.4-2.6,2.8-2.8c1.8-0.2,2.6,1.5,2.8,2.8
		C570.9,408.6,568.8,408.8,567.7,409.7z"/>
	<path class="st10" d="M645.5,526.2c-2.2,0-2.9-1.5-3.2-2.8c-0.5-1.9,1.5-2.5,2.7-2.8c1.8-0.5,2.4,1.4,2.8,2.6
		C648.5,525.3,646.2,525.2,645.5,526.2z"/>
	<path class="st10" d="M551.3,308.4c-0.8,1.4-1.1,3.3-2.8,3.2c-1.2-0.1-3.2-0.9-3.2-2.5c0-1.4,1-3,2.6-3.1
		C549.5,305.9,550.6,307,551.3,308.4z"/>
	<path class="st10" d="M532,348.5c-0.3,1.8-1.8,2.6-3.1,2.7c-1.7,0.1-2.5-1.7-2.7-3c-0.2-1.8,1.8-2.5,3.1-2.6
		C530.9,345.3,531.3,347.3,532,348.5z"/>
	<path class="st6" d="M608.1,291.1c-2-1.9-1.6-3.7,0.4-5.3c1.7,0.3,3.9,0,3.5,2.9C611.7,291,610,291.4,608.1,291.1z"/>
	<path class="st11" d="M606.3,341.4c0.2-0.5,0.3-0.9,0.5-1.4C606.7,340.5,606.5,340.9,606.3,341.4z"/>
	<path class="st12" d="M600,345.1c-0.1-0.8,0.2-1.4,1-1.6C601.1,344.2,601.2,345.1,600,345.1z"/>
	<path class="st13" d="M470.9,208c16.4,0,32.8,0.1,49.2-0.1c4.1,0,5.9,0.4,5.9,3.9c-0.3,13.8-0.3,27.7,0,41.5
		c0.1,3.3-1.5,3.7-5.5,3.7c-33.5-0.1-67-0.1-100.4,0c-4.5,0-5.2-1-5.1-3.9c0.1-13.8,0.3-27.7,0-41.5c-0.1-3.3,1.5-3.8,5.5-3.7
		C437.2,208.1,454,208,470.9,208z"/>
	<path class="st13" d="M470.5,328c-16.8,0-33.8-0.1-50.6,0.1c-3.8,0-4.9-0.7-4.9-3.6c0.1-14,0.1-28,0-42c0-2.8,1-3.6,4.9-3.6
		c33.8,0.1,67.5,0.1,101.2,0c3.8,0,4.9,0.7,4.9,3.6c-0.1,14-0.1,28,0,42c0,2.8-1,3.6-4.9,3.6C504.2,327.9,487.3,328,470.5,328z"/>
	<g>
		<text transform="matrix(1 0 0 1 262.154 105.9255)" class="st14 st15">Korpus</text>
	</g>
	<text transform="matrix(1 0 0 1 170 162)" class="st16 st17">Dokumente </text>
	<text transform="matrix(1 0 0 1 421 241)" class="st16 st17">Gruppe 1</text>
	<text transform="matrix(1 0 0 1 420 311)" class="st16 st17">Gruppe 2</text>
	<text transform="matrix(1 0 0 1 360.9786 162)" class="st16 st17">Dokumentgruppen </text>
	<text transform="matrix(1 0 0 1 238 216)" class="st18 st16 st17">1</text>
	<text transform="matrix(1 0 0 1 238 260)" class="st18 st16 st17">2</text>
	<text transform="matrix(1 0 0 1 236.9992 301)" class="st18 st16 st17">3</text>
	<g>
		<text transform="matrix(1 0 0 1 284.7754 510.1353)" class="st18 st16 st19">Annotationen </text>
		<text transform="matrix(1 0 0 1 272.4754 535.3353)" class="st18 st16 st19">zu Dokument 1</text>
	</g>
	<g>
		<text transform="matrix(1 0 0 1 284.7756 605.1353)" class="st18 st16 st19">Annotationen </text>
		<text transform="matrix(1 0 0 1 272.4756 630.3353)" class="st18 st16 st19">zu Dokument 2</text>
	</g>
	<g>
		<text transform="matrix(1 0 0 1 284.7756 700.8615)" class="st18 st16 st19">Annotationen </text>
		<text transform="matrix(1 0 0 1 272.4756 726.0615)" class="st18 st16 st19">zu Dokument 3</text>
	</g>
	<g>
		<text transform="matrix(1 0 0 1 156.6639 443.9255)" class="st14 st15">Ground Truth</text>
	</g>
	<g>
		<text transform="matrix(1 0 0 1 770.2786 109.9286)" class="st14 st15">Dave annotiert Gruppe 1</text>
	</g>
	<text transform="matrix(1 0 0 1 815.0016 179.0059)" class="st18 st16 st17">1</text>
	<text transform="matrix(1 0 0 1 815.0016 223.0059)" class="st18 st16 st17">2</text>
	<g>
		<text transform="matrix(1 0 0 1 906.7746 167.4994)" class="st18 st16 st19">Annotationen </text>
		<text transform="matrix(1 0 0 1 894.4746 192.6994)" class="st18 st16 st19">zu Dokument 1</text>
	</g>
	<g>
		<text transform="matrix(1 0 0 1 906.7748 262.4994)" class="st18 st16 st19">Annotationen </text>
		<text transform="matrix(1 0 0 1 894.4748 287.6994)" class="st18 st16 st19">zu Dokument 2</text>
	</g>
	<text transform="matrix(1 0 0 1 816.5026 500.0008)" class="st18 st16 st17">2</text>
	<text transform="matrix(1 0 0 1 815.5018 542.0016)" class="st18 st16 st17">3</text>
	<g>
		<text transform="matrix(1 0 0 1 773.1827 423.932)" class="st14 st15">Phil annotiert Gruppe 2</text>
	</g>
	<g>
		<text transform="matrix(1 0 0 1 909.7769 484.2269)" class="st18 st16 st19">Annotationen </text>
		<text transform="matrix(1 0 0 1 897.4769 509.4269)" class="st18 st16 st19">zu Dokument 2</text>
	</g>
	<g>
		<text transform="matrix(1 0 0 1 909.7771 579.2269)" class="st18 st16 st19">Annotationen </text>
		<text transform="matrix(1 0 0 1 897.4771 604.4269)" class="st18 st16 st19">zu Dokument 3</text>
	</g>
	<g>
		<text transform="matrix(1 0 0 1 178.1689 40.9864)" class="st20 st15">Prozessmanager für Annotationen</text>
	</g>
	<g>
		<text transform="matrix(1 0 0 1 784.7607 38.9848)" class="st20 st15">Annotationsbenutzer </text>
		<text transform="matrix(1 0 0 1 799.9607 66.6848)" class="st20 st15">(Annotationstask)</text>
	</g>
</g>
</svg>
