<?xml version="1.0" encoding="utf-8"?>
<!-- Generator: Adobe Illustrator 18.1.1, SVG Export Plug-In . SVG Version: 6.00 Build 0)  -->
<svg version="1.1" id="Layer_1" xmlns="http://www.w3.org/2000/svg" xmlns:xlink="http://www.w3.org/1999/xlink" x="0px" y="0px"
	 viewBox="0 0 903 586.5" enable-background="new 0 0 903 586.5" xml:space="preserve">
<g>
	<path fill="#FBFCFC" d="M454.6,526.6c-130.9,0-261.7,0-392.6,0.1c-2.8,0-3.4-0.6-3.4-3.4c0.1-157.7,0.1-315.5,0-473.2
		c0-2.8,0.6-3.4,3.4-3.4c261.7,0.1,523.5,0.1,785.2,0c2.8,0,3.4,0.6,3.4,3.4c-0.1,157.7-0.1,315.5,0,473.2c0,2.8-0.6,3.4-3.4,3.4
		C716.4,526.6,585.5,526.6,454.6,526.6z M542.4,97.4c0-8.8,0-16.7,0-24.7c0-9.6-5.8-15.4-15.4-15.4c-55.9,0-111.8,0-167.6,0
		c-9.8,0-15.7,5.9-15.7,15.6c0,7-0.1,14,0.1,21c0.1,2.4-0.6,3.1-3.1,3.2c-23.6,0.5-46.7,4-69.4,10.4c-27.2,7.7-52.9,18.7-75.6,36
		c-16.7,12.7-30.7,27.5-35.2,49c-1.1-0.5-1.1-1.6-1.7-2.4c-0.5-0.7-0.8-1.9-1.9-1.4c-1.4,0.6-0.5,1.7-0.1,2.5c1,2.2,2.1,4.4,3.4,7
		c-2.2,0-3.8,0-5.4,0c-25.7,0-51.5,0-77.2,0c-9.8,0-15.8,5.9-15.8,15.6c0,16.9,0,33.7,0,50.6c0,9.8,5.8,15.5,15.7,15.5
		c26.4,0,52.7,0,79.1-0.1c2.8,0,3.5,0.7,3.6,3.5c1.5,33.2,12.4,63,33.2,88.9c10.1,12.5,22.1,22.8,37.5,28.4c3.2,1.2,6.6,1.9,9.9,2.9
		c-0.3,1-1.1,1.1-1.7,1.5c-0.8,0.5-2.2,0.9-1.6,2.1c0.7,1.5,1.9,0.4,2.9-0.1c2.1-1,4.2-2.1,6.7-3.4c0,8.3,0,16.1,0,24
		c0,10.2,5.7,15.8,15.8,15.8c55.7,0,111.5,0,167.2,0c10.2,0,15.7-5.5,15.7-15.7c0-16.7,0-33.5,0-50.2c0-10-5.8-15.7-15.9-15.7
		c-55.5,0-111,0-166.5,0c-10.7,0-16.4,5.7-16.4,16.5c0,7.6,0,15.1,0,22.6c-0.5,0.1-0.7,0.2-0.7,0.2c-1.6-1-3.2-2-4.8-2.9
		c-1-0.6-2-1.9-3.3-1.1c-1.5,1,1.2,2,0.2,3.3c-1.2-0.3-2.4-0.5-3.6-0.9c-16.7-5.1-29.3-15.8-39.9-29.1
		c-20.2-25.4-30.8-54.5-32.4-86.9c-0.1-2.9,0.6-3.5,3.3-3.4c26.4,0.1,52.7,0.1,79.1,0.1c10,0,15.6-5.6,15.6-15.5
		c0-16.7,0-33.5,0-50.2c0-10.3-5.7-15.9-16-15.9c-25.9,0-51.7,0-77.6,0c-1.3,0-2.7,0.4-4.1-0.6c1.1-1.7,2.2-3.2,3.1-4.8
		c0.6-1,2.2-2,1.1-3.2c-1.3-1.5-1.9,1.1-3.1,1c-0.2,0-0.4-0.2-0.6-0.3c1.3-3.6,2.3-7.3,4-10.8c6.6-13.7,17-24.2,28.9-33.4
		c19.3-14.9,41.1-25,64-32.7c25.5-8.5,51.8-13.1,78.6-13.9c5.6-0.2,4.8-0.7,4.9,4.6c0.1,6.6,0,13.2,0,19.9c0.1,9.2,6,15,15.1,15
		c8.6,0,17.2,0,25.9,0c47.4,0,94.7,0,142.1,0c10.2,0,15.7-5.5,15.7-15.8c0-7,0-14,0-21c0-0.9-0.5-2,0.6-2.8c1.8,1.1,3.6,2.2,5.5,3.2
		c1.1,0.6,2.5,2.3,3.5,0.7c0.9-1.3-1.4-1.7-2-2.7c-0.1-0.2,0-0.5,0.1-0.9c6.1,0.1,12.2,0.5,18.2,1c35.8,2.9,70.5,10.8,103.7,24.7
		c20.4,8.5,39.6,19.1,55.6,34.6c8.6,8.3,15.4,17.8,17.8,29.7c1,4.8,0.8,4.9-3.9,4.9c-25.9,0-51.7,0-77.6,0c-10,0-15.8,5.9-15.8,15.9
		c0,16.7,0,33.5,0,50.2c0,9.9,5.8,15.6,15.6,15.6c26.1,0,52.2,0,78.4,0c1.3,0,2.6,0,4.6,0c-1.6,2.6-2.9,4.5-4.1,6.5
		c-0.5,0.9-1.8,2.1-0.6,2.9c1.3,1,1.8-0.7,2.5-1.5c0.3-0.3,0.5-0.9,1.2-0.7c0.5,1.3,0.2,2.7,0.1,4c-1.8,19.5-7.1,38-15.9,55.4
		c-9.4,18.8-21.8,35.2-39.3,47.4c-9,6.2-18.7,10.4-29.7,11.3c-2.4,0.2-3-0.5-3-2.8c0.1-7.1,0.1-14.2,0-21.4
		c-0.1-8.9-5.9-14.9-14.8-14.9c-56.4,0-112.7,0-169.1,0c-8.6,0-14.8,6-14.8,14.6c-0.1,17.2-0.1,34.5,0,51.7
		c0.1,8.9,6.1,14.6,15,14.6c56.2,0,112.5,0,168.7,0c9.2,0,14.9-5.8,14.9-15c0-7,0.1-14-0.1-21c-0.1-2.6,0.8-3.5,3.3-3.6
		c3-0.1,5.9-0.7,8.8-1.5c18.7-5,32.7-16.8,44.5-31.4c18.3-22.6,29-48.5,32.8-77.2c0.5-3.5,0.9-6.9,1.4-10.9c0.6,0.8,0.8,1.1,1,1.4
		c0.6,0.8,0.9,2.6,2.2,2c1.5-0.8,0.3-2.1-0.2-3.2c-1-2.2-2.8-4.1-3-6.8c1.6,0,2.9,0,4.3,0c26,0,52,0,78,0c10.3,0,15.8-5.5,15.8-15.7
		c0-16.5,0-33,0-49.5c0-11.1-5.5-16.5-16.6-16.5c-26.1,0-52.2,0-78.4,0c-1.8,0-3.6,0.4-3.9-2.6c-0.7-7.9-4-14.9-8.4-21.4
		c-8.2-12.1-19.3-21.3-31.5-29c-39.5-25-83.5-36.9-129.4-42.3c-9.7-1.2-19.5-1.6-29.3-2.4c0.1-0.9,0.8-1,1.3-1.3
		c0.8-0.5,2.1-1,1.4-2.2c-0.7-1.3-1.8-0.3-2.6,0.2C547.4,94.6,545.3,95.8,542.4,97.4z M402.3,340.2c-0.2,7.2-0.2,7.2,4.9,7.2
		c3.6,0,7.3-0.2,10.9,0.1c2.7,0.2,3.5-0.9,3.4-3.4c-0.1-4.9,0.5-9.7,1.6-14.5c3.9-17.7,12-32.6,27.6-42.9c9.3-6.2,18.2-6.5,27.8-0.2
		c13.3,8.7,21.4,21,26,35.9c1.7,5.4,1.7,5.4-3.8,5.9c-1,0.1-2.1,0-2.5,1.2c-0.3,1,0.7,1.5,1.3,2.1c5.4,5,10.9,9.9,16.3,14.9
		c1.5,1.3,2.5,1.2,3.7-0.2c4.3-4.9,8.7-9.7,13-14.5c0.6-0.7,1.7-1.4,1.2-2.5c-0.5-1-1.6-1-2.7-0.9c-0.7,0-1.5-0.1-2.2,0
		c-2.9,0.5-3.9-0.9-4.4-3.5c-1.2-5.8-3.4-11.2-6.2-16.4c-7.9-14.5-18.8-25.5-35.4-29.4c-9.5-2.2-19.2-1.2-28.7-1
		c-9.1,0.2-17.4,3.5-24.6,9C411.1,300.8,403.9,320.3,402.3,340.2z M466.4,520.7c3.4,0,6.3,0,9.2,0c8,0.1,15.4-1.9,22.1-6.1
		c22.6-14.1,31-35.7,32.1-61.2c0.1-2-1-2.6-2.8-2.5c-4.2,0-8.5,0.2-12.7,0c-3.1-0.2-3.9,1.1-3.8,3.9c0.1,6.3-0.9,12.5-2.6,18.5
		c-4.9,17.6-14,32.1-30.8,40.9c-6.9,3.6-13.2,3.7-20.2,0.1c-15.8-8.3-25-21.7-30.2-38.3c-1.7-5.4-1.7-5.4,3.8-5.7
		c0.8-0.1,1.9,0.2,2.4-0.7c0.5-1-0.4-1.6-1-2.2c-5.5-5-11.1-10.1-16.6-15.1c-1-0.9-2-1.4-3.2-0.1c-4.7,5.2-9.4,10.4-14,15.6
		c-1.3,1.5-0.8,2.5,1.2,2.5c1,0,2,0.1,3,0c2.8-0.4,3.9,0.8,4.5,3.5c1.2,5.6,3.3,11,6.1,16.1c7.8,14.6,18.7,25.5,35.2,29.9
		C454.2,521.2,460.6,520.5,466.4,520.7z"/>
	<path fill="#14B4EF" d="M542.4,97.4c2.8-1.6,5-2.8,7.2-4c0.8-0.4,1.9-1.4,2.6-0.2c0.7,1.2-0.6,1.7-1.4,2.2
		c-0.5,0.3-1.2,0.4-1.3,1.3c9.8,0.8,19.6,1.3,29.3,2.4c45.9,5.5,89.9,17.3,129.4,42.3c12.2,7.7,23.3,16.9,31.5,29
		c4.4,6.5,7.7,13.5,8.4,21.4c0.3,3,2,2.6,3.9,2.6c26.1,0,52.2,0,78.4,0c11.1,0,16.6,5.4,16.6,16.5c0,16.5,0,33,0,49.5
		c0,10.2-5.6,15.7-15.8,15.7c-26,0-52,0-78,0c-1.4,0-2.7,0-4.3,0c0.2,2.7,2,4.6,3,6.8c0.5,1.1,1.7,2.4,0.2,3.2
		c-1.3,0.7-1.6-1.2-2.2-2c-0.2-0.3-0.4-0.6-1-1.4c-0.5,4-0.9,7.4-1.4,10.9c-3.9,28.7-14.6,54.6-32.8,77.2
		c-11.8,14.6-25.8,26.4-44.5,31.4c-2.9,0.8-5.8,1.4-8.8,1.5c-2.5,0.1-3.4,1-3.3,3.6c0.2,7,0.1,14,0.1,21c0,9.2-5.8,15-14.9,15
		c-56.2,0-112.5,0-168.7,0c-9,0-15-5.7-15-14.6c-0.1-17.2-0.1-34.5,0-51.7c0.1-8.5,6.2-14.5,14.8-14.6c56.4,0,112.7,0,169.1,0
		c8.9,0,14.7,6,14.8,14.9c0,7.1,0.1,14.3,0,21.4c0,2.3,0.6,3,3,2.8c11-0.9,20.8-5.1,29.7-11.3c17.5-12.1,29.9-28.6,39.3-47.4
		c8.8-17.5,14.1-36,15.9-55.4c0.1-1.3,0.5-2.7-0.1-4c-0.7-0.2-0.9,0.4-1.2,0.7c-0.7,0.7-1.1,2.5-2.5,1.5c-1.2-0.9,0.1-2,0.6-2.9
		c1.2-2,2.5-3.9,4.1-6.5c-1.9,0-3.3,0-4.6,0c-26.1,0-52.2,0-78.4,0c-9.8,0-15.6-5.7-15.6-15.6c0-16.7,0-33.5,0-50.2
		c0-10,5.9-15.9,15.8-15.9c25.9,0,51.7,0,77.6,0c4.7,0,4.9-0.1,3.9-4.9c-2.5-12-9.3-21.4-17.8-29.7c-16-15.6-35.2-26.1-55.6-34.6
		c-33.2-13.9-67.9-21.8-103.7-24.7c-6.1-0.5-12.2-0.9-18.2-1c0,0.4-0.2,0.7-0.1,0.9c0.6,1,2.8,1.4,2,2.7c-1,1.6-2.4-0.1-3.5-0.7
		c-1.9-1-3.6-2.1-5.5-3.2c-1.1,0.9-0.6,1.9-0.6,2.8c0,7,0,14,0,21c0,10.3-5.5,15.8-15.7,15.8c-47.4,0-94.7,0-142.1,0
		c-8.6,0-17.2,0-25.9,0c-9.1,0-15-5.8-15.1-15c-0.1-6.6,0-13.2,0-19.9c0-5.3,0.7-4.8-4.9-4.6c-26.9,0.9-53.1,5.4-78.6,13.9
		c-23,7.7-44.8,17.8-64,32.7c-11.9,9.2-22.3,19.7-28.9,33.4c-1.7,3.5-2.7,7.2-4,10.8c0.2,0.1,0.4,0.2,0.6,0.3c1.2,0.1,1.7-2.5,3.1-1
		c1.1,1.2-0.5,2.2-1.1,3.2c-0.9,1.6-2,3.1-3.1,4.8c1.4,1,2.8,0.6,4.1,0.6c25.9,0,51.7,0,77.6,0c10.4,0,16,5.6,16,15.9
		c0,16.7,0,33.5,0,50.2c0,9.9-5.6,15.5-15.6,15.5c-26.4,0-52.7,0-79.1-0.1c-2.7,0-3.5,0.5-3.3,3.4c1.6,32.4,12.2,61.5,32.4,86.9
		c10.6,13.3,23.2,24,39.9,29.1c1.2,0.4,2.4,0.6,3.6,0.9c1-1.3-1.7-2.3-0.2-3.3c1.3-0.9,2.3,0.5,3.3,1.1c1.6,0.9,3.2,2,4.8,2.9
		c0.1,0,0.2-0.1,0.7-0.2c0-7.5,0-15,0-22.6c0-10.8,5.7-16.5,16.4-16.5c55.5,0,111,0,166.5,0c10.1,0,15.9,5.7,15.9,15.7
		c0,16.7,0,33.5,0,50.2c0,10.2-5.6,15.7-15.7,15.7c-55.7,0-111.5,0-167.2,0c-10.1,0-15.7-5.7-15.8-15.8c0-7.8,0-15.7,0-24
		c-2.5,1.3-4.6,2.3-6.7,3.4c-0.9,0.5-2.1,1.5-2.9,0.1c-0.6-1.2,0.9-1.5,1.6-2.1c0.6-0.4,1.4-0.5,1.7-1.5c-3.3-1-6.7-1.7-9.9-2.9
		c-15.4-5.6-27.4-15.8-37.5-28.4c-20.8-25.9-31.7-55.7-33.2-88.9c-0.1-2.8-0.8-3.5-3.6-3.5c-26.4,0.1-52.7,0.1-79.1,0.1
		c-9.9,0-15.7-5.7-15.7-15.5c0-16.9,0-33.7,0-50.6c0-9.7,6-15.5,15.8-15.6c25.7,0,51.5,0,77.2,0c1.6,0,3.2,0,5.4,0
		c-1.3-2.6-2.3-4.8-3.4-7c-0.4-0.9-1.2-1.9,0.1-2.5c1.1-0.4,1.4,0.7,1.9,1.4c0.5,0.8,0.6,1.9,1.7,2.4c4.6-21.5,18.6-36.3,35.2-49
		c22.6-17.3,48.4-28.3,75.6-36c22.7-6.5,45.8-10,69.4-10.4c2.5,0,3.1-0.8,3.1-3.2c-0.1-7-0.1-14-0.1-21c0-9.7,6-15.6,15.7-15.6
		c55.9,0,111.8,0,167.6,0c9.6,0,15.4,5.8,15.4,15.4C542.4,80.7,542.4,88.6,542.4,97.4z M747.7,274c27.5,0,55,0,82.4,0
		c10.1,0,14.5-4.5,14.5-14.7c0-16,0-32,0-48c0-10-4.6-14.6-14.7-14.6c-55,0-109.9,0-164.9,0c-9.9,0-14.6,4.8-14.6,14.8
		c0,15.9,0,31.7,0,47.6c0,10.3,4.6,14.9,14.8,14.9C692.7,274,720.2,274,747.7,274z M346.2,441.2c27.6,0,55.2,0,82.8,0
		c9.9,0,14.3-4.6,14.4-14.5c0-16,0-32,0-48c0-10.2-4.6-14.8-14.9-14.8c-54.8,0-109.7,0-164.5,0c-10.1,0-14.8,4.8-14.8,15
		c0,15.7,0,31.5,0,47.2c0,10.6,4.5,15.1,15,15.1C291.5,441.2,318.9,441.2,346.2,441.2z M161,277.7c27.5,0,55,0,82.4,0
		c10.3,0,14.7-4.4,14.7-14.9c0-15.9,0-31.7,0-47.6c0-10.2-4.6-14.8-14.9-14.8c-54.8,0-109.7,0-164.5,0c-10.2,0-14.8,4.8-14.8,15
		c0,15.7,0,31.5,0,47.2c0,10.6,4.5,15.1,15,15.1C106.3,277.7,133.6,277.7,161,277.7z M443,136.7c27.6,0,55.2,0,82.8,0
		c9.8,0,14.4-4.6,14.4-14.5c0-16,0-32,0-48c0-10.3-4.5-14.9-14.9-14.9c-54.8,0-109.7,0-164.5,0c-10.2,0-14.8,4.8-14.9,15
		c0,15.7,0,31.5,0,47.2c0,10.6,4.5,15.1,15,15.1C388.2,136.7,415.6,136.7,443,136.7z M558.3,441.2c27.6,0,55.2,0,82.9,0
		c10,0,14.5-4.5,14.5-14.3c0-15.9,0-31.7,0-47.6c0-10-4.6-14.6-14.7-14.6c-54.9,0-109.7,0-164.6,0c-10.4,0-14.9,4.5-14.9,14.8
		c0,15.6,0,31.2,0,46.9c0,10.4,4.4,14.8,14.8,14.8C503.6,441.2,531,441.2,558.3,441.2z M239.7,400.1l-0.1,0.2l0.2,0.2
		c0-0.1,0.1-0.3,0.1-0.4L239.7,400.1z"/>
	<path fill="#14B4EF" d="M402.3,340.2c1.6-19.9,8.8-39.4,27.2-53.3c7.2-5.5,15.5-8.8,24.6-9c9.6-0.2,19.3-1.2,28.7,1
		c16.6,3.9,27.6,14.9,35.4,29.4c2.8,5.2,5,10.6,6.2,16.4c0.5,2.6,1.6,4,4.4,3.5c0.7-0.1,1.5,0,2.2,0c1,0,2.2,0,2.7,0.9
		c0.5,1.1-0.6,1.8-1.2,2.5c-4.3,4.8-8.7,9.6-13,14.5c-1.3,1.4-2.3,1.6-3.7,0.2c-5.4-5-10.9-9.9-16.3-14.9c-0.6-0.6-1.6-1.1-1.3-2.1
		c0.3-1.2,1.5-1.1,2.5-1.2c5.4-0.5,5.5-0.5,3.8-5.9c-4.7-14.8-12.7-27.1-26-35.9c-9.6-6.3-18.4-5.9-27.8,0.2
		c-15.6,10.3-23.7,25.2-27.6,42.9c-1.1,4.8-1.7,9.6-1.6,14.5c0.1,2.5-0.8,3.6-3.4,3.4c-3.6-0.2-7.2-0.1-10.9-0.1
		C402.1,347.4,402.1,347.4,402.3,340.2z M458,280c-16.2,0.2-28.5,7.1-38.1,19.2c-10,12.7-14.3,27.5-15.5,43.3
		c-0.1,1.9,0.5,2.7,2.5,2.6c3.1-0.1,6.2-0.1,9.4,0c2.3,0.1,2.9-0.8,3-3C421.2,314.9,431.9,293.1,458,280z M530.7,330.1
		c-7.4,2.1-8.1-1.9-8.8-6.2c-0.2-1.5-0.8-2.9-1.4-4.3c-5.5-15.3-14.4-27.9-29.3-35.4c-6.5-3.2-14.6-4.8-19.4-3.8
		c19.7,8.5,30.2,24.4,35.9,44.3c1.6,5.4,1.4,5.5-4.2,6.1c-0.1,0-0.2,0.3-0.4,0.7c4.3,3.9,8.6,7.9,12.9,11.8c0.9,0.8,1.6,1.5,2.7,0.2
		C522.4,339.4,526,335.4,530.7,330.1z"/>
	<path fill="#14B4EF" d="M466.4,520.7c-5.8-0.2-12.2,0.5-18.4-1.1c-16.4-4.4-27.4-15.3-35.2-29.9c-2.7-5.1-4.8-10.4-6.1-16.1
		c-0.6-2.7-1.7-3.9-4.5-3.5c-1,0.2-2,0-3,0c-2.1,0-2.6-1-1.2-2.5c4.6-5.2,9.3-10.4,14-15.6c1.2-1.3,2.1-0.8,3.2,0.1
		c5.5,5,11.1,10.1,16.6,15.1c0.6,0.6,1.5,1.2,1,2.2c-0.5,0.9-1.5,0.7-2.4,0.7c-5.5,0.3-5.5,0.3-3.8,5.7c5.2,16.6,14.3,30,30.2,38.3
		c6.9,3.6,13.3,3.5,20.2-0.1c16.8-8.8,25.9-23.3,30.8-40.9c1.7-6,2.6-12.2,2.6-18.5c0-2.8,0.8-4.1,3.8-3.9c4.2,0.2,8.5,0.1,12.7,0
		c1.8,0,2.8,0.5,2.8,2.5c-1,25.5-9.5,47.1-32.1,61.2c-6.7,4.2-14.1,6.2-22.1,6.1C472.7,520.6,469.8,520.7,466.4,520.7z M473.6,518.3
		c7.1,0.4,13.1-1,18.9-3.6c23.7-10.7,34.4-37.6,34.9-59.4c0.1-2-0.9-2.3-2.5-2.2c-3.1,0.1-6.2,0.1-9.4,0c-2.2-0.1-2.8,0.8-2.9,2.8
		c-0.2,3.4-0.3,6.7-0.9,10C507.4,489.2,496.7,507.8,473.6,518.3z M459.4,518.4c-0.3-0.4-0.3-0.7-0.5-0.7
		c-20.3-9-30.7-25.7-35.9-46.4c-0.7-2.8,0.1-3.7,2.8-3.6c0.7,0,1.5,0.3,2.3-0.6c-4.5-4.1-9-8.2-13.5-12.3c-0.7-0.6-1.2-0.7-1.9,0
		c-3.6,4-7.3,8.1-10.9,12.1c-0.1,0.3-0.2,0.7-0.3,1c6.3-1.7,6.6,2.3,7.7,6.2c3,11.1,8.1,21.2,16.3,29.5
		C434.7,513,445.7,518.6,459.4,518.4z"/>
	<path fill="#FCFDFD" d="M747.7,274c-27.5,0-55,0-82.4,0c-10.3,0-14.8-4.6-14.8-14.9c0-15.9,0-31.7,0-47.6c0-10,4.7-14.8,14.6-14.8
		c55,0,109.9,0,164.9,0c10.1,0,14.7,4.7,14.7,14.6c0,16,0,32,0,48c0,10.2-4.4,14.7-14.5,14.7C802.6,274,775.2,274,747.7,274z"/>
	<path fill="#FCFDFD" d="M346.2,441.2c-27.4,0-54.7,0-82.1,0c-10.5,0-15-4.5-15-15.1c0-15.7,0-31.5,0-47.2c0-10.2,4.7-15,14.8-15
		c54.8,0,109.7,0,164.5,0c10.3,0,14.9,4.6,14.9,14.8c0,16,0,32,0,48c0,9.9-4.5,14.5-14.4,14.5C401.4,441.2,373.8,441.2,346.2,441.2z
		"/>
	<path fill="#FCFDFD" d="M161,277.7c-27.4,0-54.7,0-82.1,0c-10.5,0-15-4.5-15-15.1c0-15.7,0-31.5,0-47.2c0-10.2,4.7-15,14.8-15
		c54.8,0,109.7,0,164.5,0c10.3,0,14.9,4.6,14.9,14.8c0,15.9,0,31.7,0,47.6c0,10.4-4.4,14.9-14.7,14.9
		C216,277.7,188.5,277.7,161,277.7z"/>
	<path fill="#FCFDFD" d="M443,136.7c-27.4,0-54.7,0-82.1,0c-10.5,0-15-4.5-15-15.1c0-15.7,0-31.5,0-47.2c0-10.2,4.7-15,14.9-15
		c54.8,0,109.7,0,164.5,0c10.3,0,14.8,4.6,14.9,14.9c0,16,0,32,0,48c0,9.9-4.5,14.4-14.4,14.5C498.2,136.7,470.6,136.7,443,136.7z"
		/>
	<path fill="#FCFDFD" d="M558.3,441.2c-27.4,0-54.7,0-82.1,0c-10.4,0-14.8-4.5-14.8-14.8c0-15.6,0-31.2,0-46.9
		c0-10.3,4.5-14.8,14.9-14.8c54.9,0,109.7,0,164.6,0c10.1,0,14.7,4.6,14.7,14.6c0,15.9,0,31.7,0,47.6c0,9.9-4.5,14.3-14.5,14.3
		C613.6,441.2,585.9,441.2,558.3,441.2z"/>
	<path fill="#FBFCFC" d="M239.7,400.1l0.2,0c0,0.1-0.1,0.3-0.1,0.4l-0.2-0.2L239.7,400.1z"/>
	<path fill="#C6C9CB" d="M458,280c-26,13.1-36.8,34.9-38.6,62.2c-0.1,2.2-0.7,3.1-3,3c-3.1-0.2-6.2-0.2-9.4,0
		c-2,0.1-2.6-0.7-2.5-2.6c1.1-15.9,5.5-30.7,15.5-43.3C429.5,287.1,441.7,280.1,458,280z"/>
	<path fill="#FBFCFC" d="M530.7,330.1c-4.7,5.2-8.3,9.3-11.9,13.4c-1.1,1.3-1.9,0.6-2.7-0.2c-4.3-4-8.6-7.9-12.9-11.8
		c0.2-0.3,0.3-0.6,0.4-0.7c5.6-0.6,5.8-0.6,4.2-6.1c-5.7-19.8-16.2-35.8-35.9-44.3c4.8-1,13,0.6,19.4,3.8c15,7.5,23.8,20,29.3,35.4
		c0.5,1.4,1.1,2.8,1.4,4.3C522.6,328.2,523.3,332.3,530.7,330.1z"/>
	<path fill="#C6C9CB" d="M473.6,518.3c23.1-10.6,33.9-29.1,38.1-52.4c0.6-3.3,0.7-6.7,0.9-10c0.1-2,0.8-2.9,2.9-2.8
		c3.1,0.2,6.2,0.1,9.4,0c1.6,0,2.5,0.3,2.5,2.2c-0.6,21.8-11.2,48.7-34.9,59.4C486.7,517.3,480.7,518.7,473.6,518.3z"/>
	<path fill="#FBFCFC" d="M459.4,518.4c-13.7,0.2-24.7-5.4-33.9-14.9c-8.1-8.3-13.3-18.4-16.3-29.5c-1-3.9-1.4-7.9-7.7-6.2
		c0.1-0.3,0.2-0.7,0.3-1c3.6-4,7.3-8.1,10.9-12.1c0.6-0.7,1.2-0.6,1.9,0c4.5,4.1,9,8.2,13.5,12.3c-0.8,0.9-1.6,0.6-2.3,0.6
		c-2.6-0.1-3.5,0.8-2.8,3.6c5.2,20.7,15.6,37.4,35.9,46.4C459.1,517.8,459.1,518,459.4,518.4z"/>
</g>
<text transform="matrix(1 0 0 1 371.5391 90.4972)"><tspan x="0" y="0" font-family="'Helvetica'" font-size="26">Knowledge </tspan><tspan x="18.8" y="31.2" font-family="'Helvetica'" font-size="26">Curation</tspan></text>
<text transform="matrix(1 0 0 1 523.0652 396.9911)"><tspan x="0" y="0" font-family="'Helvetica'" font-size="26">Model</tspan><tspan x="-25.3" y="31.2" font-family="'Helvetica'" font-size="26">Evaluation</tspan></text>
<text transform="matrix(1 0 0 1 311.577 396.9913)"><tspan x="0" y="0" font-family="'Helvetica'" font-size="26">Model</tspan><tspan x="-41.2" y="31.2" font-family="'Helvetica'" font-size="26">Development</tspan></text>
<text transform="matrix(1 0 0 1 80.6715 231.9949)"><tspan x="0" y="0" font-family="'Helvetica'" font-size="26">Ground Truth</tspan><tspan x="28.2" y="31.2" font-family="'Helvetica'" font-size="26">Creation</tspan></text>
<text transform="matrix(1 0 0 1 707.5634 231.995)"><tspan x="0" y="0" font-family="'Helvetica'" font-size="26">Runtime</tspan><tspan x="-24.6" y="31.2" font-family="'Helvetica'" font-size="26">Deployment </tspan></text>
</svg>
