<?xml version="1.0" encoding="utf-8"?>
<!-- Generator: Adobe Illustrator 18.1.1, SVG Export Plug-In . SVG Version: 6.00 Build 0)  -->
<svg version="1.1" id="Layer_1" xmlns="http://www.w3.org/2000/svg" xmlns:xlink="http://www.w3.org/1999/xlink" x="0px" y="0px"
	 viewBox="0 0 552 352" enable-background="new 0 0 552 352" xml:space="preserve">
<g>
	<path fill="#FCFCFC" d="M281,322c-82.3,0-164.6,0-246.9,0.1c-3.2,0-4.2-0.4-4.2-4c0.1-100.8,0.1-201.6,0-302.4
		c0-3.3,0.9-3.8,3.9-3.8c164.8,0.1,329.6,0.1,494.3,0c3.7,0,3.9,1.2,3.9,4.3c-0.1,100.6-0.1,201.3,0,301.9c0,3.5-0.9,4-4.2,4
		C445.6,322,363.3,322,281,322z M211.4,238.5c32.7,3.6,65.5,7.2,98.2,10.8c1.7,0.2,3.7,1.4,4.2-1.6c0.5-3-1.5-3.2-3.5-3.4
		c-12.7-1.4-25.5-2.8-38.2-4.2c-20.8-2.3-41.5-4.7-63.6-7.2c2.8-1.3,4.4-1.9,5.9-2.7c1.5-0.8,3.1-1.7,2-3.8
		c-0.9-1.7-2.4-1.6-3.9-0.9c-6.1,2.7-12.2,5.3-19,8.3c5,3.8,9.2,7.1,13.5,10.1c2.1,1.4,4.4,5.5,7,2.2c2.6-3.3-2.4-4.1-3.7-6.3
		C210.7,239.3,211.1,238.9,211.4,238.5z M277,313L277,313c64.6,0,129.3,0,193.9,0c27.2,0,48.1-20.9,48.1-48.2c0-60.7,0-121.3,0-182
		c0-28-21-48.8-49.1-48.8c-62.2,0-124.3,0-186.5,0.1c-2.1,0-6.3-2-6.2,2.1c0.1,3.4,4,1.6,6.1,1.6c61.5,0.1,123,0,184.4,0.1
		c28.9,0,47.2,18.4,47.2,47.2c0,58.7,0,117.3,0,176c0,3.5,0,7-0.5,10.5c-3.9,23.3-21.6,37.4-46.8,37.4c-126.6,0-253.3,0-379.9,0
		c-5.2,0-10.3-0.2-15.3-1.6c-19.5-5.6-32.1-22-32.3-43.1c-0.3-28.5-0.1-57-0.1-85.5c0-31.5-0.1-63,0-94.5
		C40.1,58,57.3,39.3,83.7,38.4c24-0.8,48-0.3,72-0.3c1.2,0,2.3,0,3.5,0c1.2,0,1.9-0.5,1.8-1.8c0-1.1-0.2-2-1.6-2.1
		c-1.3,0-2.7-0.1-4-0.1c-23.2,0-46.3,0-69.5,0C56.7,34.1,36,54.9,36,84.2c0,27.7,0,55.3,0,83c0,32.3-0.1,64.7,0,97
		c0.1,28.2,20.9,48.8,49,48.8C149,313,213,313,277,313z M157.5,127c-6.7,0-13.3,0.1-20-0.1c-2.9-0.1-3.6,0.9-3.6,3.7
		c0.2,9.6,0.1,19.3,0,28.9c0,2.5,0.6,3.5,3.3,3.4c13.5-0.1,27-0.1,40.4,0c2.7,0,3.4-0.9,3.3-3.5c-0.1-9.6-0.1-19.3,0-28.9
		c0-2.7-0.7-3.8-3.6-3.7C170.8,127.1,164.1,127,157.5,127z M157.2,169c-6.7,0-13.3,0.1-20,0c-2.2,0-3.4,0.3-3.3,2.9
		c0.1,10,0.1,20,0,29.9c0,2.3,0.6,3.2,3.1,3.2c13.6-0.1,27.3-0.1,40.9,0c2.5,0,3.1-0.9,3.1-3.2c-0.1-9.8-0.2-19.6,0-29.4
		c0.1-3.1-1.3-3.5-3.9-3.5C170.6,169.1,163.9,169,157.2,169z M158,210L158,210c-6.8,0-13.6,0.1-20.5-0.1c-2.9-0.1-3.6,0.9-3.6,3.7
		c0.2,9.6,0.1,19.3,0,29c0,2.5,0.6,3.5,3.3,3.5c13.5-0.1,27-0.1,40.4,0c2.7,0,3.4-0.9,3.3-3.4c-0.1-9.7-0.2-19.3,0-29
		c0.1-3.4-1.3-3.8-4.1-3.7C170.7,210.1,164.3,210,158,210z M208.9,205.9c2.7-1,4-1.5,5.3-2.1c1.6-0.6,3.3-1.3,2.7-3.5
		c-0.7-2.6-2.7-1.9-4.5-1.3c-6.1,2.1-12.1,4.2-19,6.6c5.7,5.1,10.9,9.7,16.1,14.2c1.2,1,2.6,0.7,3.6-0.3c1.1-1.2,0.7-2.5-0.4-3.5
		c-1.1-1.2-2.3-2.2-4.2-4c2.3,0.1,3.8,0,5.1,0.3c14,2.7,28,5.5,42,8.3c17.6,3.5,35.2,7,52.8,10.4c2,0.4,4.4,1.2,4.8-2.3
		c0.4-3.2-2.1-2.4-3.6-2.7c-23.8-4.7-47.6-9.3-71.4-14C229,210,219.6,208.1,208.9,205.9z M208.4,182.3c19.5-2.6,37.6-5,55.8-7.4
		c15.2-2,30.3-4,45.5-6.1c1.7-0.2,4.3,0.3,3.6-3.2c-0.5-2.4-1.6-2.3-3.5-2.1c-25.2,3.5-50.4,6.9-75.6,10.3
		c-8.2,1.1-16.5,2.1-26.1,3.3c2.2-1.9,3.4-2.8,4.4-3.7c1.3-1.1,2.7-2.4,1.5-4.2c-1.5-2.1-3.2-0.9-4.7,0.2c-5.1,4-10.2,7.9-15.9,12.3
		c6.9,2.9,13.1,5.5,19.4,8.1c1.6,0.6,3.1,0.3,3.8-1.3c0.7-1.8-0.6-2.7-2-3.4C213,184.3,211.4,183.6,208.4,182.3z M209.6,150.7
		c0.1-0.3,0.3-0.7,0.4-1c17.5,1.6,35.1,3.2,52.6,4.8c15.7,1.4,31.5,2.9,47.2,4.3c1.7,0.2,3.2,0.5,3.5-2.1c0.3-2.5-0.8-2.8-2.7-2.9
		c-1.3-0.1-2.6-0.4-4-0.5c-27.8-2.5-55.7-4.9-83.5-7.4c-4.3-0.4-8.6-0.9-14.3-1.5c2.8-1.4,4.3-2.1,5.7-3c1.3-0.8,2.8-1.6,1.8-3.5
		c-1-2-2.5-1.8-4.2-0.9c-6,2.8-12,5.6-18.7,8.7c6.1,4.3,11.6,8.3,17.1,12.2c1.4,1,2.9,1.1,3.9-0.4c1.1-1.6,0-2.8-1.2-3.8
		C212.2,152.5,210.9,151.6,209.6,150.7z M366.7,195c12.8,0,25.6-0.1,38.4,0.1c2.9,0,4-0.5,4-3.8c-0.2-15.1-0.2-30.3,0-45.4
		c0-3.1-1-3.9-4-3.9c-25.6,0.1-51.3,0.1-76.9,0c-3.8,0-4.3,1.5-4.2,4.7c0.1,14.6,0.2,29.3-0.1,43.9c-0.1,4,1.3,4.6,4.8,4.5
		C341.4,194.9,354,195,366.7,195z M366,266c13.1,0,26.3-0.1,39.4,0.1c2.8,0,3.7-0.7,3.6-3.6c-0.1-15.1-0.2-30.3,0-45.4
		c0-3.4-1.1-4.1-4.3-4.1c-25.5,0.1-50.9,0.1-76.4,0c-3.5,0-4.5,1-4.5,4.5c0.2,14.6,0.2,29.3,0,43.9c-0.1,3.6,0.8,4.8,4.6,4.7
		C341,265.8,353.5,266,366,266z"/>
	<path fill="#41648E" d="M277,313c-64,0-128,0-191.9,0c-28.2,0-48.9-20.6-49-48.8c-0.1-32.3,0-64.7,0-97c0-27.7,0-55.3,0-83
		c0-29.4,20.7-50.1,49.9-50.1c23.2,0,46.3,0,69.5,0c1.3,0,2.7,0,4,0.1c1.3,0,1.5,1,1.6,2.1c0,1.3-0.6,1.8-1.8,1.8
		c-1.2,0-2.3,0-3.5,0c-24,0.1-48-0.5-72,0.3C57.3,39.3,40.1,58,40,84.4c-0.1,31.5,0,63,0,94.5c0,28.5-0.2,57,0.1,85.5
		c0.2,21.1,12.8,37.5,32.3,43.1c5,1.4,10.2,1.6,15.3,1.6c126.6,0,253.3,0,379.9,0c25.2,0,42.9-14.2,46.8-37.4
		c0.6-3.4,0.5-7,0.5-10.5c0-58.7,0-117.3,0-176c0-28.8-18.3-47.2-47.2-47.2c-61.5-0.1-123,0-184.4-0.1c-2.1,0-6,1.8-6.1-1.6
		c-0.1-4.1,4.1-2.1,6.2-2.1c62.2-0.1,124.3-0.1,186.5-0.1c28.1,0,49.1,20.8,49.1,48.8c0,60.7,0,121.3,0,182
		c0,27.3-20.9,48.1-48.1,48.2C406.3,313,341.6,313,277,313L277,313z"/>
	<path fill="#4E7FB9" d="M157.5,127c6.7,0,13.3,0.1,20-0.1c2.9-0.1,3.6,1,3.6,3.7c-0.1,9.6-0.1,19.3,0,28.9c0,2.6-0.7,3.5-3.3,3.5
		c-13.5-0.1-27-0.1-40.4,0c-2.7,0-3.4-0.9-3.3-3.4c0.1-9.6,0.1-19.3,0-28.9c0-2.8,0.7-3.8,3.6-3.7C144.2,127.1,150.8,127,157.5,127z
		"/>
	<path fill="#4E7FB9" d="M157.2,169c6.7,0,13.3,0.1,20,0c2.6-0.1,3.9,0.4,3.9,3.5c-0.2,9.8-0.1,19.6,0,29.4c0,2.3-0.6,3.2-3.1,3.2
		c-13.6-0.1-27.3-0.1-40.9,0c-2.4,0-3.1-0.9-3.1-3.2c0.1-10,0.1-20,0-29.9c0-2.6,1.1-3,3.3-2.9C143.9,169.1,150.6,169,157.2,169z"/>
	<path fill="#4E7FB9" d="M158,210c6.3,0,12.7,0.1,19,0c2.8-0.1,4.2,0.3,4.1,3.7c-0.3,9.6-0.2,19.3,0,29c0,2.6-0.7,3.5-3.3,3.4
		c-13.5-0.1-27-0.1-40.4,0c-2.7,0-3.4-1-3.3-3.5c0.1-9.7,0.2-19.3,0-29c0-2.8,0.7-3.8,3.6-3.7C144.4,210.1,151.2,210,158,210
		L158,210z"/>
	<path fill="#5183BB" d="M208.9,205.9c10.7,2.2,20.1,4.1,29.5,6c23.8,4.7,47.6,9.3,71.4,14c1.5,0.3,4-0.5,3.6,2.7
		c-0.4,3.4-2.8,2.7-4.8,2.3c-17.6-3.4-35.2-6.9-52.8-10.4c-14-2.8-28-5.5-42-8.3c-1.4-0.3-2.8-0.2-5.1-0.3c1.9,1.8,3.1,2.9,4.2,4
		c1,1.1,1.5,2.3,0.4,3.5c-1,1-2.4,1.3-3.6,0.3c-5.2-4.5-10.4-9.2-16.1-14.2c6.9-2.4,12.9-4.5,19-6.6c1.8-0.6,3.8-1.3,4.5,1.3
		c0.6,2.1-1.1,2.9-2.7,3.5C212.9,204.4,211.6,204.9,208.9,205.9z"/>
	<path fill="#5183BB" d="M210.4,239.6c1.2,2.2,6.3,3,3.7,6.3c-2.6,3.3-4.9-0.8-7-2.2c-4.4-3-8.5-6.3-13.5-10.1
		c6.8-3,12.9-5.7,19-8.3c1.5-0.6,3.1-0.8,3.9,0.9c1.1,2.1-0.6,3-2,3.8c-1.5,0.8-3.2,1.5-5.9,2.7c22.1,2.5,42.8,4.9,63.6,7.2
		c12.7,1.4,25.5,2.8,38.2,4.2c2.1,0.2,4.1,0.4,3.5,3.4c-0.5,3.1-2.5,1.8-4.2,1.6c-32.7-3.6-65.5-7.2-98.2-10.8
		c-0.7-0.5-1.4-0.7-2.2-0.2C209.6,238.8,210,239.2,210.4,239.6z"/>
	<path fill="#5183BB" d="M208.4,182.3c3,1.3,4.6,2,6.2,2.8c1.4,0.7,2.8,1.6,2,3.4c-0.7,1.7-2.2,2-3.8,1.3
		c-6.3-2.6-12.5-5.2-19.4-8.1c5.6-4.4,10.7-8.3,15.9-12.3c1.5-1.2,3.2-2.3,4.7-0.2c1.3,1.8-0.2,3.1-1.5,4.2c-1.1,1-2.2,1.9-4.4,3.7
		c9.6-1.2,17.8-2.2,26.1-3.3c25.2-3.4,50.4-6.8,75.6-10.3c1.9-0.3,3-0.3,3.5,2.1c0.7,3.5-2,3-3.6,3.2c-15.2,2.1-30.3,4.1-45.5,6.1
		C246.1,177.3,227.9,179.7,208.4,182.3z"/>
	<path fill="#5183BB" d="M209.6,150.7c1.3,1,2.6,1.9,3.8,2.9c1.2,1,2.3,2.2,1.2,3.8c-1.1,1.5-2.5,1.4-3.9,0.4
		c-5.5-3.9-11.1-7.9-17.1-12.2c6.7-3.1,12.7-5.9,18.7-8.7c1.7-0.8,3.2-1.1,4.2,0.9c0.9,1.9-0.6,2.7-1.8,3.5c-1.4,0.9-2.9,1.5-5.7,3
		c5.6,0.6,9.9,1.1,14.3,1.5c27.8,2.5,55.7,4.9,83.5,7.4c1.3,0.1,2.6,0.4,4,0.5c1.9,0.1,3.1,0.4,2.7,2.9c-0.3,2.6-1.8,2.3-3.5,2.1
		c-15.7-1.4-31.5-2.9-47.2-4.3c-17.5-1.6-35.1-3.2-52.6-4.8C209.8,150,209.7,150.4,209.6,150.7z"/>
	<path fill="#010101" d="M366.7,195c-12.6,0-25.3-0.1-37.9,0.1c-3.5,0.1-4.9-0.5-4.8-4.5c0.3-14.6,0.2-29.3,0.1-43.9
		c0-3.2,0.4-4.7,4.2-4.7c25.6,0.2,51.3,0.1,76.9,0c3,0,4,0.8,4,3.9c-0.1,15.1-0.2,30.3,0,45.4c0,3.2-1,3.8-4,3.8
		C392.3,194.9,379.5,195,366.7,195z M366,193c12.5,0,25-0.1,37.5,0.1c2.8,0,3.6-0.7,3.6-3.6c-0.1-14-0.1-28,0-42
		c0-2.8-0.8-3.6-3.6-3.6c-24.7,0.1-49.3,0.1-74,0c-2.8,0-3.6,0.8-3.6,3.6c0.1,14,0.1,28,0,42c0,2.8,0.8,3.6,3.6,3.6
		C341.7,192.9,353.8,193,366,193z"/>
	<path fill="#010101" d="M366,266c-12.5,0-25-0.2-37.4,0.1c-3.9,0.1-4.7-1.1-4.6-4.7c0.2-14.6,0.2-29.3,0-43.9c0-3.5,1-4.5,4.5-4.5
		c25.5,0.1,50.9,0.1,76.4,0c3.2,0,4.3,0.7,4.3,4.1c-0.2,15.1-0.2,30.3,0,45.4c0,2.9-0.9,3.6-3.6,3.6C392.3,265.9,379.1,266,366,266z
		 M367,215c-12.5,0-25,0.1-37.5-0.1c-2.8,0-3.6,0.7-3.6,3.6c0.1,14,0.1,28,0,42c0,2.8,0.8,3.6,3.6,3.6c24.7-0.1,49.3-0.1,74,0
		c2.8,0,3.6-0.7,3.6-3.6c-0.1-14-0.1-28,0-42c0-2.8-0.7-3.6-3.6-3.6C391.3,215.1,379.2,215,367,215z"/>
	<path fill="#FCFCFC" d="M210.4,239.6c-0.4-0.4-0.8-0.8-1.2-1.3c0.8-0.5,1.5-0.3,2.2,0.2C211.1,238.9,210.7,239.3,210.4,239.6z"/>
	<path fill="#FEFEFE" d="M366,193c-12.2,0-24.3-0.1-36.5,0.1c-2.8,0-3.6-0.7-3.6-3.6c0.1-14,0.1-28,0-42c0-2.8,0.7-3.6,3.6-3.6
		c24.7,0.1,49.3,0.1,74,0c2.8,0,3.6,0.7,3.6,3.6c-0.1,14-0.1,28,0,42c0,2.8-0.8,3.6-3.6,3.6C391,192.9,378.5,193,366,193z"/>
	<path fill="#FEFEFE" d="M367,215c12.2,0,24.3,0.1,36.5-0.1c2.8,0,3.6,0.8,3.6,3.6c-0.1,14-0.1,28,0,42c0,2.8-0.8,3.6-3.6,3.6
		c-24.7-0.1-49.3-0.1-74,0c-2.8,0-3.6-0.7-3.6-3.6c0.1-14,0.1-28,0-42c0-2.8,0.8-3.6,3.6-3.6C342,215.1,354.5,215,367,215z"/>
</g>
<text transform="matrix(1 0 0 1 178.0011 41.9255)" font-family="'Helvetica'" font-size="26">Corpus</text>
<text transform="matrix(1 0 0 1 84 98)" font-family="'Helvetica'" font-size="24">Documents </text>
<text transform="matrix(1 0 0 1 341 177)" font-family="'Helvetica'" font-size="24">set 1</text>
<text transform="matrix(1 0 0 1 341 247)" font-family="'Helvetica'" font-size="24">set 2</text>
<text transform="matrix(1 0 0 1 274.9786 98)" font-family="'Helvetica'" font-size="24">Document sets </text>
<text transform="matrix(1 0 0 1 152 152)" fill="#FFFFFF" font-family="'Helvetica'" font-size="24">1</text>
<text transform="matrix(1 0 0 1 152 196)" fill="#FFFFFF" font-family="'Helvetica'" font-size="24">2</text>
<text transform="matrix(1 0 0 1 150.9992 237)" fill="#FFFFFF" font-family="'Helvetica'" font-size="24">3</text>
</svg>
