<?xml version="1.0" encoding="UTF-8" standalone="no"?>
<!-- Generator: Adobe Illustrator 18.1.1, SVG Export Plug-In . SVG Version: 6.00 Build 0)  -->

<svg
   xmlns:dc="http://purl.org/dc/elements/1.1/"
   xmlns:cc="http://creativecommons.org/ns#"
   xmlns:rdf="http://www.w3.org/1999/02/22-rdf-syntax-ns#"
   xmlns:svg="http://www.w3.org/2000/svg"
   xmlns="http://www.w3.org/2000/svg"
   xmlns:sodipodi="http://sodipodi.sourceforge.net/DTD/sodipodi-0.dtd"
   xmlns:inkscape="http://www.inkscape.org/namespaces/inkscape"
   version="1.1"
   id="Layer_1"
   x="0px"
   y="0px"
   viewBox="0 0 1184 792"
   enable-background="new 0 0 1184 792"
   xml:space="preserve"
   inkscape:version="0.91 r13725"
   sodipodi:docname="wks_datatask.svg"
   inkscape:export-filename="\\nlszone\BM130\PUB\ABD202\ART\WORK\ship1\wks_datatask.png"
   inkscape:export-xdpi="94.619499"
   inkscape:export-ydpi="94.619499"><metadata
     id="metadata413"><rdf:RDF><cc:Work
         rdf:about=""><dc:format>image/svg+xml</dc:format><dc:type
           rdf:resource="http://purl.org/dc/dcmitype/StillImage" /></cc:Work></rdf:RDF></metadata><defs
     id="defs411" /><sodipodi:namedview
     pagecolor="#ffffff"
     bordercolor="#666666"
     borderopacity="1"
     objecttolerance="10"
     gridtolerance="10"
     guidetolerance="10"
     inkscape:pageopacity="0"
     inkscape:pageshadow="2"
     inkscape:window-width="1920"
     inkscape:window-height="1015"
     id="namedview409"
     showgrid="false"
     inkscape:zoom="1.1232449"
     inkscape:cx="397.02093"
     inkscape:cy="395.5"
     inkscape:window-x="-8"
     inkscape:window-y="-8"
     inkscape:window-maximized="1"
     inkscape:current-layer="Layer_1" /><path
     d="m 658,12 c 145.8,0 291.7,0 437.5,-0.1 3.7,0 4.6,0.8 4.6,4.6 -0.1,253.3 -0.1,506.7 0,760 0,3.7 -0.8,4.6 -4.6,4.6 -341.7,-0.1 -683.3,-0.1 -1025,0 -3.7,0 -4.6,-0.8 -4.6,-4.6 0.1,-253.3 0.1,-506.7 0,-760 0,-3.7 0.8,-4.6 4.6,-4.6 C 264.7,12 458.8,12 653,12 c 0,5.8 0,11.6 0,17.4 0,1.8 0.1,3.2 2.5,3.3 2.5,0 2.5,-1.5 2.5,-3.3 0,-5.8 0,-11.6 0,-17.4 z m -0.1,536.8 c 1.9,0.1 2.5,4.4 5.5,1.6 1.6,-1.4 1.2,-2.3 0.3,-3.7 -2,-3.3 -3.5,0.4 -5.3,0.3 -0.2,0 -0.3,0 -0.5,-0.1 0.2,-2.1 0.1,-4.2 0.8,-6.3 0.5,-1.5 -0.3,-3.7 -2.8,-3.6 -1.8,0.1 -3.1,0.7 -3,3 0.1,5 0.1,10 0,14.9 0,2 0.8,2.6 2.6,2.6 2.1,0 2.5,-1.1 2.4,-2.8 0,-1.9 0.1,-3.9 0,-5.9 z m -4.8,-175.6 c -2.1,0.3 -3.6,-4.4 -6.1,-0.8 -0.7,1 -1.4,2 -0.1,3.3 3.3,3.3 4,-1.5 6.1,-1.9 0,1.8 -0.1,3.6 -0.1,5.4 0.1,1.3 -0.6,3.2 1.8,3.3 1.8,0.1 3.6,0.4 4.7,-1.7 0.8,-1.5 1.4,-2.5 -0.4,-3.6 -1.5,-0.9 -1,-2.7 -1,-4.1 -0.1,-2.8 -0.1,-5.6 0,-8.4 0.1,-2 -1,-2.5 -2.7,-2.5 -1.7,0 -2.4,0.8 -2.3,2.4 0,2.9 0,5.8 0.1,8.6 z M 608,168 c 0,-7.2 0,-14.3 0,-21.5 0,-27.2 -21.2,-48.3 -48.5,-48.3 -62.6,0 -125.3,0 -187.9,0 -1.2,0 -2.3,0 -3.5,0 -1.4,0 -2.1,0.5 -2.1,2.1 0,1.7 1,1.9 2.2,1.9 2.2,0 4.3,0 6.5,0 60.6,0 121.2,0 181.9,0 29.2,0 47.4,18.4 47.5,47.5 0,7.2 0.1,14.3 0.2,21.5 -0.1,1.2 -0.2,2.3 -0.2,3.5 0,42.5 0.1,85.1 -0.1,127.6 0,12.6 1.1,25.2 -1.1,37.8 -1.5,0.5 -2.5,-0.5 -3.6,-1.1 -1.7,-1.1 -2.3,0.2 -3,1.2 -0.8,1.1 -1.4,2.3 0.4,3.2 1.2,0.6 2.3,1.2 3.4,1.9 1.1,1.2 -0.1,2.2 -0.5,3.1 -8.6,19.6 -31.9,29.4 -53.1,22.6 -0.6,-0.2 -1.7,0.2 -2.2,0.7 -2,2 -4.6,1.7 -7,1.7 -120,0 -240,0 -359.9,0 -3.7,0 -7.4,0 -11,-0.6 -22.6,-3.9 -37.2,-21.4 -37.3,-45 -0.2,-29.7 0,-59.3 0,-89 0,-30.2 -0.1,-60.3 0,-90.5 0.1,-26.2 17.6,-44.9 43.5,-45.7 24,-0.7 48,-0.3 72,-0.3 1.2,0 2.3,0 3.5,0 1.1,0 1.9,-0.2 1.9,-1.6 0,-1.4 -0.4,-2.3 -1.9,-2.2 -1.2,0 -2.3,0 -3.5,0 -23.3,0 -46.7,0 -70,0 -28.6,0 -49.5,20.8 -49.5,49.5 0,17.5 0,35 0,52.5 0,42.8 -0.1,85.7 0,128.5 0.1,27.9 21.1,48.4 48.9,48.4 128.3,0 256.6,0 384.9,0 21,0 35.7,-9.8 45,-28.3 2.1,0.1 4.7,2.4 5.8,-1.4 0.8,-2.9 -1.7,-2.9 -3.3,-3.6 0,-0.8 0,-1.6 0,-2.4 0.2,-0.5 0.3,-0.9 0.5,-1.4 1.1,-4 1.2,-8.1 1.2,-12.3 0,-12.2 0,-24.4 0,-36.7 2,0.3 3.6,0 3.9,-2.4 0.4,-2.8 -1.9,-2.5 -3.5,-2.9 -0.1,-2 -0.4,-4 -0.4,-5.9 0,-35.3 0,-70.5 0,-105.8 1.1,-0.7 3.1,-0.6 3,-2.5 -0.3,-2 -0.7,-3.8 -3.1,-3.8 z m 364.5,143 c 0,0 0,0 0,0 28.1,0 56.3,0 84.4,0.1 3.6,0 5.2,-0.5 5.1,-4.8 -0.2,-24.3 -0.2,-48.6 0,-72.9 0,-3.5 -0.9,-4.5 -4.4,-4.5 -56.8,0.1 -113.6,0.1 -170.4,0 -3.6,0 -4.4,1.1 -4.4,4.5 0.1,24.3 0.2,48.6 0,72.9 0,3.7 1,4.7 4.7,4.7 28.4,-0.1 56.7,0 85,0 z M 972,534 c 0,0 0,0 0,0 28.5,0 57,-0.1 85.4,0.1 3.7,0 4.7,-0.9 4.7,-4.7 -0.2,-24 -0.2,-48 0,-71.9 0,-4.2 -0.8,-5.6 -5.4,-5.6 -56.3,0.2 -112.6,0.2 -168.9,0 -4,0 -5,1.1 -5,5 0.2,24 0.2,48 0,71.9 0,4.1 0.9,5.3 5.1,5.3 C 916,533.9 944,534 972,534 Z M 348.5,476 c -28.1,0 -56.3,0.1 -84.4,-0.1 -4.3,0 -5.2,1.3 -5.2,5.3 0.2,24.1 0.2,48.3 0,72.4 0,3.5 0.9,4.5 4.4,4.5 56.8,-0.1 113.6,-0.1 170.4,0 3.6,0 4.4,-1.1 4.4,-4.5 -0.1,-24.1 -0.2,-48.3 0,-72.4 0,-4.1 -1,-5.3 -5.2,-5.3 -28.1,0.2 -56.3,0.1 -84.4,0.1 z m 624.2,71 c -28.3,0 -56.6,0.1 -84.9,-0.1 -3.6,0 -4.8,0.6 -4.8,4.6 0.2,24.3 0.2,48.6 0,72.9 0,3.8 1.1,4.6 4.8,4.6 56.5,-0.1 112.9,-0.1 169.4,0 3.7,0 5.1,-0.7 5.1,-4.8 -0.2,-24.1 -0.2,-48.3 0,-72.4 0,-4 -1.2,-4.9 -5,-4.9 -28.4,0.2 -56.5,0.1 -84.6,0.1 z M 348.4,653 c 0,0 0,0 0,0 28.3,0 56.6,0 84.9,0.1 3.6,0 4.8,-0.7 4.8,-4.6 -0.2,-24.3 -0.2,-48.6 0,-72.9 0,-3.9 -1.2,-4.6 -4.8,-4.6 -56.6,0.1 -113.2,0.1 -169.9,0 -3.4,0 -4.5,0.7 -4.5,4.4 0.2,24.3 0.2,48.6 0,72.9 0,4.1 1.3,4.9 5.1,4.8 28.1,-0.2 56.2,-0.1 84.4,-0.1 z M 972.5,134 c -28.1,0 -56.3,0.1 -84.4,-0.1 -4.3,0 -5.2,1.2 -5.1,5.3 0.2,24.1 0.2,48.3 0,72.4 0,3.5 0.9,4.5 4.4,4.4 56.8,-0.1 113.6,-0.1 170.4,0 3.6,0 4.4,-1.1 4.4,-4.5 -0.1,-24.1 -0.2,-48.3 0,-72.4 0,-4.1 -1,-5.3 -5.2,-5.2 -28.2,0.2 -56.4,0.1 -84.5,0.1 z M 348.6,666 c -28.3,0 -56.6,0.1 -84.9,-0.1 -3.6,0 -4.9,0.7 -4.8,4.6 0.2,24.3 0.2,48.6 0,72.9 0,3.9 1.1,4.6 4.8,4.6 56.5,-0.1 112.9,-0.1 169.4,0 3.7,0 5.1,-0.7 5.1,-4.8 -0.2,-24.1 -0.2,-48.3 0,-72.4 0,-4 -1.2,-4.9 -5,-4.9 -28.3,0.2 -56.4,0.1 -84.6,0.1 z M 321,770 c 61.3,0 122.6,0 183.9,0 31.6,0 57,-25.1 57,-56.6 0.1,-73.3 0.1,-146.6 0,-219.9 0,-33.6 -25,-58.3 -58.5,-58.3 -55,0 -110,0 -165,0 -0.8,0 -1.7,0 -2.5,0 -1.5,0 -3.1,-0.2 -3,2.1 0.1,2.1 1.6,1.7 2.8,1.8 1,0 2,0 3,0 54,0 108,0.3 161.9,-0.1 35.6,-0.3 57.3,25.8 57.3,53.7 0,73.1 0.2,146.3 -0.1,219.4 -0.1,31.2 -22.8,53.9 -54.1,53.9 -121.8,0.2 -243.6,0.1 -365.4,0.1 -10.7,0 -20.9,-2.1 -30,-7.9 C 91,747.1 82.9,731 82.9,710.7 c -0.1,-35.5 0,-71 0,-106.5 0,-36.3 0,-72.6 0,-109 0,-27.7 16,-48.7 41.9,-54.7 3.9,-0.9 7.9,-1 11.9,-1.4 1.3,-0.1 2.2,-0.3 2.2,-2 0,-1.5 -0.7,-2.1 -2.2,-2 -1.5,0.1 -3,0 -4.5,0.2 -31,2.8 -53.2,26.9 -53.3,58 -0.1,32.3 0,64.7 0,97 0,40.7 -0.1,81.3 0.1,122 0.1,33 25.2,57.8 58,57.8 C 198.4,770 259.7,770 321,770 Z M 899.3,649 c 0,0 0,0 0,0 49.8,0 99.6,0 149.5,0 21.4,0 39.2,-17.6 39.2,-39 0,-50.5 0,-101 0,-151.5 0,-17.4 -11.5,-32.5 -28.2,-37.6 -10.5,-3.2 -21.2,-1.2 -31.8,-1.8 -1.5,-0.1 -2,0.7 -2,2.2 0,2.2 1.6,1.7 2.9,1.7 6.8,0.1 13.7,-0.1 20.5,0.3 20.6,1.3 34.7,16.3 34.7,37.1 0,48.8 0.1,97.7 0,146.5 0,23.4 -15,38.2 -38.5,38.3 -41.3,0 -82.7,0 -124,0 -55.5,0 -111,-0.4 -166.5,0.2 -24.5,0.3 -41.2,-17.2 -40.1,-40.1 0.4,-8.8 0.1,-17.7 0.1,-26.5 0,-39.2 0,-78.3 0,-117.5 0,-20.2 12.7,-35.3 31.9,-37.8 4.3,-0.6 8.7,-0.2 13,-0.5 1.5,-0.1 4.2,1.4 4,-2 -0.2,-3.1 -2.7,-1.7 -4.2,-1.8 -2.8,-0.2 -5.7,-0.1 -8.5,-0.1 -22,0 -40,17.5 -40.1,39.4 -0.2,50.5 -0.2,101 0,151.5 0.1,21.8 17.9,39.1 39.8,39.1 49.4,-0.1 98.9,-0.1 148.3,-0.1 z m 0.1,-311 c 0,0 0,0 0,0 50,0 100,0 150,0 20.5,0 38.6,-17.6 38.6,-38.1 0.1,-51 0.2,-102 0,-153 -0.1,-22.4 -19.1,-42 -48,-38.9 -1.5,0.2 -2,0.8 -2,2.2 0,1.8 1.2,1.7 2.4,1.7 2.2,0 4.3,-0.1 6.5,0 22.6,0.7 37.2,15.8 37.2,38.3 0,48.2 0,96.3 0,144.5 0,3.7 0.1,7.3 -0.8,10.9 -4.3,17.6 -18,28.3 -36.8,28.3 -40.3,0.1 -80.7,0 -121,0 -58.3,0 -116.6,0.1 -175,-0.2 -19.9,-0.1 -35.3,-15.4 -35.4,-35.3 -0.3,-50.3 -0.2,-100.6 0,-151 0.1,-16.3 10.4,-29.2 26,-34 5.4,-1.7 10.8,-1.6 16.3,-1.7 1.1,0 2.4,0.3 2.5,-1.6 0.1,-1.8 -0.7,-2.4 -2.4,-2.3 -2.3,0.1 -4.7,0 -7,0 -21.3,0.1 -39.5,17.6 -39.5,38.9 -0.2,50.7 -0.2,101.3 0,152 0.1,21.9 17.9,39 39.8,39 49.6,0.3 99.1,0.3 148.6,0.3 z M 823,232 c 6.8,0 13.6,-0.1 20.5,0.1 2.9,0.1 3.7,-0.9 3.6,-3.7 -0.1,-9.6 -0.1,-19.3 0,-28.9 0,-2.5 -0.5,-3.5 -3.3,-3.5 -13.8,0.1 -27.6,0.1 -41.4,0 -2.6,0 -3.4,0.8 -3.4,3.4 0.1,9.6 0.2,19.3 0,28.9 -0.1,3.3 1.3,3.8 4.1,3.8 6.6,-0.2 13.2,-0.1 19.9,-0.1 z m 0,-42 c 6.8,0 13.6,-0.1 20.5,0.1 2.9,0.1 3.7,-1 3.6,-3.7 -0.1,-9.6 -0.1,-19.3 0,-28.9 0,-2.5 -0.6,-3.5 -3.3,-3.4 -13.8,0.1 -27.6,0.1 -41.4,0 -2.7,0 -3.4,0.9 -3.3,3.5 0.1,9.6 0.2,19.3 0,28.9 0,2.8 0.7,3.8 3.6,3.7 6.6,-0.3 13.5,-0.2 20.3,-0.2 z m 0.1,324 c -7,0 -14,0.1 -21,0 -2.3,0 -3.3,0.5 -3.2,3.1 0.1,10 0.1,20 0,29.9 0,2.4 0.9,3.1 3.2,3.1 13.8,-0.1 27.6,-0.1 41.4,0 2.5,0 3.5,-0.6 3.5,-3.3 -0.1,-9.8 -0.2,-19.6 0,-29.4 0,-2.7 -0.9,-3.4 -3.4,-3.3 -6.8,0 -13.6,-0.1 -20.5,-0.1 z m 0.4,-42 c -7,0 -14,0.1 -21,-0.1 -2.9,-0.1 -3.7,0.9 -3.6,3.7 0.1,9.6 0.1,19.3 0,28.9 0,2.5 0.6,3.5 3.3,3.5 13.8,-0.1 27.6,-0.1 41.4,0 2.7,0 3.4,-0.9 3.4,-3.5 -0.1,-9.6 -0.1,-19.3 0,-28.9 0,-2.8 -0.6,-3.8 -3.6,-3.7 -6.6,0.2 -13.2,0.1 -19.9,0.1 z M 246,310 c 6.7,0 13.3,-0.1 20,0 2.8,0.1 4.2,-0.3 4.1,-3.7 -0.2,-9.6 -0.1,-19.3 0,-28.9 0,-2.5 -0.6,-3.5 -3.3,-3.5 -13.5,0.1 -26.9,0.1 -40.4,0 -2.7,0 -3.4,0.9 -3.4,3.5 0.1,9.6 0.2,19.3 0,28.9 -0.1,3.4 1.3,3.8 4.1,3.7 6.3,-0.1 12.6,0 18.9,0 z m 0.5,-119 c 0,0 0,0 0,0 -6.3,0 -12.6,0.2 -19,0 -3.3,-0.1 -4.7,0.5 -4.6,4.3 0.3,9.3 0.2,18.6 0,27.9 -0.1,3 0.7,4 3.9,3.9 13.1,-0.2 26.3,-0.2 39.4,0 2.7,0 3.9,-0.5 3.8,-3.5 -0.2,-9.6 -0.1,-19.3 0,-28.9 0,-2.8 -0.8,-3.8 -3.7,-3.7 -6.5,0.1 -13.2,0 -19.8,0 z m -0.5,78 c 0,0 0,0 0,0 6.8,0 13.6,0 20.5,0.1 2.3,0 3.7,-0.3 3.6,-3.2 -0.2,-10 -0.1,-20 0,-29.9 0,-2.6 -1.1,-3 -3.3,-3 -13.5,0.1 -26.9,0.1 -40.4,0 -2.6,0 -3.4,0.8 -3.4,3.4 0.1,9.6 0.2,19.3 0,28.9 -0.1,3.3 1.3,3.8 4.1,3.7 6.2,-0.1 12.6,0 18.9,0 z m 36.6,0.6 c 5.6,5 10.7,9.5 15.7,14 1.3,1.2 2.8,1.2 4,-0.1 1.1,-1.2 0.4,-2.4 -0.4,-3.6 -0.9,-1.3 -3,-1.6 -2.8,-3.8 1.7,-0.5 3.3,0 4.9,0.4 31.2,6.1 62.3,12.3 93.5,18.3 1.5,0.3 3.9,2.2 4.7,-1.4 0.9,-3.8 -1.9,-3.2 -3.8,-3.5 -31.8,-6.3 -63.6,-12.6 -95.4,-18.8 -1.3,-0.3 -2.7,-0.3 -4.1,-1.7 1.7,-0.6 3,-1 4.2,-1.5 1.7,-0.7 3.7,-1.5 2.7,-3.9 -0.9,-2.1 -2.8,-1.4 -4.3,-0.9 -6.1,2 -12.1,4.1 -18.9,6.5 z m 15.6,32.5 c 0.8,0 1.4,-0.1 1.9,0 32.7,3.7 65.5,7.4 98.2,11.1 1.9,0.2 4,1.5 4.4,-1.9 0.3,-3.3 -2.2,-2.9 -3.9,-3.1 -24.6,-2.8 -49.3,-5.5 -73.9,-8.3 -8.7,-1 -17.4,-2.1 -27.3,-3.3 2.9,-1.3 4.6,-2 6.2,-2.9 1.3,-0.7 2.7,-1.7 1.7,-3.6 -0.8,-1.4 -2.2,-1.6 -3.5,-1.1 -6.3,2.7 -12.5,5.5 -19.4,8.5 6,4.5 11.1,8.4 16.3,12.3 1.4,1.1 3,1.8 4.4,0.1 1.5,-1.9 -0.1,-3 -1.3,-4.1 -1.2,-1.1 -3,-1.6 -3.8,-3.7 z m 0.3,-55.9 c 20.5,-2.8 40.7,-5.5 60.9,-8.2 13.2,-1.8 26.4,-3.4 39.5,-5.3 1.5,-0.2 4,0.3 3.5,-2.9 -0.3,-2.1 -1,-2.8 -3.2,-2.5 -17.6,2.5 -35.2,4.8 -52.8,7.2 -15.9,2.1 -31.9,4.3 -48,6.4 0.5,-2.4 2.6,-2.8 3.8,-4.1 1,-1.1 2.2,-2.3 1,-3.9 -1.2,-1.5 -2.7,-1.2 -4,-0.2 -5.3,4.1 -10.6,8.3 -16.5,12.9 6.8,2.8 12.9,5.4 19.1,7.9 1.5,0.6 3,0.8 3.9,-0.9 1.1,-2.1 -0.6,-2.9 -2.1,-3.8 -1.7,-0.7 -3.6,-0.8 -5.1,-2.6 z m 0.1,-32.3 c 1.2,0 2.1,-0.1 3,0 20.4,1.8 40.7,3.7 61.1,5.5 12.1,1.1 24.2,2.2 36.3,3.4 1.9,0.2 3,0 3.3,-2.3 0.3,-2.7 -1.3,-2.6 -2.9,-2.8 -0.7,-0.1 -1.3,-0.2 -2,-0.3 -24.2,-2.1 -48.4,-4.3 -72.5,-6.4 -8.5,-0.8 -17,-1.6 -26.8,-2.5 2.7,-1.5 4.2,-2.3 5.7,-3.2 1.2,-0.8 2.7,-1.6 1.6,-3.5 -1,-1.7 -2.2,-1.7 -3.8,-0.9 -6.1,2.9 -12.2,5.7 -18.9,8.8 6.2,4.4 11.7,8.3 17.2,12.3 1.2,0.9 2.6,0.9 3.6,-0.2 1.3,-1.5 0.4,-2.8 -0.7,-3.9 -1.4,-1.4 -3.4,-1.8 -4.2,-4 z m 157,45.1 c 12.6,0 25.3,-0.1 37.9,0.1 3.3,0 4.6,-0.5 4.6,-4.2 -0.2,-14.8 -0.2,-29.6 0,-44.4 0,-3.4 -0.8,-4.5 -4.4,-4.5 -25.5,0.2 -50.9,0.1 -76.4,0 -3.1,0 -4.4,0.6 -4.4,4.1 0.2,15 0.2,30 0,44.9 0,3.4 1,4.1 4.2,4.1 12.9,-0.2 25.7,-0.1 38.5,-0.1 z m 0,71 c 12.6,0 25.3,-0.2 37.9,0.1 3.9,0.1 4.6,-1.1 4.6,-4.7 -0.2,-14.6 -0.2,-29.3 0,-43.9 0,-3.4 -0.8,-4.6 -4.4,-4.5 -25.5,0.2 -50.9,0.2 -76.4,0 -3.7,0 -4.4,1.3 -4.4,4.6 0.2,14.8 0.2,29.6 0,44.4 0,3.4 1,4.2 4.2,4.1 12.8,-0.2 25.7,-0.1 38.5,-0.1 z M 658,162.5 c -0.1,0 -0.1,0 -0.2,0 0,-3.2 0.2,-6.3 -0.1,-9.5 -0.1,-1.2 -0.7,-3.2 -2.9,-2.3 -1.2,0.4 -3.1,0.5 -2.6,2.3 1.5,5.6 0.4,11.3 0.7,16.9 0.1,1.8 0.4,2.8 2.5,2.8 2,0 2.6,-0.9 2.6,-2.7 0,-2.5 0,-5 0,-7.5 z m -5,139.9 c 0,2.5 0.1,5 0,7.5 -0.1,1.8 0.5,2.7 2.5,2.8 2,0 2.1,-1.1 2.7,-2.7 2,-5 -0.8,-9.9 -0.1,-14.8 0.2,-1.7 -0.2,-2.8 -2.4,-2.9 -2.3,-0.1 -2.7,1.2 -2.7,3.1 0.1,2.4 0,4.7 0,7 z m 5,455.1 c 0,-2.5 -0.1,-5 0,-7.4 0.1,-1.8 -0.5,-2.7 -2.5,-2.7 -2,0 -2.6,0.9 -2.5,2.7 0.1,4.9 0.1,9.9 0,14.8 0,1.9 0.6,2.7 2.5,2.7 1.9,0 2.6,-0.9 2.5,-2.7 -0.1,-2.4 0,-4.9 0,-7.4 z m 0,-420.1 c 0,-2.5 -0.1,-5 0,-7.4 0.1,-2 -0.8,-2.6 -2.7,-2.6 -1.6,0 -2.4,0.7 -2.4,2.4 0,5.1 0,10.2 0,15.3 0,1.9 0.8,2.6 2.7,2.6 2.1,0 2.4,-1.2 2.4,-2.9 0,-2.5 0,-5 0,-7.4 z m -5,385 c 0,2.5 0.1,5 0,7.4 -0.1,1.8 0.4,2.8 2.4,2.8 1.9,0 2.7,-0.7 2.6,-2.6 -0.1,-4.9 -0.1,-9.9 0,-14.8 0,-1.7 -0.3,-2.8 -2.4,-2.8 -1.9,0 -2.7,0.8 -2.6,2.6 0.1,2.5 0,5 0,7.4 z m 0,-315.2 c 0,2.6 0.1,5.3 0,7.9 -0.1,2 0.9,2.6 2.7,2.6 1.7,0 2.3,-0.8 2.3,-2.4 0,-5.1 0,-10.2 0,-15.4 0,-1.9 -0.9,-2.6 -2.7,-2.6 -2.1,0 -2.4,1.2 -2.3,2.9 0,2.3 0,4.7 0,7 z m 0,35.1 c 0,2.6 0,5.3 0,7.9 0,1.7 0.6,2.4 2.3,2.4 1.8,0 2.8,-0.5 2.7,-2.5 -0.1,-5.1 -0.1,-10.2 0,-15.4 0,-1.7 -0.6,-2.4 -2.3,-2.4 -1.8,0 -2.8,0.5 -2.7,2.5 0.1,2.5 0,5 0,7.5 z m 5,245.1 c 0,-2.5 0,-5 0,-7.5 0,-1.6 -0.5,-2.5 -2.3,-2.5 -1.8,0 -2.8,0.5 -2.8,2.5 0.1,5 0.1,10 0,15 0,1.8 0.5,2.8 2.5,2.8 2,0 2.6,-1 2.5,-2.8 0.1,-2.5 0.1,-5 0.1,-7.5 z m 0,-209.5 c 0,-2.5 0,-5 0,-7.4 0.1,-1.9 -0.3,-3.2 -2.6,-3.1 -2.1,0.1 -2.4,1.1 -2.4,2.9 0,4.9 0.1,9.9 0,14.8 0,1.9 0.8,2.6 2.7,2.6 2,0 2.5,-1.1 2.4,-2.8 -0.1,-2.4 -0.1,-4.7 -0.1,-7 z m 0,34.8 c 0,-2.7 -0.1,-5.3 0,-8 0,-1.8 -0.9,-2.3 -2.5,-2.3 -1.5,0 -2.6,0.4 -2.5,2.2 0,5.2 0,10.3 0,15.5 0,2 0.9,2.6 2.8,2.5 1.8,0 2.3,-0.9 2.3,-2.5 -0.1,-2.5 -0.1,-5 -0.1,-7.4 z m 0,70 c 0,-2.6 0,-5.3 0,-7.9 0,-1.6 -0.6,-2.4 -2.3,-2.5 -1.8,0 -2.8,0.5 -2.8,2.5 0.1,5.1 0,10.2 0,15.4 0,1.6 0.6,2.4 2.3,2.4 1.8,0 2.8,-0.5 2.8,-2.5 0,-2.4 0,-4.9 0,-7.4 z m 0,35.2 c 0,-2.6 0,-5.3 0,-7.9 0,-1.8 -0.6,-2.7 -2.6,-2.7 -1.6,0.1 -2.5,0.5 -2.5,2.3 0,5.3 0,10.6 0,15.9 0,1.8 1.1,2.2 2.6,2.2 1.5,0 2.5,-0.5 2.5,-2.3 0,-2.5 0,-5 0,-7.5 z m 0,34.5 c 0,-2.1 0,-4.3 0,-6.4 0,-1.9 0.2,-3.7 -2.7,-3.6 -2.5,0.1 -2.4,1.6 -2.4,3.4 0,4.6 0.1,9.2 0,13.9 0,1.9 0.3,3.1 2.7,3.1 2.5,0 2.4,-1.6 2.4,-3.3 0,-2.5 0,-4.8 0,-7.1 z m -5,-385.3 c 0,2.8 0,5.6 0,8.4 0,1.8 1.1,2.1 2.6,2.2 1.6,0 2.5,-0.5 2.5,-2.3 0,-5.3 0,-10.6 0,-15.9 0,-1.8 -1,-2.2 -2.6,-2.2 -1.5,0 -2.5,0.5 -2.5,2.3 0,2.5 0,5 0,7.5 z m 5,-209.5 c 0,-2.5 0,-5 0,-7.4 0,-1.7 -0.4,-2.8 -2.4,-2.8 -1.9,0 -2.6,0.7 -2.6,2.6 0.1,5 0,9.9 0,14.9 0,1.7 0.3,2.8 2.4,2.8 2.4,0 2.7,-1.2 2.6,-3.1 -0.1,-2.4 0,-4.7 0,-7 z m 0,35 c 0,-2.5 0,-5 0,-7.4 0,-1.7 -0.3,-2.8 -2.4,-2.8 -1.9,0 -2.7,0.7 -2.6,2.6 0.1,5 0.1,9.9 0,14.9 0,1.7 0.4,2.8 2.4,2.9 2.4,0.1 2.7,-1.2 2.6,-3.1 0,-2.5 0,-4.8 0,-7.1 z m 0,35.1 c 0,-2.6 0,-5.3 0,-7.9 0,-1.6 -0.6,-2.4 -2.3,-2.4 -1.9,-0.1 -2.7,0.5 -2.7,2.5 0.1,5.1 0.1,10.3 0,15.4 0,1.7 0.6,2.4 2.3,2.4 1.8,0.1 2.8,-0.5 2.7,-2.5 -0.1,-2.5 0,-5 0,-7.5 z m 0,69.9 c 0,-2.5 -0.1,-5 0,-7.4 0.1,-1.8 -0.4,-2.8 -2.5,-2.8 -1.9,0 -2.6,0.8 -2.6,2.7 0.1,5 0.1,9.9 0,14.9 0,1.7 0.4,2.8 2.4,2.8 1.9,0 2.7,-0.8 2.6,-2.6 0.1,-2.7 0.1,-5.1 0.1,-7.6 z m 0,35.2 c 0,0 0,0 0,0 0,-2.7 -0.1,-5.3 0,-8 0.1,-2 -0.8,-2.6 -2.7,-2.6 -1.7,0 -2.4,0.8 -2.4,2.4 0,5.1 0.1,10.3 0,15.4 0,2 0.9,2.6 2.7,2.6 2.1,0 2.4,-1.2 2.4,-2.9 0,-2.2 0,-4.6 0,-6.9 z m 48.7,88.1 c -0.2,-2.1 -2.1,-2 -3.4,-2.2 -2.1,-0.3 -2.2,1.8 -2.4,3.1 -0.3,2.5 2.1,2.4 3.5,2.4 2.2,0.1 1.5,-2.3 2.3,-3.3 z M 682.8,139.7 c -0.7,0.8 -3.1,0.3 -2.6,2.5 0.3,1.3 0.2,3.7 2.9,2.9 1.3,-0.4 3.3,-0.4 2.6,-2.6 -0.4,-1.2 -0.3,-3.2 -2.9,-2.8 z m -102.1,136 c -2.2,-0.1 -2.2,1.8 -2.5,3 -0.5,2.2 1.5,2.2 2.8,2.5 2.6,0.6 2.5,-1.8 2.7,-3.1 0.4,-2.1 -1.8,-1.8 -3,-2.4 z m 73,256.3 c -0.8,-1.3 -1,-3.3 -2.7,-3.2 -1.5,0.1 -3.5,0.9 -3.3,2.9 0.2,1.3 1,3.2 2.8,2.9 1.3,-0.2 2.9,-0.9 3.2,-2.6 z M 640.9,371.8 c 1.5,-0.6 2.3,-1.9 2.6,-3.2 0.6,-2.3 -1.7,-2.7 -3,-3 -1.7,-0.4 -2.4,1.6 -2.7,2.9 -0.6,2.1 1.9,2 3.1,3.3 z M 592.6,178.9 c -0.7,-1.3 -0.5,-3.5 -2.3,-3.4 -1.2,0.1 -3.7,-0.1 -3.5,2.4 0.1,1.3 0.4,3.2 2.4,3.1 1.4,-0.1 3,-0.4 3.4,-2.1 z m -21.3,3.6 c -1,0.8 -3.3,0.4 -3.2,2.4 0.1,1.4 0.1,3.7 2.5,3.3 1.3,-0.2 3.3,-0.4 3.1,-2.4 -0.1,-1.3 -0.2,-3.1 -2.4,-3.3 z m 49.2,299 c -1.1,-0.6 -1,-3.1 -2.9,-2.7 -1.4,0.3 -3.6,0.9 -3,3 0.3,1.2 0.9,3.2 2.9,2.7 1.3,-0.3 2.9,-0.9 3,-3 z m 11.1,17.2 c -0.8,-1.2 -0.9,-3.2 -2.7,-3.2 -1.4,0 -3.3,0.8 -3.4,2.3 -0.1,1.5 0.9,3.5 2.8,3.5 1.3,0 2.8,-1 3.3,-2.6 z m -70,-306.9 c 0.9,-0.9 3.4,-0.3 2.8,-2.6 -0.4,-1.4 -0.3,-3.8 -2.9,-3 -1.2,0.4 -3.3,0.4 -2.6,2.7 0.4,1.4 0.5,3.1 2.7,2.9 z m 85.7,112.6 c 2.2,0.3 2.2,-1.6 2.5,-2.9 0.6,-2.2 -1.4,-2.3 -2.7,-2.7 -2.7,-0.8 -2.5,1.8 -2.8,3 -0.5,2.3 1.8,1.9 3,2.6 z m 52.2,105.2 c 1.8,-0.3 2.5,-1.9 2.7,-3.1 0.3,-1.8 -1.6,-2.5 -2.9,-2.8 -2.2,-0.5 -2.7,1.8 -2.9,3.2 -0.2,1.7 2,1.8 3.1,2.7 z m -137.4,-8.1 c 1.1,-0.9 3.3,-1.1 3,-2.9 -0.2,-1.4 -0.9,-3.6 -3,-3 -1.2,0.3 -3.2,0.9 -2.7,2.8 0.3,1.3 0.9,2.8 2.7,3.1 z m 119.3,172.3 c -0.6,-1.4 -1.1,-3.1 -2.6,-3.3 -1.4,-0.1 -3.2,0.9 -3.4,2.3 -0.1,1.5 0.8,3.5 2.6,3.6 1.4,0 2.8,-1.1 3.4,-2.6 z m -4.9,-427.6 c -0.9,-0.9 -0.4,-3.3 -2.5,-2.9 -1.3,0.2 -3.8,0.1 -3.2,2.7 0.3,1.3 0.5,3.3 2.5,2.9 1.3,-0.4 3.3,-0.4 3.2,-2.7 z m 6.1,246.5 c -2,0 -2.6,1.7 -2.9,2.9 -0.6,2.3 1.8,2.7 3.1,2.9 1.7,0.3 2.4,-1.8 2.7,-3 0.4,-1.7 -1.8,-1.9 -2.9,-2.8 z M 537.7,357 c -0.8,-1.2 -1.1,-3.2 -2.7,-3.2 -1.5,0.1 -3.5,0.9 -3.3,2.9 0.2,1.2 1,3.2 2.8,2.9 1.2,-0.1 2.7,-0.9 3.2,-2.6 z M 517.9,255 c -0.2,-2.1 -2,-2.1 -3.3,-2.3 -2.1,-0.3 -2.2,1.8 -2.4,3 -0.3,2.4 2,2.4 3.4,2.5 2,0.1 1.4,-2.2 2.3,-3.2 z m 106.2,105.8 c 1.7,-0.4 2.5,-1.9 2.7,-3.2 0.3,-2 -1.9,-2.8 -3.3,-2.9 -1.6,-0.1 -2.3,1.8 -2.4,3.2 -0.1,1.7 1.7,2.1 3,2.9 z m -44.9,59.5 c -1.3,0.7 -3.2,1 -3.3,2.6 -0.1,1.6 1,3.3 2.9,3.3 1.3,-0.1 3.1,-0.8 3,-2.6 -0.2,-1.4 -1.1,-2.8 -2.6,-3.3 z m -0.3,-89.8 c 0.2,1.8 1.6,2.6 3,2.9 1.8,0.3 2.5,-1.5 2.8,-2.8 0.5,-2.2 -1.7,-2.8 -3.1,-3.1 -1.6,-0.3 -1.9,1.8 -2.7,3 z m 16.3,114.8 c -0.6,1.2 -3.1,1 -2.7,2.8 0.3,1.4 0.9,3.5 3,3 1.2,-0.3 3.2,-0.9 2.7,-2.8 -0.3,-1.2 -1,-2.7 -3,-3 z M 684.5,312 c -2.1,0.2 -2.3,1.9 -2.4,3.2 -0.2,2.3 2.1,2.4 3.5,2.4 1.9,0 1.9,-2.1 2,-3.3 0.2,-2 -1.9,-1.7 -3.1,-2.3 z m -18.3,-1 c 2.1,0 2.4,-1.7 2.5,-3 0.3,-2.4 -2,-2.5 -3.4,-2.6 -1.9,-0.2 -2,1.9 -2.2,3.2 -0.1,2.1 2,1.8 3.1,2.4 z m -25.7,-13 c 0.3,-2.2 -1.7,-1.9 -2.9,-2.3 -2.3,-0.7 -2.3,1.4 -2.6,2.7 -0.6,2.2 1.3,2.4 2.7,2.6 2.2,0.4 2.2,-1.6 2.8,-3 z m -12,-0.1 c 2.1,0 2.2,-1.8 2.4,-3.1 0.4,-2.1 -1.5,-2.3 -2.8,-2.6 -2.5,-0.5 -2.5,1.9 -2.7,3.2 -0.3,2.1 2,1.7 3.1,2.5 z m 36,-151 c -1.1,0.6 -3.3,0.3 -2.9,2.5 0.3,1.2 0.1,3.4 2.4,3.1 1.3,-0.2 3.3,-0.4 3,-2.5 -0.2,-1.5 -0.4,-3.2 -2.5,-3.1 z M 590.2,279 c -2,0.1 -2.2,1.7 -2.4,3.1 -0.4,2.6 2,2.4 3.2,2.5 1.9,0.2 2,-1.9 2.2,-3.2 0.3,-2.1 -1.9,-1.6 -3,-2.4 z M 692.3,136.1 c -0.9,0.9 -3.3,0.3 -2.7,2.6 0.3,1.2 0.3,3.5 2.4,3 1.2,-0.3 3.8,-0.1 3.1,-2.8 -0.4,-1.3 -0.5,-3 -2.8,-2.8 z m 9.8,1.9 c 0.5,-0.9 3.1,-0.1 2.4,-2.4 -0.4,-1.3 -0.3,-3.7 -2.8,-3 -1.3,0.4 -3.1,0.7 -2.6,2.8 0.2,1.4 0.5,3 3,2.6 z m -100.2,37 c -0.7,-1.1 -0.4,-3.2 -2.6,-3 -1.4,0.2 -3.4,0.4 -3,2.4 0.2,1.2 0.2,3.4 2.4,3 1.2,-0.2 3.1,-0.2 3.2,-2.4 z m 15.8,-10.2 c -1.2,0.6 -3.2,0.4 -2.7,2.7 0.3,1.3 0.3,3.3 2.5,2.8 1.3,-0.3 3.3,-0.5 2.9,-2.6 -0.2,-1.3 -0.6,-3 -2.7,-2.9 z m 18.8,-1.8 c 1.3,-0.5 3.1,-0.6 2.5,-2.8 -0.4,-1.2 -0.3,-3.4 -2.6,-2.6 -1.3,0.4 -3.3,0.4 -2.8,2.7 0.3,1.4 0.6,3.1 2.9,2.7 z m 9,-3.3 c 1.1,-0.9 3.4,-0.4 3,-2.6 -0.3,-1.3 -0.4,-3.3 -2.6,-3 -1.3,0.2 -3.3,0.5 -2.9,2.6 0.3,1.3 0.3,3.1 2.5,3 z M 703.3,607 c -0.6,-1.4 -0.9,-3.3 -2.5,-3.2 -1.4,0.1 -3.5,1 -3.2,2.9 0.1,1.2 0.9,3.1 2.7,2.9 1.2,-0.2 2.6,-0.9 3,-2.6 z M 551.8,195.5 c 1.3,-0.7 3.6,-0.5 3.1,-2.9 -0.3,-1.4 -0.6,-3.1 -2.7,-2.6 -1.3,0.3 -3.3,0.3 -2.8,2.4 0.4,1.1 0.3,3.1 2.4,3.1 z m -6,0.9 c -0.8,-1.1 -0.4,-3.4 -2.4,-3 -1.3,0.2 -3.7,0.2 -3.2,2.7 0.3,1.2 0.5,3.3 2.6,2.8 1.3,-0.3 3.1,-0.3 3,-2.5 z m -11.7,68.5 c 2.2,0 2.3,-1.9 2.5,-3.1 0.3,-2.4 -2,-2.4 -3.4,-2.5 -1.9,-0.1 -2,2 -2.1,3.2 -0.2,2.1 1.9,1.8 3,2.4 z m 84.5,86.8 c -0.9,-1.2 -2,-2.4 -3.5,-2.3 -1.7,0 -2.5,2 -2.6,3.2 -0.1,1.6 1.8,2.4 3.2,2.5 1.8,-0.1 2.2,-1.9 2.9,-3.4 z M 546,265.1 c 0,-2.2 -1.9,-2.3 -3.2,-2.5 -2.2,-0.3 -2.1,2 -2.3,3.2 -0.4,2.1 1.7,2.2 3,2.3 2.1,0.1 2,-1.8 2.5,-3 z m 9.7,3.2 c -0.2,-1.8 -1.7,-2.1 -3.1,-2.3 -2.1,-0.3 -2.4,1.5 -2.6,2.9 -0.3,2.2 1.7,2.3 3,2.6 2.3,0.5 1.7,-1.9 2.7,-3.2 z m 9.3,3.4 c -0.1,-2 -1.8,-2.2 -3.1,-2.5 -2.2,-0.4 -2.2,1.8 -2.5,3 -0.4,2.2 1.8,2.2 3,2.4 2.3,0.6 1.9,-1.7 2.6,-2.9 z m -40.1,-71.3 c -1.3,0.7 -3.5,0.4 -3.5,2.3 0,1.3 0.4,3.3 2.3,3.4 1.4,0 3.3,-0.3 3.3,-2.3 0,-1.4 -0.4,-3 -2.1,-3.4 z m -7.2,6.5 c -0.7,-1.1 -0.5,-3.2 -2.6,-2.8 -1.3,0.3 -3.3,0.3 -2.9,2.4 0.3,1.3 0.3,3.7 2.8,3 1.2,-0.2 3.1,-0.3 2.7,-2.6 z m 82,75.4 c -2.2,-0.1 -2.3,1.8 -2.5,3.1 -0.4,2.1 1.6,2.3 3,2.5 2.2,0.3 2.3,-1.7 2.5,-3 0.4,-2.3 -1.9,-1.8 -3,-2.6 z M 568,319.4 c -0.4,-1.8 -1.9,-2.5 -3.3,-2.5 -1.6,0 -2.6,1.7 -2.5,3.2 0.1,1.7 1.9,2.6 3.2,2.6 1.6,-0.1 2,-2 2.6,-3.3 z m 53.5,-27.7 c 0.7,-2.2 -1.2,-2.2 -2.5,-2.6 -2.1,-0.7 -2.5,0.9 -2.9,2.3 -0.7,2.5 1.3,2.6 2.8,3 2.4,0.7 1.9,-1.5 2.6,-2.7 z M 580.1,184.8 c 0.8,-0.9 3.1,-0.5 2.9,-2.6 -0.1,-1.4 -0.4,-3.3 -2.4,-3.1 -1.3,0.2 -3.4,0.3 -3,2.4 0.1,1.3 0.2,3.2 2.5,3.3 z m 9.4,252.3 c -0.7,1.1 -3,1 -2.5,3 0.3,1.3 1,3.2 2.9,2.7 1.2,-0.3 3.2,-0.9 2.8,-2.8 -0.3,-1.2 -1.1,-2.8 -3.2,-2.9 z M 526,292.5 c -0.1,-1.9 -1.6,-2.6 -2.9,-2.9 -1.8,-0.4 -2.4,1.6 -2.8,2.8 -0.5,2 1.5,2.5 2.7,2.8 1.9,0.4 2.2,-1.6 3,-2.7 z m 83.3,172.6 c -0.7,-1.2 -0.9,-3.2 -2.8,-2.8 -1.3,0.2 -3.1,1 -2.9,2.7 0.1,1.3 1,3.1 2.8,2.9 1.3,-0.2 2.6,-1 2.9,-2.8 z M 697,318.2 c 0.4,-2.5 -1.6,-2.6 -2.8,-2.9 -2.3,-0.6 -2.1,1.6 -2.5,2.9 -0.7,2.3 1.5,2.3 2.8,2.6 2.1,0.6 2,-1.4 2.5,-2.6 z m -85.2,158.2 c 1,-0.8 3.1,-0.8 3,-2.7 0,-1.4 -1,-3.2 -2.5,-3.3 -1.3,-0.1 -3,1 -3.2,2.6 -0.1,1.5 1,2.7 2.7,3.4 z m 14.2,13.8 c -0.8,-1.2 -1,-3.2 -2.8,-3 -1.3,0.1 -3.1,0.9 -3,2.6 0.1,1.4 1,3.1 2.6,3 1.3,0 2.7,-0.9 3.2,-2.6 z m 16.8,25.1 c -0.8,-1.3 -1.1,-3.1 -2.9,-3.1 -1.5,0 -3.1,1 -3.1,2.6 0,1.4 0.8,3.2 2.6,3.1 1.5,-0.1 2.7,-1.1 3.4,-2.6 z m -13,-351.5 c -1,-0.5 -0.3,-3.2 -2.5,-2.6 -1.3,0.3 -3.7,0.3 -3,2.8 0.3,1.2 0.4,3.3 2.6,2.7 1.2,-0.4 3.1,-0.4 2.9,-2.9 z M 536.5,200 c -0.7,-1 -0.4,-3.2 -2.5,-3 -1.4,0.1 -3.2,0.4 -3,2.4 0.1,1.3 0.2,3.3 2.3,3 1.2,-0.1 3.1,-0.1 3.2,-2.4 z m 139.4,365.2 c -0.8,-1.2 -1.1,-3.1 -2.9,-3 -1.4,0.1 -3.2,0.9 -3.1,2.7 0.1,1.4 0.9,3.2 2.7,3 1.3,-0.2 2.8,-1 3.3,-2.7 z m -155,-233.4 c -0.9,-1.2 -1.1,-3.2 -3,-2.8 -1.3,0.3 -3.2,0.9 -2.8,2.8 0.3,1.3 0.9,3.2 2.8,2.8 1.3,-0.2 2.8,-1.1 3,-2.8 z m 69.4,7.1 c 1.8,-0.3 2.5,-1.8 2.7,-3.1 0.2,-1.8 -1.6,-2.5 -2.9,-2.7 -1.8,-0.2 -2.6,1.7 -2.7,3 -0.2,1.7 1.8,2 2.9,2.8 z m -72.6,-52.1 c -0.5,-1.6 -1.8,-2.5 -3.2,-2.6 -1.8,-0.2 -2.5,1.6 -2.6,3 -0.1,1.7 1.5,2.6 2.9,2.7 1.8,0 2.2,-1.8 2.9,-3.1 z M 686.9,582 c -0.7,-1.3 -1.1,-3.1 -2.8,-3 -1.4,0 -3.2,0.9 -3,2.6 0.1,1.3 0.9,3.2 2.5,3.1 1.3,-0.1 2.7,-1.1 3.3,-2.7 z m 2.6,5.1 c -1.3,0.7 -3.2,1.1 -3.1,2.7 0,1.3 1,3.1 2.7,3.1 1.5,0 3.1,-1 3.1,-2.6 -0.1,-1.4 -0.9,-2.8 -2.7,-3.2 z m 8.4,11.2 c -0.9,-1.1 -1.1,-3.1 -2.9,-2.8 -1.3,0.2 -3.1,1 -2.9,2.8 0.2,1.4 1,3.1 2.8,2.8 1.3,-0.2 2.9,-0.9 3,-2.8 z M 527,259.1 c 0.5,-2.3 -1.2,-2.7 -2.5,-3 -2.1,-0.5 -2.3,1.3 -2.7,2.7 -0.7,2.4 1.4,2.1 2.6,2.6 2.3,0.8 2,-1.3 2.6,-2.3 z m 44,13.2 c -1.5,0.5 -2,1.8 -2,3.3 -0.1,2 1.6,2.3 3,2.4 2.1,0.1 2.1,-1.8 2.3,-3.1 0.3,-2.4 -2,-1.7 -3.3,-2.6 z m -11.2,117.6 c -1.2,-0.6 -1.1,-3 -3,-2.6 -1.3,0.3 -3.2,0.9 -2.8,2.8 0.2,1.3 0.9,3.2 2.8,2.8 1.2,-0.3 2.8,-1 3,-3 z m 109.1,-5.2 c -0.4,-1.5 -1.7,-2.3 -3.1,-2.6 -1.9,-0.4 -2.6,1.4 -2.8,2.7 -0.3,1.9 1.5,2.6 2.8,2.8 1.9,0.4 2.1,-1.6 3.1,-2.9 z m -36.6,-24.6 c -1.9,0 -2.6,1.6 -2.9,2.9 -0.5,1.9 1.5,2.5 2.7,2.8 1.9,0.5 2.5,-1.4 2.9,-2.7 0.5,-1.9 -1.6,-2.1 -2.7,-3 z m -98,-62.1 c 0,-1.9 -1.5,-2.6 -2.8,-2.8 -1.9,-0.4 -2.5,1.5 -2.8,2.8 -0.4,1.9 1.5,2.4 2.7,2.7 2,0.6 2.1,-1.6 2.9,-2.7 z m 8.7,5 c -0.5,-1.5 -1.8,-2.3 -3.2,-2.5 -1.9,-0.4 -2.4,1.5 -2.7,2.8 -0.4,1.9 1.5,2.5 2.8,2.7 1.9,0.4 2.1,-1.6 3.1,-3 z m -2.8,65.1 c 0.7,-1 3,-1 2.8,-2.8 -0.1,-1.4 -1,-3.2 -2.6,-3.1 -1.3,0.1 -3.1,1 -3,2.7 -0.1,1.3 0.7,2.8 2.8,3.2 z m 13.8,13.8 c -0.6,-1.3 -1,-3.1 -2.8,-2.9 -1.3,0.2 -3.2,0.9 -3,2.6 0.1,1.3 0.9,3.1 2.6,3 1.4,-0.1 2.9,-1 3.2,-2.7 z m 123.1,8.1 c -0.5,-1.6 -1.8,-2.6 -3.2,-2.7 -1.7,0 -2.5,1.8 -2.6,3.1 -0.1,1.7 1.7,2.5 3.1,2.6 1.7,0.1 2.2,-1.6 2.7,-3 z m 10.9,11.1 c 0,1.9 1.6,2.5 2.9,2.8 1.9,0.5 2.5,-1.5 2.8,-2.7 0.4,-1.8 -1.5,-2.6 -2.8,-2.8 -1.8,-0.5 -2,1.5 -2.9,2.7 z M 573.4,412 c -1.3,0.7 -3.1,1.1 -3.1,2.7 0,1.3 1,3.1 2.6,3.1 1.4,0 3.1,-0.9 3.1,-2.6 0.1,-1.3 -0.9,-2.7 -2.6,-3.2 z m 145.7,5.3 c -0.3,-1.7 -1.7,-2.7 -3.1,-2.8 -1.8,-0.2 -2.4,1.7 -2.7,3 -0.4,1.9 1.6,2.4 2.9,2.6 1.9,0.3 2.2,-1.5 2.9,-2.8 z m -131.9,14.6 c -0.6,-1.3 -1,-3.2 -2.8,-3 -1.3,0.2 -3.2,0.8 -2.9,2.6 0.2,1.3 0.8,3.2 2.7,3 1.3,0 2.7,-0.9 3,-2.6 z m 13.6,21.9 c -0.8,0.9 -3,0.9 -2.7,2.8 0.2,1.4 1,3.1 2.7,3 1.3,-0.1 3.1,-0.9 3,-2.7 -0.2,-1.3 -1,-2.8 -3,-3.1 z m 71.7,-141.7 c 0.3,1.5 1.7,1.8 3.1,2 2.2,0.3 2.3,-1.4 2.5,-2.8 0.3,-2.1 -1.4,-2.3 -2.8,-2.5 -2.1,-0.1 -2.2,1.7 -2.8,3.3 z M 634,509.8 c 1.2,-0.8 3.2,-1.2 2.8,-3 -0.2,-1.3 -0.9,-3.1 -2.8,-2.8 -1.3,0.2 -3.2,0.9 -2.8,2.8 0.3,1.2 1.1,2.7 2.8,3 z m -57.6,-185 c -0.5,-1.6 -1.7,-2.6 -3.2,-2.6 -1.8,-0.1 -2.4,1.8 -2.5,3.1 -0.1,1.6 1.6,2.5 3,2.6 1.8,0 2,-1.8 2.7,-3.1 z m 90.7,229 c -0.7,1 -3,0.9 -2.7,2.8 0.2,1.2 0.8,3.2 2.6,3 1.3,-0.1 3,-1 3,-2.7 -0.1,-1.4 -0.9,-2.8 -2.9,-3.1 z M 556.9,317.1 c 1.6,-0.5 2.6,-1.9 2.7,-3.2 0.1,-1.7 -1.9,-2.4 -3.2,-2.5 -1.7,-0.2 -2.5,1.7 -2.6,3.1 0,1.6 1.8,2.1 3.1,2.6 z m 150.8,91.8 c -1.6,0.3 -2.4,1.7 -2.7,3 -0.4,1.9 1.5,2.5 2.8,2.8 1.8,0.4 2.5,-1.5 2.8,-2.8 0.4,-1.7 -1.6,-2 -2.9,-3 z m -140,0.8 c 1.1,-0.9 3.2,-1.1 2.9,-2.9 -0.2,-1.3 -1,-3.1 -2.8,-2.8 -1.4,0.2 -3.1,0.9 -2.8,2.8 0.2,1.3 0.9,2.8 2.7,2.9 z m -44.2,-72.6 c -1.1,0.9 -3.1,1.2 -2.6,3.1 0.3,1.3 0.9,3.2 2.9,2.7 1.2,-0.3 2.7,-1.1 2.5,-2.6 -0.3,-1.5 -1,-3 -2.8,-3.2 z m 122,189.1 c 0.7,-1 3,-0.9 2.3,-3 -0.4,-1.2 -1,-3.1 -2.8,-2.6 -1.2,0.3 -3.2,0.9 -2.7,2.8 0.3,1.3 1,2.8 3.2,2.8 z M 551.3,308.4 c -0.6,-1.4 -1.8,-2.5 -3.3,-2.4 -1.6,0.1 -2.6,1.7 -2.6,3.1 0,1.7 1.9,2.4 3.2,2.5 1.6,0.2 1.9,-1.8 2.7,-3.2 z M 532,348.5 c -0.7,-1.2 -1.1,-3.2 -2.7,-3 -1.2,0.1 -3.2,0.8 -3.1,2.6 0.1,1.4 0.9,3.1 2.7,3 1.3,0 2.8,-0.8 3.1,-2.6 z"
     id="path7"
     inkscape:connector-curvature="0"
     style="fill:#fcfcfb" /><path
     d="m 658,12 c 0,5.8 0,11.6 0,17.4 0,1.8 0,3.3 -2.5,3.3 -2.4,0 -2.5,-1.4 -2.5,-3.3 0.1,-5.8 0,-11.6 0,-17.4 1.7,0 3.3,0 5,0 z"
     id="path9"
     inkscape:connector-curvature="0"
     style="fill:#4c7eb9" /><path
     d="m 972.5,311 c -28.3,0 -56.6,-0.1 -84.9,0.1 -3.7,0 -4.7,-0.9 -4.7,-4.7 0.2,-24.3 0.2,-48.6 0,-72.9 0,-3.4 0.8,-4.5 4.4,-4.5 56.8,0.1 113.6,0.1 170.4,0 3.6,0 4.4,1 4.4,4.5 -0.1,24.3 -0.2,48.6 0,72.9 0,4.3 -1.5,4.8 -5.1,4.8 -28.2,-0.2 -56.3,-0.2 -84.5,-0.2 0,0 0,0 0,0 z"
     id="path11"
     inkscape:connector-curvature="0"
     style="fill:#97b758" /><path
     d="m 972,534 c -28,0 -56,-0.1 -83.9,0.1 -4.2,0 -5.2,-1.2 -5.1,-5.3 0.2,-24 0.2,-48 0,-71.9 0,-3.9 1,-5 5,-5 56.3,0.1 112.6,0.2 168.9,0 4.6,0 5.4,1.4 5.4,5.6 -0.2,24 -0.2,48 0,71.9 0,3.8 -1,4.7 -4.7,4.7 -28.7,-0.1 -57.2,-0.1 -85.6,-0.1 0,0 0,0 0,0 z"
     id="path13"
     inkscape:connector-curvature="0"
     style="fill:#97b758" /><path
     d="m 348.5,476 c 28.1,0 56.3,0.1 84.4,-0.1 4.2,0 5.2,1.1 5.2,5.3 -0.2,24.1 -0.2,48.3 0,72.4 0,3.4 -0.8,4.5 -4.4,4.5 -56.8,-0.1 -113.6,-0.1 -170.4,0 -3.5,0 -4.4,-1 -4.4,-4.5 0.1,-24.1 0.2,-48.3 0,-72.4 0,-4 0.9,-5.3 5.2,-5.3 28.1,0.2 56.2,0.1 84.4,0.1 z"
     id="path15"
     inkscape:connector-curvature="0"
     style="fill:#97b758" /><path
     d="m 972.7,547 c 28.1,0 56.3,0.1 84.4,-0.1 3.8,0 5,0.9 5,4.9 -0.2,24.1 -0.2,48.3 0,72.4 0,4.2 -1.4,4.8 -5.1,4.8 -56.5,-0.1 -112.9,-0.1 -169.4,0 -3.6,0 -4.8,-0.8 -4.8,-4.6 0.2,-24.3 0.2,-48.6 0,-72.9 0,-3.9 1.3,-4.6 4.8,-4.6 28.4,0.2 56.7,0.1 85.1,0.1 z"
     id="path17"
     inkscape:connector-curvature="0"
     style="fill:#97b758" /><path
     d="m 348.4,653 c -28.1,0 -56.3,-0.1 -84.4,0.1 -3.8,0 -5.1,-0.7 -5.1,-4.8 0.2,-24.3 0.2,-48.6 0,-72.9 0,-3.6 1.2,-4.4 4.5,-4.4 56.6,0.1 113.2,0.1 169.9,0 3.6,0 4.8,0.7 4.8,4.6 -0.2,24.3 -0.2,48.6 0,72.9 0,3.9 -1.2,4.6 -4.8,4.6 -28.3,-0.2 -56.6,-0.1 -84.9,-0.1 0,0 0,0 0,0 z"
     id="path19"
     inkscape:connector-curvature="0"
     style="fill:#97b758" /><path
     d="m 972.5,134 c 28.1,0 56.3,0.1 84.4,-0.1 4.2,0 5.2,1.1 5.2,5.2 -0.2,24.1 -0.2,48.3 0,72.4 0,3.4 -0.7,4.5 -4.4,4.5 -56.8,-0.1 -113.6,-0.1 -170.4,0 -3.5,0 -4.5,-0.9 -4.4,-4.4 0.2,-24.1 0.2,-48.3 0,-72.4 0,-4.1 0.9,-5.3 5.1,-5.3 28.2,0.2 56.3,0.1 84.5,0.1 z"
     id="path21"
     inkscape:connector-curvature="0"
     style="fill:#97b758" /><path
     d="m 348.6,666 c 28.1,0 56.3,0.1 84.4,-0.1 3.8,0 5,0.9 5,4.9 -0.2,24.1 -0.2,48.3 0,72.4 0,4.2 -1.4,4.8 -5.1,4.8 -56.5,-0.1 -112.9,-0.1 -169.4,0 -3.6,0 -4.8,-0.8 -4.8,-4.6 0.2,-24.3 0.2,-48.6 0,-72.9 0,-3.9 1.2,-4.6 4.8,-4.6 28.5,0.1 56.8,0.1 85.1,0.1 z"
     id="path23"
     inkscape:connector-curvature="0"
     style="fill:#97b758" /><path
     d="m 321,770 c -61.3,0 -122.6,0 -183.9,0 -32.9,0 -57.9,-24.8 -58,-57.8 -0.2,-40.7 0,-81.3 -0.1,-122 0,-32.3 -0.1,-64.7 0,-97 0.1,-31.1 22.3,-55.2 53.3,-58 1.5,-0.1 3,-0.1 4.5,-0.2 1.4,-0.1 2.1,0.5 2.2,2 0,1.7 -0.9,1.8 -2.2,2 -4,0.4 -8,0.5 -11.9,1.4 -25.9,6.1 -41.9,27 -41.9,54.7 0,36.3 0,72.6 0,109 0,35.5 0,71 0,106.5 0,20.3 8.1,36.4 25.4,47.5 9.1,5.8 19.2,7.9 30,7.9 121.8,0 243.6,0.1 365.4,-0.1 31.3,0 54,-22.7 54.1,-53.9 0.2,-73.1 0,-146.3 0.1,-219.4 0,-27.9 -21.7,-54 -57.3,-53.7 -54,0.4 -108,0.1 -161.9,0.1 -1,0 -2,0 -3,0 -1.3,0 -2.8,0.4 -2.8,-1.8 -0.1,-2.4 1.6,-2.1 3,-2.1 0.8,0 1.7,0 2.5,0 55,0 110,0 165,0 33.5,0 58.4,24.8 58.5,58.3 0.1,73.3 0.1,146.6 0,219.9 0,31.5 -25.5,56.6 -57,56.6 -61.3,0.1 -122.6,0.1 -184,0.1 z"
     id="path25"
     inkscape:connector-curvature="0"
     style="fill:#41628e" /><path
     d="m 603.9,348.8 c -9.3,18.5 -24.1,28.3 -45,28.3 -128.3,0 -256.6,0 -384.9,0 -27.8,0 -48.8,-20.6 -48.9,-48.4 -0.1,-42.8 0,-85.7 0,-128.5 0,-17.5 0,-35 0,-52.5 0,-28.7 20.9,-49.5 49.5,-49.5 23.3,0 46.7,0 70,0 1.2,0 2.3,0 3.5,0 1.5,0 1.9,0.9 1.9,2.2 0,1.4 -0.8,1.6 -1.9,1.6 -1.2,0 -2.3,0 -3.5,0 -24,0.1 -48,-0.4 -72,0.3 -26,0.8 -43.4,19.5 -43.5,45.7 -0.1,30.2 0,60.3 0,90.5 0,29.7 -0.1,59.3 0,89 0.1,23.6 14.7,41.1 37.3,45 3.6,0.6 7.3,0.6 11,0.6 120,0 240,0 359.9,0 2.5,0 5,0.3 7,-1.7 0.5,-0.5 1.6,-0.9 2.2,-0.7 21.2,6.9 44.5,-3 53.1,-22.6 0.4,-0.9 1.6,-1.9 0.5,-3.1 l -0.1,0 c 1.2,0 1.1,-0.8 1,-1.6 1.4,-0.8 1.5,-2.3 1.9,-3.6 2.1,-12.5 1,-25.2 1.1,-37.8 0.1,-42.5 0.1,-85.1 0.1,-127.6 0,-1.2 0.1,-2.3 0.2,-3.5 0.3,0 0.5,0 0.8,0 1.3,0.7 1.4,2.6 3,3 0,35.3 0,70.5 0,105.8 0,2 0.2,4 0.4,5.9 -2,1.6 -2.4,3.4 -0.4,5.3 0,12.2 0,24.4 0,36.7 0,4.1 -0.2,8.2 -1.2,12.3 -0.2,0.5 -0.3,0.9 -0.5,1.4 0,0.8 0,1.6 0,2.4 -1.9,1.3 -2.3,3.1 -2.5,5.1 z"
     id="path27"
     inkscape:connector-curvature="0"
     style="fill:#41628e" /><path
     d="m 899.3,649 c -49.5,0 -99,0 -148.5,0 -21.9,0 -39.7,-17.2 -39.8,-39.1 -0.2,-50.5 -0.2,-101 0,-151.5 0.1,-21.9 18.1,-39.3 40.1,-39.4 2.8,0 5.7,-0.2 8.5,0.1 1.5,0.1 4.1,-1.2 4.2,1.8 0.2,3.3 -2.5,1.9 -4,2 -4.3,0.3 -8.7,-0.1 -13,0.5 -19.2,2.5 -31.9,17.6 -31.9,37.8 0,39.2 0,78.3 0,117.5 0,8.8 0.3,17.7 -0.1,26.5 -1.1,23 15.6,40.4 40.1,40.1 55.5,-0.6 111,-0.2 166.5,-0.2 41.3,0 82.7,0 124,0 23.5,0 38.5,-14.8 38.5,-38.3 0.1,-48.8 0,-97.7 0,-146.5 0,-20.7 -14.1,-35.8 -34.7,-37.1 -6.8,-0.4 -13.7,-0.2 -20.5,-0.3 -1.2,0 -2.8,0.4 -2.9,-1.7 0,-1.4 0.5,-2.2 2,-2.2 10.6,0.6 21.3,-1.4 31.8,1.8 16.7,5.1 28.2,20.2 28.2,37.6 0,50.5 0,101 0,151.5 0,21.5 -17.7,39 -39.2,39 -49.6,0.1 -99.4,0.1 -149.3,0.1 0,0 0,0 0,0 z"
     id="path29"
     inkscape:connector-curvature="0"
     style="fill:#41628e" /><path
     d="m 899.4,338 c -49.5,0 -99,0 -148.5,0 -21.9,0 -39.7,-17.1 -39.8,-39 -0.2,-50.7 -0.2,-101.3 0,-152 0.1,-21.3 18.2,-38.9 39.5,-38.9 2.3,0 4.7,0 7,0 1.6,0 2.5,0.6 2.4,2.3 -0.1,1.8 -1.4,1.6 -2.5,1.6 -5.5,0.1 -11,0 -16.3,1.7 -15.6,4.8 -26,17.7 -26,34 -0.2,50.3 -0.3,100.6 0,151 0.1,19.8 15.5,35.2 35.4,35.3 58.3,0.3 116.6,0.2 175,0.2 40.3,0 80.7,0 121,0 18.8,0 32.4,-10.7 36.8,-28.3 0.9,-3.6 0.8,-7.3 0.8,-10.9 0,-48.2 0,-96.3 0,-144.5 0,-22.6 -14.6,-37.6 -37.2,-38.3 -2.2,-0.1 -4.3,0 -6.5,0 -1.2,0 -2.4,0.1 -2.4,-1.7 0,-1.4 0.5,-2.1 2,-2.2 28.8,-3.1 47.9,16.5 48,38.9 0.2,51 0.2,102 0,153 0,20.5 -18.1,38.1 -38.6,38.1 C 999.4,338 949.4,338 899.4,338 c 0,0 0,0 0,0 z"
     id="path31"
     inkscape:connector-curvature="0"
     style="fill:#41638e" /><path
     d="m 823,232 c -6.7,0 -13.3,-0.1 -20,0.1 -2.8,0.1 -4.2,-0.4 -4.1,-3.8 0.2,-9.6 0.2,-19.3 0,-28.9 0,-2.6 0.7,-3.4 3.4,-3.4 13.8,0.1 27.6,0.1 41.4,0 2.8,0 3.3,1 3.3,3.5 -0.1,9.6 -0.1,19.3 0,28.9 0,2.8 -0.8,3.7 -3.6,3.7 -6.8,-0.2 -13.6,-0.1 -20.4,-0.1 z"
     id="path33"
     inkscape:connector-curvature="0"
     style="fill:#4e7fb9" /><path
     d="m 823,190 c -6.8,0 -13.6,-0.1 -20.5,0.1 -2.9,0.1 -3.6,-0.9 -3.6,-3.7 0.2,-9.6 0.1,-19.3 0,-28.9 0,-2.5 0.7,-3.5 3.3,-3.5 13.8,0.1 27.6,0.1 41.4,0 2.7,0 3.4,0.9 3.3,3.4 -0.1,9.6 -0.1,19.3 0,28.9 0,2.7 -0.7,3.8 -3.6,3.7 -6.7,-0.1 -13.5,0 -20.3,0 z"
     id="path35"
     inkscape:connector-curvature="0"
     style="fill:#4e7fb9" /><path
     d="m 823.1,514 c 6.8,0 13.6,0.1 20.5,-0.1 2.6,-0.1 3.5,0.7 3.4,3.3 -0.1,9.8 -0.1,19.6 0,29.4 0,2.7 -1,3.3 -3.5,3.3 -13.8,-0.1 -27.6,-0.1 -41.4,0 -2.3,0 -3.2,-0.7 -3.2,-3.1 0.1,-10 0.1,-20 0,-29.9 0,-2.5 1,-3.1 3.2,-3.1 7.1,0.3 14.1,0.2 21,0.2 z"
     id="path37"
     inkscape:connector-curvature="0"
     style="fill:#4e7fb9" /><path
     d="m 823.5,472 c 6.7,0 13.3,0.1 20,-0.1 2.9,-0.1 3.6,1 3.6,3.7 -0.1,9.6 -0.1,19.3 0,28.9 0,2.5 -0.7,3.5 -3.4,3.5 -13.8,-0.1 -27.6,-0.1 -41.4,0 -2.8,0 -3.3,-1 -3.3,-3.5 0.1,-9.6 0.1,-19.3 0,-28.9 0,-2.8 0.7,-3.8 3.6,-3.7 6.9,0.2 13.9,0.1 20.9,0.1 z"
     id="path39"
     inkscape:connector-curvature="0"
     style="fill:#4e7fb9" /><path
     d="m 246,310 c -6.3,0 -12.6,-0.1 -19,0.1 -2.8,0.1 -4.2,-0.3 -4.1,-3.7 0.2,-9.6 0.1,-19.3 0,-28.9 0,-2.6 0.7,-3.5 3.4,-3.5 13.5,0.1 26.9,0.1 40.4,0 2.7,0 3.4,0.9 3.3,3.5 -0.1,9.6 -0.2,19.3 0,28.9 0.1,3.4 -1.3,3.8 -4.1,3.7 -6.6,-0.2 -13.2,-0.1 -19.9,-0.1 z"
     id="path41"
     inkscape:connector-curvature="0"
     style="fill:#4e7fb9" /><path
     d="m 246.5,191 c 6.7,0 13.3,0.1 20,-0.1 2.8,-0.1 3.7,0.9 3.7,3.7 -0.1,9.6 -0.2,19.3 0,28.9 0.1,3 -1.2,3.5 -3.8,3.5 -13.1,-0.1 -26.3,-0.2 -39.4,0 -3.1,0 -3.9,-0.9 -3.9,-3.9 0.2,-9.3 0.3,-18.6 0,-27.9 -0.1,-3.7 1.3,-4.4 4.6,-4.3 6.1,0.3 12.4,0.1 18.8,0.1 0,0 0,0 0,0 z"
     id="path43"
     inkscape:connector-curvature="0"
     style="fill:#4e7fb9" /><path
     d="m 246,269 c -6.3,0 -12.6,-0.1 -19,0.1 -2.8,0.1 -4.2,-0.4 -4.1,-3.7 0.2,-9.6 0.2,-19.3 0,-28.9 0,-2.6 0.7,-3.4 3.4,-3.4 13.5,0.1 26.9,0.1 40.4,0 2.2,0 3.3,0.4 3.3,3 -0.1,10 -0.1,20 0,29.9 0,2.9 -1.3,3.2 -3.6,3.2 -6.8,-0.3 -13.6,-0.2 -20.4,-0.2 0,0 0,0 0,0 z"
     id="path45"
     inkscape:connector-curvature="0"
     style="fill:#4e7fb9" /><path
     d="m 605,171 c -0.3,0 -0.5,0 -0.8,0 -0.1,-7.2 -0.2,-14.3 -0.2,-21.5 0,-29.1 -18.3,-47.4 -47.5,-47.5 -60.6,-0.1 -121.2,0 -181.9,0 -2.2,0 -4.3,0 -6.5,0 -1.3,0 -2.3,-0.2 -2.2,-1.9 0,-1.5 0.7,-2.1 2.1,-2.1 1.2,0 2.3,0 3.5,0 62.6,0 125.3,0 187.9,0 27.4,0 48.5,21.1 48.5,48.3 0,7.2 0,14.3 0,21.5 C 607,169 606,170 605,171 Z"
     id="path47"
     inkscape:connector-curvature="0"
     style="fill:#446690" /><path
     d="m 282.6,269.6 c 6.8,-2.4 12.9,-4.5 18.9,-6.6 1.6,-0.5 3.4,-1.2 4.3,0.9 1,2.4 -1,3.2 -2.7,3.9 -1.2,0.5 -2.5,0.9 -4.2,1.5 1.3,1.4 2.7,1.4 4.1,1.7 31.8,6.3 63.6,12.5 95.4,18.8 1.9,0.4 4.7,-0.3 3.8,3.5 -0.9,3.6 -3.3,1.7 -4.7,1.4 -31.2,-6 -62.3,-12.2 -93.5,-18.3 -1.6,-0.3 -3.2,-0.8 -4.9,-0.4 -0.3,2.2 1.9,2.5 2.8,3.8 0.8,1.2 1.6,2.4 0.4,3.6 -1.2,1.3 -2.6,1.3 -4,0.1 -5.1,-4.4 -10.1,-8.9 -15.7,-13.9 z"
     id="path49"
     inkscape:connector-curvature="0"
     style="fill:#5081bb" /><path
     d="m 298.2,302.1 c 0.8,2.1 2.5,2.6 3.7,3.7 1.2,1.1 2.8,2.3 1.3,4.1 -1.4,1.7 -3,1 -4.4,-0.1 -5.2,-3.9 -10.3,-7.8 -16.3,-12.3 6.9,-3 13.2,-5.8 19.4,-8.5 1.3,-0.6 2.7,-0.4 3.5,1.1 1,1.9 -0.4,2.8 -1.7,3.6 -1.6,0.9 -3.3,1.6 -6.2,2.9 9.9,1.2 18.6,2.3 27.3,3.3 24.6,2.8 49.3,5.5 73.9,8.3 1.8,0.2 4.3,-0.2 3.9,3.1 -0.4,3.4 -2.5,2.1 -4.4,1.9 -32.7,-3.7 -65.5,-7.4 -98.2,-11.1 -0.4,0 -1,0 -1.8,0 z"
     id="path51"
     inkscape:connector-curvature="0"
     style="fill:#5182bb" /><path
     d="m 298.5,246.2 c 1.5,1.9 3.5,1.9 5,2.8 1.4,0.9 3.2,1.6 2.1,3.8 -0.9,1.7 -2.4,1.5 -3.9,0.9 -6.1,-2.5 -12.2,-5.1 -19.1,-7.9 5.8,-4.6 11.1,-8.7 16.5,-12.9 1.3,-1 2.8,-1.3 4,0.2 1.2,1.6 0,2.8 -1,3.9 -1.2,1.3 -3.3,1.7 -3.8,4.1 16.1,-2.1 32.1,-4.3 48,-6.4 17.6,-2.4 35.2,-4.7 52.8,-7.2 2.2,-0.3 2.9,0.4 3.2,2.5 0.5,3.2 -2,2.7 -3.5,2.9 -13.2,1.8 -26.4,3.5 -39.5,5.3 -20.2,2.5 -40.3,5.2 -60.8,8 z"
     id="path53"
     inkscape:connector-curvature="0"
     style="fill:#5182bb" /><path
     d="m 298.6,213.9 c 0.9,2.1 2.8,2.6 4.1,3.8 1.2,1.1 2,2.4 0.7,3.9 -1,1.1 -2.4,1.1 -3.6,0.2 -5.5,-3.9 -11.1,-7.9 -17.2,-12.3 6.8,-3.1 12.8,-6 18.9,-8.8 1.6,-0.7 2.9,-0.8 3.8,0.9 1.1,1.9 -0.4,2.7 -1.6,3.5 -1.5,0.9 -3,1.7 -5.7,3.2 9.8,0.9 18.3,1.8 26.8,2.5 24.2,2.2 48.4,4.3 72.5,6.4 0.7,0.1 1.3,0.2 2,0.3 1.7,0.2 3.3,0.1 2.9,2.8 -0.3,2.4 -1.5,2.5 -3.3,2.3 -12.1,-1.1 -24.2,-2.3 -36.3,-3.4 -20.4,-1.8 -40.7,-3.7 -61.1,-5.5 -0.8,0.2 -1.8,0.2 -2.9,0.2 z"
     id="path55"
     inkscape:connector-curvature="0"
     style="fill:#5182bb" /><path
     d="m 455.6,259 c -12.8,0 -25.6,-0.1 -38.4,0.1 -3.2,0 -4.3,-0.7 -4.2,-4.1 0.2,-15 0.2,-30 0,-44.9 0,-3.5 1.2,-4.1 4.4,-4.1 25.5,0.1 50.9,0.1 76.4,0 3.6,0 4.5,1.1 4.4,4.5 -0.2,14.8 -0.2,29.6 0,44.4 0.1,3.8 -1.3,4.3 -4.6,4.2 -12.7,-0.2 -25.4,-0.1 -38,-0.1 z m 0.3,-51 c -12.3,0 -24.7,0.1 -37,-0.1 -2.9,0 -4,0.4 -4,3.7 0.2,13.8 0.2,27.7 0,41.5 0,2.9 0.4,4 3.7,3.9 24.5,-0.2 49,-0.1 73.5,0 2.9,0 4,-0.4 4,-3.7 -0.2,-13.8 -0.2,-27.7 0,-41.5 0.1,-3.6 -1.3,-4 -4.3,-3.9 -11.9,0.2 -23.9,0.1 -35.9,0.1 z"
     id="path57"
     inkscape:connector-curvature="0"
     style="fill:#010101" /><path
     d="m 455.6,330 c -12.8,0 -25.6,-0.1 -38.4,0.1 -3.2,0 -4.2,-0.8 -4.2,-4.1 0.2,-14.8 0.2,-29.6 0,-44.4 0,-3.3 0.7,-4.6 4.4,-4.6 25.5,0.2 50.9,0.2 76.4,0 3.6,0 4.4,1.1 4.4,4.5 -0.2,14.6 -0.2,29.3 0,43.9 0.1,3.6 -0.7,4.8 -4.6,4.7 -12.7,-0.3 -25.4,-0.1 -38,-0.1 z m -0.1,-2 c 12.3,0 24.7,-0.1 37,0.1 2.8,0 3.6,-0.7 3.6,-3.6 -0.1,-14 -0.1,-28 0,-42 0,-2.8 -0.8,-3.6 -3.6,-3.6 -24.7,0.1 -49.3,0.1 -74,0 -2.8,0 -3.6,0.8 -3.6,3.6 0.1,14 0.1,28 0,42 0,2.8 0.8,3.6 3.6,3.6 12.3,-0.2 24.7,-0.1 37,-0.1 z"
     id="path59"
     inkscape:connector-curvature="0"
     style="fill:#010101" /><path
     d="m 653.1,373.2 c 0,-2.8 0,-5.6 -0.1,-8.4 0,-1.6 0.6,-2.4 2.3,-2.4 1.8,0 2.8,0.5 2.7,2.5 -0.1,2.8 -0.1,5.6 0,8.4 0,1.4 -0.5,3.1 1,4.1 1.8,1.1 1.2,2.1 0.4,3.6 -1.1,2.1 -2.9,1.8 -4.7,1.7 -2.4,-0.1 -1.7,-2 -1.8,-3.3 -0.1,-1.8 0,-3.6 0.1,-5.4 0.1,-0.4 0.1,-0.6 0.1,-0.8 z"
     id="path61"
     inkscape:connector-curvature="0"
     style="fill:#5081bb" /><path
     d="m 658,162.5 c 0,2.5 -0.1,5 0,7.5 0.1,1.9 -0.6,2.7 -2.6,2.7 -2.1,0 -2.4,-1 -2.5,-2.8 -0.3,-5.6 0.8,-11.3 -0.7,-16.9 -0.5,-1.9 1.4,-1.9 2.6,-2.3 2.2,-0.8 2.8,1.1 2.9,2.3 0.3,3.1 0.1,6.3 0.1,9.5 0.1,0 0.2,0 0.2,0 z"
     id="path63"
     inkscape:connector-curvature="0"
     style="fill:#4e7fb9" /><path
     d="m 653,302.4 c 0,-2.3 0.1,-4.7 0,-7 -0.1,-1.9 0.3,-3.2 2.7,-3.1 2.1,0 2.6,1.2 2.4,2.9 -0.7,4.9 2.1,9.8 0.1,14.8 -0.6,1.6 -0.7,2.7 -2.7,2.7 -2,0 -2.6,-0.9 -2.5,-2.8 0.1,-2.5 0,-5 0,-7.5 z"
     id="path65"
     inkscape:connector-curvature="0"
     style="fill:#4e7fb9" /><path
     d="m 657.9,548.8 c 0,2 0,4 0.1,6 0.1,1.8 -0.3,2.9 -2.4,2.8 -1.9,0 -2.7,-0.7 -2.6,-2.6 0.1,-5 0.1,-10 0,-14.9 -0.1,-2.3 1.2,-2.9 3,-3 2.6,-0.1 3.3,2.2 2.8,3.6 -0.7,2.1 -0.6,4.2 -0.8,6.3 0,0.7 0,1.3 -0.1,1.8 z"
     id="path67"
     inkscape:connector-curvature="0"
     style="fill:#4e7fb9" /><path
     d="m 658,757.5 c 0,2.5 -0.1,5 0,7.4 0.1,1.8 -0.6,2.7 -2.5,2.7 -1.9,0 -2.6,-0.9 -2.5,-2.7 0.1,-4.9 0.1,-9.9 0,-14.8 0,-1.8 0.5,-2.7 2.5,-2.7 2,0 2.6,0.9 2.5,2.7 0,2.5 0,4.9 0,7.4 z"
     id="path69"
     inkscape:connector-curvature="0"
     style="fill:#4c7eb9" /><path
     d="m 658,337.4 c 0,2.5 0,5 0,7.4 0,1.7 -0.3,2.8 -2.4,2.9 -1.9,0 -2.7,-0.7 -2.7,-2.6 0.1,-5.1 0.1,-10.2 0,-15.3 0,-1.7 0.7,-2.3 2.4,-2.4 1.8,0 2.7,0.6 2.7,2.6 -0.1,2.4 0,4.9 0,7.4 z"
     id="path71"
     inkscape:connector-curvature="0"
     style="fill:#4c7eb9" /><path
     d="m 653,722.4 c 0,-2.5 0.1,-5 0,-7.4 -0.1,-1.9 0.7,-2.6 2.6,-2.6 2.1,0 2.4,1.1 2.4,2.8 0,4.9 -0.1,9.9 0,14.8 0,1.9 -0.7,2.6 -2.6,2.6 -2,0 -2.5,-1 -2.4,-2.8 0,-2.4 0,-4.9 0,-7.4 z"
     id="path73"
     inkscape:connector-curvature="0"
     style="fill:#4c7eb9" /><path
     d="m 653,407.2 c 0,-2.3 0,-4.6 0,-6.9 0,-1.7 0.2,-2.9 2.3,-2.9 1.8,0 2.7,0.6 2.7,2.6 -0.1,5.1 0,10.2 0,15.4 0,1.6 -0.6,2.4 -2.3,2.4 -1.8,0 -2.8,-0.6 -2.7,-2.6 0.1,-2.8 0,-5.4 0,-8 z"
     id="path75"
     inkscape:connector-curvature="0"
     style="fill:#4c7eb9" /><path
     d="m 653,442.3 c 0,-2.5 0.1,-5 0,-7.4 -0.1,-2 0.9,-2.6 2.7,-2.5 1.7,0 2.3,0.8 2.3,2.4 0,5.1 -0.1,10.2 0,15.4 0,2 -0.9,2.5 -2.7,2.5 -1.7,0 -2.4,-0.7 -2.3,-2.4 0,-2.7 0,-5.4 0,-8 z"
     id="path77"
     inkscape:connector-curvature="0"
     style="fill:#4e7fb9" /><path
     d="m 658,687.4 c 0,2.5 -0.1,5 0,7.5 0.1,1.8 -0.5,2.8 -2.5,2.8 -2,0 -2.6,-1 -2.5,-2.8 0.1,-5 0.1,-10 0,-15 0,-2 1,-2.5 2.8,-2.5 1.8,0 2.3,0.9 2.3,2.5 -0.1,2.5 -0.1,5 -0.1,7.5 z"
     id="path79"
     inkscape:connector-curvature="0"
     style="fill:#4c7eb9" /><path
     d="m 658,477.9 c 0,2.3 -0.1,4.6 0,6.9 0.1,1.7 -0.4,2.8 -2.4,2.8 -1.9,0 -2.7,-0.7 -2.7,-2.6 0.1,-4.9 0.1,-9.9 0,-14.8 0,-1.7 0.3,-2.8 2.4,-2.9 2.4,-0.1 2.7,1.2 2.6,3.1 0.1,2.5 0.1,5 0.1,7.5 z"
     id="path81"
     inkscape:connector-curvature="0"
     style="fill:#4c7eb9" /><path
     d="m 658,512.7 c 0,2.5 0,5 0,7.5 0,1.6 -0.5,2.5 -2.3,2.5 -1.8,0 -2.8,-0.5 -2.8,-2.5 0.1,-5.2 0.1,-10.3 0,-15.5 0,-1.8 1,-2.3 2.5,-2.2 1.5,0 2.5,0.5 2.5,2.3 0,2.5 0.1,5.2 0.1,7.9 z"
     id="path83"
     inkscape:connector-curvature="0"
     style="fill:#4c7eb9" /><path
     d="m 658,582.7 c 0,2.5 -0.1,5 0,7.4 0.1,2 -1,2.5 -2.8,2.5 -1.7,0 -2.3,-0.8 -2.3,-2.4 0,-5.1 0.1,-10.2 0,-15.4 0,-2 1,-2.5 2.8,-2.5 1.7,0 2.3,0.8 2.3,2.5 0,2.6 0,5.3 0,7.9 z"
     id="path85"
     inkscape:connector-curvature="0"
     style="fill:#4e7fb9" /><path
     d="m 658,617.9 c 0,2.5 0,5 0,7.4 0,1.8 -0.9,2.3 -2.5,2.3 -1.5,0 -2.6,-0.3 -2.6,-2.2 0,-5.3 0,-10.6 0,-15.9 0,-1.8 0.9,-2.2 2.5,-2.3 2,-0.1 2.6,0.8 2.6,2.7 0,2.8 0,5.4 0,8 z"
     id="path87"
     inkscape:connector-curvature="0"
     style="fill:#4e7fb9" /><path
     d="m 658,652.4 c 0,2.3 0,4.6 0,6.9 0,1.7 0.1,3.3 -2.4,3.3 -2.3,0 -2.7,-1.2 -2.7,-3.1 0.1,-4.6 0,-9.2 0,-13.9 0,-1.7 -0.1,-3.3 2.4,-3.4 2.8,-0.1 2.7,1.8 2.7,3.6 0,2.3 0,4.4 0,6.6 z"
     id="path89"
     inkscape:connector-curvature="0"
     style="fill:#4e7fb9" /><path
     d="m 653,267.1 c 0,-2.5 0,-5 0,-7.4 0,-1.8 0.9,-2.3 2.5,-2.3 1.5,0 2.6,0.4 2.6,2.2 0,5.3 0,10.6 0,15.9 0,1.8 -0.9,2.3 -2.5,2.3 -1.5,0 -2.6,-0.3 -2.6,-2.2 0,-2.9 0,-5.7 0,-8.5 z"
     id="path91"
     inkscape:connector-curvature="0"
     style="fill:#4e7fb9" /><path
     d="m 658,57.6 c 0,2.3 -0.1,4.6 0,6.9 0.1,1.9 -0.3,3.1 -2.6,3.1 -2.1,0 -2.4,-1.1 -2.4,-2.8 0,-5 0.1,-9.9 0,-14.9 0,-1.9 0.7,-2.6 2.6,-2.6 2.1,0 2.5,1.1 2.4,2.8 0,2.6 0,5 0,7.5 z"
     id="path93"
     inkscape:connector-curvature="0"
     style="fill:#4e7fb9" /><path
     d="m 658,92.6 c 0,2.3 -0.1,4.6 0,6.9 0.1,1.9 -0.3,3.2 -2.6,3.1 -2,-0.1 -2.4,-1.1 -2.4,-2.9 0.1,-5 0.1,-9.9 0,-14.9 0,-1.9 0.7,-2.6 2.6,-2.6 2.1,0 2.5,1.1 2.4,2.8 0,2.6 0,5.1 0,7.6 z"
     id="path95"
     inkscape:connector-curvature="0"
     style="fill:#4e7fb9" /><path
     d="m 658,127.7 c 0,2.5 -0.1,5 0,7.4 0.1,2 -0.9,2.6 -2.7,2.5 -1.7,-0.1 -2.3,-0.8 -2.3,-2.4 0,-5.1 0.1,-10.3 0,-15.4 0,-2 0.8,-2.6 2.7,-2.5 1.7,0 2.4,0.8 2.3,2.4 0,2.7 0,5.4 0,8 z"
     id="path97"
     inkscape:connector-curvature="0"
     style="fill:#4e7fb9" /><path
     d="m 658,197.6 c 0,2.5 0,5 0,7.4 0,1.9 -0.7,2.6 -2.6,2.6 -2.1,0 -2.5,-1 -2.4,-2.8 0,-5 0.1,-9.9 0,-14.9 0,-1.9 0.7,-2.7 2.6,-2.7 2,0 2.5,1.1 2.5,2.8 -0.2,2.6 -0.1,5.1 -0.1,7.6 z"
     id="path99"
     inkscape:connector-curvature="0"
     style="fill:#4e7fb9" /><path
     d="m 658,232.8 c 0,2.3 0,4.6 0,7 0,1.7 -0.3,2.9 -2.4,2.9 -1.8,0 -2.7,-0.6 -2.7,-2.6 0.1,-5.1 0.1,-10.3 0,-15.4 0,-1.7 0.7,-2.4 2.4,-2.4 1.9,-0.1 2.8,0.6 2.7,2.6 -0.1,2.6 0,5.3 0,7.9 0,0 0,0 0,0 z"
     id="path101"
     inkscape:connector-curvature="0"
     style="fill:#5081bb" /><path
     d="m 602.9,339.9 c -0.4,1.3 -0.4,2.8 -1.9,3.6 -0.8,0.2 -1.1,0.8 -1,1.6 l 0.1,0 c -1.1,-0.6 -2.3,-1.3 -3.4,-1.9 -1.8,-0.9 -1.1,-2.1 -0.4,-3.2 0.7,-1.1 1.3,-2.4 3,-1.2 1.1,0.6 2.1,1.6 3.6,1.1 z"
     id="path103"
     inkscape:connector-curvature="0"
     style="fill:#5d8bc0" /><path
     d="m 706.7,320.9 c -0.9,1.1 -0.2,3.5 -2.3,3.3 -1.4,-0.1 -3.8,0 -3.5,-2.4 0.1,-1.3 0.3,-3.3 2.4,-3.1 1.3,0.1 3.2,0.1 3.4,2.2 z"
     id="path105"
     inkscape:connector-curvature="0"
     style="fill:#5887be" /><path
     d="m 682.8,139.7 c 2.6,-0.4 2.5,1.5 2.9,2.7 0.7,2.2 -1.3,2.2 -2.6,2.6 -2.7,0.9 -2.5,-1.6 -2.9,-2.9 -0.5,-2 1.9,-1.6 2.6,-2.4 z"
     id="path107"
     inkscape:connector-curvature="0"
     style="fill:#5887be" /><path
     d="m 580.7,275.7 c 1.2,0.6 3.4,0.3 3.1,2.4 -0.2,1.3 -0.1,3.7 -2.7,3.1 -1.3,-0.3 -3.4,-0.3 -2.8,-2.5 0.3,-1.1 0.2,-3.1 2.4,-3 z"
     id="path109"
     inkscape:connector-curvature="0"
     style="fill:#5887be" /><path
     d="m 653.7,532 c -0.4,1.7 -2,2.4 -3.2,2.6 -1.8,0.3 -2.6,-1.6 -2.8,-2.9 -0.2,-2.1 1.8,-2.8 3.3,-2.9 1.7,-0.1 2,1.9 2.7,3.2 z"
     id="path111"
     inkscape:connector-curvature="0"
     style="fill:#5d8bc0" /><path
     d="m 640.9,371.8 c -1.1,-1.3 -3.7,-1.2 -3.1,-3.4 0.3,-1.2 1,-3.3 2.7,-2.9 1.3,0.3 3.6,0.7 3,3 -0.4,1.4 -1.2,2.7 -2.6,3.3 z"
     id="path113"
     inkscape:connector-curvature="0"
     style="fill:#5d8bc0" /><path
     d="m 592.6,178.9 c -0.4,1.7 -2,2 -3.4,2.1 -2,0.1 -2.3,-1.8 -2.4,-3.1 -0.2,-2.4 2.3,-2.3 3.5,-2.4 1.8,-0.1 1.6,2.1 2.3,3.4 z"
     id="path115"
     inkscape:connector-curvature="0"
     style="fill:#5a88bf" /><path
     d="m 571.3,182.5 c 2.2,0.2 2.3,2.1 2.4,3.3 0.3,2 -1.7,2.2 -3.1,2.4 -2.5,0.4 -2.5,-2 -2.5,-3.3 -0.1,-2 2.2,-1.6 3.2,-2.4 z"
     id="path117"
     inkscape:connector-curvature="0"
     style="fill:#5d8bc0" /><path
     d="m 620.5,481.5 c -0.2,2.1 -1.8,2.7 -3,3 -1.9,0.5 -2.5,-1.5 -2.9,-2.7 -0.6,-2.1 1.6,-2.8 3,-3 1.9,-0.4 1.8,2.1 2.9,2.7 z"
     id="path119"
     inkscape:connector-curvature="0"
     style="fill:#5887be" /><path
     d="m 631.6,498.7 c -0.5,1.6 -2,2.6 -3.3,2.6 -1.8,0 -2.8,-2 -2.8,-3.5 0.1,-1.5 2,-2.3 3.4,-2.3 1.8,0 2,2 2.7,3.2 z"
     id="path121"
     inkscape:connector-curvature="0"
     style="fill:#5d8bc0" /><path
     d="m 561.6,191.8 c -2.2,0.2 -2.3,-1.5 -2.7,-2.9 -0.7,-2.3 1.4,-2.3 2.6,-2.7 2.6,-0.8 2.5,1.6 2.9,3 0.6,2.4 -1.9,1.8 -2.8,2.6 z"
     id="path123"
     inkscape:connector-curvature="0"
     style="fill:#5a88bf" /><path
     d="m 647.3,304.4 c -1.2,-0.7 -3.5,-0.3 -3,-2.5 0.3,-1.2 0.1,-3.8 2.8,-3 1.3,0.4 3.3,0.5 2.7,2.7 -0.3,1.2 -0.3,3.1 -2.5,2.8 z"
     id="path125"
     inkscape:connector-curvature="0"
     style="fill:#5a88bf" /><path
     d="m 699.5,409.6 c -1.1,-0.9 -3.3,-1 -3,-2.8 0.2,-1.3 0.7,-3.6 2.9,-3.2 1.3,0.3 3.2,1 2.9,2.8 -0.3,1.3 -1,2.9 -2.8,3.2 z"
     id="path127"
     inkscape:connector-curvature="0"
     style="fill:#5d8bc0" /><path
     d="m 657.9,548.8 c 0,-0.6 0,-1.2 0,-1.8 0.2,0 0.3,0.1 0.5,0.1 1.8,0.1 3.3,-3.7 5.3,-0.3 0.8,1.4 1.3,2.2 -0.3,3.7 -3,2.7 -3.5,-1.5 -5.5,-1.7 z"
     id="path129"
     inkscape:connector-curvature="0"
     style="fill:#5a88bf" /><path
     d="m 562.1,401.5 c -1.8,-0.2 -2.4,-1.8 -2.7,-3 -0.5,-1.9 1.5,-2.5 2.7,-2.8 2.1,-0.5 2.8,1.7 3,3 0.3,1.7 -1.8,1.9 -3,2.8 z"
     id="path131"
     inkscape:connector-curvature="0"
     style="fill:#5a88bf" /><path
     d="m 681.4,573.8 c -0.7,1.5 -2,2.6 -3.4,2.6 -1.9,-0.1 -2.8,-2.1 -2.6,-3.6 0.1,-1.4 2,-2.4 3.4,-2.3 1.5,0.1 2,1.9 2.6,3.3 z"
     id="path133"
     inkscape:connector-curvature="0"
     style="fill:#5d8bc0" /><path
     d="m 676.5,146.2 c 0,2.3 -1.9,2.4 -3.1,2.6 -2.1,0.5 -2.2,-1.6 -2.5,-2.9 -0.6,-2.6 1.9,-2.5 3.2,-2.7 2.1,-0.3 1.6,2.1 2.4,3 z"
     id="path135"
     inkscape:connector-curvature="0"
     style="fill:#5a88bf" /><path
     d="m 682.6,392.7 c 1.1,0.9 3.2,1.1 2.9,2.9 -0.2,1.2 -1,3.3 -2.7,3 -1.3,-0.2 -3.7,-0.7 -3.1,-2.9 0.4,-1.3 0.9,-3 2.9,-3 z"
     id="path137"
     inkscape:connector-curvature="0"
     style="fill:#5a88bf" /><path
     d="m 537.7,357 c -0.5,1.7 -2,2.5 -3.3,2.7 -1.8,0.3 -2.6,-1.7 -2.8,-2.9 -0.3,-2 1.8,-2.8 3.3,-2.9 1.7,-0.1 2,1.9 2.8,3.1 z"
     id="path139"
     inkscape:connector-curvature="0"
     style="fill:#5d8bc0" /><path
     d="m 517.9,255 c -0.9,1 -0.2,3.3 -2.3,3.2 -1.4,-0.1 -3.7,-0.1 -3.4,-2.5 0.2,-1.2 0.2,-3.3 2.4,-3 1.3,0.2 3,0.2 3.3,2.3 z"
     id="path141"
     inkscape:connector-curvature="0"
     style="fill:#5887be" /><path
     d="m 624.1,360.8 c -1.2,-0.8 -3.1,-1.1 -3,-2.9 0.1,-1.4 0.8,-3.4 2.4,-3.2 1.3,0.1 3.5,0.9 3.3,2.9 -0.2,1.3 -1.1,2.8 -2.7,3.2 z"
     id="path143"
     inkscape:connector-curvature="0"
     style="fill:#5a88bf" /><path
     d="m 579.2,420.3 c 1.6,0.5 2.4,1.9 2.5,3.2 0.2,1.8 -1.7,2.6 -3,2.6 -1.9,0.1 -3,-1.6 -2.9,-3.3 0.1,-1.4 2,-1.8 3.4,-2.5 z"
     id="path145"
     inkscape:connector-curvature="0"
     style="fill:#5a88bf" /><path
     d="m 578.9,330.5 c 0.8,-1.2 1,-3.3 2.7,-3 1.3,0.2 3.6,0.9 3.1,3.1 -0.3,1.2 -1,3.1 -2.8,2.8 -1.4,-0.3 -2.8,-1.1 -3,-2.9 z"
     id="path147"
     inkscape:connector-curvature="0"
     style="fill:#5a88bf" /><path
     d="m 595.2,445.3 c 2,0.3 2.7,1.8 3,3.1 0.5,1.9 -1.5,2.5 -2.7,2.8 -2.1,0.5 -2.8,-1.7 -3,-3 -0.4,-1.9 2.1,-1.7 2.7,-2.9 z"
     id="path149"
     inkscape:connector-curvature="0"
     style="fill:#5887be" /><path
     d="m 684.5,312 c 1.1,0.6 3.3,0.3 3.1,2.2 -0.1,1.2 -0.1,3.4 -2,3.3 -1.4,0 -3.6,0 -3.5,-2.4 0.1,-1.2 0.4,-3 2.4,-3.1 z"
     id="path151"
     inkscape:connector-curvature="0"
     style="fill:#5887be" /><path
     d="m 666.2,311 c -1.1,-0.6 -3.3,-0.3 -3,-2.4 0.1,-1.3 0.2,-3.4 2.2,-3.2 1.3,0.1 3.7,0.2 3.4,2.6 -0.2,1.3 -0.4,3 -2.6,3 z"
     id="path153"
     inkscape:connector-curvature="0"
     style="fill:#5d8bc0" /><path
     d="m 640.5,298 c -0.6,1.4 -0.6,3.4 -2.8,3 -1.4,-0.3 -3.3,-0.4 -2.7,-2.6 0.3,-1.3 0.3,-3.4 2.6,-2.7 1.2,0.4 3.3,0.1 2.9,2.3 z"
     id="path155"
     inkscape:connector-curvature="0"
     style="fill:#5a88bf" /><path
     d="m 628.5,297.9 c -1.1,-0.8 -3.4,-0.4 -3.1,-2.4 0.2,-1.3 0.2,-3.7 2.7,-3.2 1.3,0.3 3.2,0.4 2.8,2.6 -0.2,1.2 -0.3,3 -2.4,3 z"
     id="path157"
     inkscape:connector-curvature="0"
     style="fill:#5a88bf" /><path
     d="m 664.5,146.9 c 2.2,-0.1 2.4,1.6 2.5,3 0.2,2.1 -1.7,2.3 -3,2.5 -2.2,0.3 -2.1,-1.9 -2.4,-3.1 -0.5,-2.1 1.7,-1.8 2.9,-2.4 z"
     id="path159"
     inkscape:connector-curvature="0"
     style="fill:#5a88bf" /><path
     d="m 590.2,279 c 1.1,0.8 3.3,0.3 3,2.5 -0.2,1.3 -0.2,3.4 -2.2,3.2 -1.2,-0.1 -3.7,0.1 -3.2,-2.5 0.2,-1.5 0.4,-3.1 2.4,-3.2 z"
     id="path161"
     inkscape:connector-curvature="0"
     style="fill:#5887be" /><path
     d="m 692.3,136.1 c 2.2,-0.2 2.4,1.5 2.7,2.8 0.7,2.6 -1.8,2.5 -3.1,2.8 -2.1,0.5 -2.1,-1.7 -2.4,-3 -0.5,-2.3 2,-1.7 2.8,-2.6 z"
     id="path163"
     inkscape:connector-curvature="0"
     style="fill:#5d8bc0" /><path
     d="m 702.1,138 c -2.5,0.4 -2.8,-1.2 -3.1,-2.6 -0.5,-2.1 1.3,-2.4 2.6,-2.8 2.6,-0.8 2.5,1.7 2.8,3 0.7,2.3 -1.8,1.5 -2.3,2.4 z"
     id="path165"
     inkscape:connector-curvature="0"
     style="fill:#5d8bc0" /><path
     d="m 601.9,175 c 0,2.2 -2,2.2 -3.2,2.5 -2.2,0.4 -2.2,-1.8 -2.4,-3 -0.3,-2.1 1.7,-2.3 3,-2.4 2.1,-0.4 1.9,1.7 2.6,2.9 z"
     id="path167"
     inkscape:connector-curvature="0"
     style="fill:#5887be" /><path
     d="m 617.7,164.8 c 2.2,-0.2 2.5,1.5 2.7,2.9 0.4,2.1 -1.6,2.3 -2.9,2.6 -2.2,0.5 -2.2,-1.5 -2.5,-2.8 -0.5,-2.2 1.5,-2.1 2.7,-2.7 z"
     id="path169"
     inkscape:connector-curvature="0"
     style="fill:#5d8bc0" /><path
     d="m 636.5,163 c -2.2,0.4 -2.6,-1.3 -2.9,-2.7 -0.6,-2.3 1.5,-2.2 2.8,-2.7 2.4,-0.8 2.2,1.4 2.6,2.6 0.6,2.2 -1.2,2.4 -2.5,2.8 z"
     id="path171"
     inkscape:connector-curvature="0"
     style="fill:#5887be" /><path
     d="m 645.5,159.7 c -2.2,0.1 -2.2,-1.7 -2.4,-3 -0.4,-2.1 1.5,-2.4 2.9,-2.6 2.1,-0.3 2.3,1.7 2.6,3 0.3,2.2 -2.1,1.7 -3.1,2.6 z"
     id="path173"
     inkscape:connector-curvature="0"
     style="fill:#5887be" /><path
     d="m 703.3,607 c -0.4,1.6 -1.8,2.4 -3.1,2.6 -1.8,0.2 -2.5,-1.8 -2.7,-2.9 -0.2,-1.9 1.8,-2.8 3.2,-2.9 1.7,-0.1 2,1.8 2.6,3.2 z"
     id="path175"
     inkscape:connector-curvature="0"
     style="fill:#5887be" /><path
     d="m 551.8,195.5 c -2.1,0 -2,-1.9 -2.3,-3.1 -0.5,-2.1 1.5,-2.1 2.8,-2.4 2.1,-0.6 2.4,1.2 2.7,2.6 0.4,2.4 -1.9,2.1 -3.2,2.9 z"
     id="path177"
     inkscape:connector-curvature="0"
     style="fill:#5d8bc0" /><path
     d="m 653.1,373.2 c 0,0.2 0,0.5 0,0.7 -2.1,0.4 -2.8,5.1 -6.1,1.9 -1.4,-1.3 -0.7,-2.3 0.1,-3.3 2.4,-3.7 3.9,0.9 6,0.7 z"
     id="path179"
     inkscape:connector-curvature="0"
     style="fill:#5887be" /><path
     d="m 545.8,196.4 c 0.1,2.2 -1.8,2.2 -3,2.5 -2.1,0.5 -2.3,-1.6 -2.6,-2.8 -0.6,-2.5 1.9,-2.5 3.2,-2.7 2,-0.4 1.6,1.9 2.4,3 z"
     id="path181"
     inkscape:connector-curvature="0"
     style="fill:#5a88bf" /><path
     d="m 534.1,264.9 c -1.1,-0.6 -3.2,-0.4 -3,-2.4 0.1,-1.3 0.2,-3.4 2.1,-3.2 1.3,0.1 3.7,0.1 3.4,2.5 -0.2,1.2 -0.3,3.1 -2.5,3.1 z"
     id="path183"
     inkscape:connector-curvature="0"
     style="fill:#5a88bf" /><path
     d="m 618.6,351.7 c -0.7,1.5 -1,3.3 -2.8,3.3 -1.4,0 -3.3,-0.8 -3.2,-2.5 0,-1.2 0.9,-3.2 2.6,-3.2 1.3,0 2.5,1.2 3.4,2.4 z"
     id="path185"
     inkscape:connector-curvature="0"
     style="fill:#5887be" /><path
     d="m 546,265.1 c -0.5,1.2 -0.4,3.2 -2.5,2.9 -1.3,-0.1 -3.4,-0.2 -3,-2.3 0.2,-1.2 0.1,-3.5 2.3,-3.2 1.3,0.2 3.2,0.3 3.2,2.6 z"
     id="path187"
     inkscape:connector-curvature="0"
     style="fill:#5a88bf" /><path
     d="m 555.7,268.3 c -1,1.3 -0.4,3.7 -2.7,3.2 -1.3,-0.3 -3.3,-0.4 -3,-2.6 0.2,-1.4 0.5,-3.2 2.6,-2.9 1.4,0.2 2.9,0.6 3.1,2.3 z"
     id="path189"
     inkscape:connector-curvature="0"
     style="fill:#5d8bc0" /><path
     d="m 565,271.7 c -0.7,1.2 -0.3,3.5 -2.6,3 -1.2,-0.3 -3.5,-0.2 -3,-2.4 0.2,-1.3 0.3,-3.4 2.5,-3 1.3,0.1 3,0.4 3.1,2.4 z"
     id="path191"
     inkscape:connector-curvature="0"
     style="fill:#5a88bf" /><path
     d="m 603.9,348.8 c 0.2,-2 0.6,-3.8 2.5,-5 1.6,0.7 4.1,0.7 3.3,3.6 -1.1,3.8 -3.7,1.5 -5.8,1.4 z"
     id="path193"
     inkscape:connector-curvature="0"
     style="fill:#5a88bf" /><path
     d="m 524.9,200.4 c 1.8,0.4 2.1,2 2.1,3.4 0,2 -1.9,2.3 -3.3,2.3 -1.9,0 -2.3,-2.1 -2.3,-3.4 -0.1,-2 2.2,-1.6 3.5,-2.3 z"
     id="path195"
     inkscape:connector-curvature="0"
     style="fill:#5d8bc0" /><path
     d="m 517.7,206.9 c 0.4,2.3 -1.5,2.3 -2.8,2.6 -2.5,0.7 -2.5,-1.7 -2.8,-3 -0.4,-2.1 1.6,-2.1 2.9,-2.4 2.2,-0.4 2,1.8 2.7,2.8 z"
     id="path197"
     inkscape:connector-curvature="0"
     style="fill:#5d8bc0" /><path
     d="m 599.7,282.3 c 1.1,0.8 3.4,0.3 3,2.5 -0.3,1.3 -0.4,3.4 -2.5,3 -1.3,-0.2 -3.4,-0.3 -3,-2.5 0.2,-1.2 0.3,-3.1 2.5,-3 z"
     id="path199"
     inkscape:connector-curvature="0"
     style="fill:#5d8bc0" /><path
     d="m 568,319.4 c -0.6,1.3 -1,3.3 -2.6,3.2 -1.3,0 -3.1,-0.9 -3.2,-2.6 -0.1,-1.5 0.9,-3.1 2.5,-3.2 1.4,0 2.9,0.8 3.3,2.6 z"
     id="path201"
     inkscape:connector-curvature="0"
     style="fill:#5d8bc0" /><path
     d="m 621.5,291.7 c -0.7,1.1 -0.3,3.4 -2.6,2.8 -1.5,-0.4 -3.5,-0.6 -2.8,-3 0.4,-1.4 0.8,-3 2.9,-2.3 1.3,0.3 3.2,0.3 2.5,2.5 z"
     id="path203"
     inkscape:connector-curvature="0"
     style="fill:#5a88bf" /><path
     d="m 580.1,184.8 c -2.3,-0.2 -2.4,-2.1 -2.6,-3.3 -0.3,-2.1 1.8,-2.2 3,-2.4 2,-0.2 2.3,1.7 2.4,3.1 0.3,2.1 -2,1.7 -2.8,2.6 z"
     id="path205"
     inkscape:connector-curvature="0"
     style="fill:#5d8bc0" /><path
     d="m 589.5,437.1 c 2.1,0.1 2.8,1.7 3.1,2.9 0.5,1.9 -1.5,2.5 -2.8,2.8 -1.9,0.5 -2.5,-1.4 -2.9,-2.7 -0.4,-2 2,-1.9 2.6,-3 z"
     id="path207"
     inkscape:connector-curvature="0"
     style="fill:#5887be" /><path
     d="m 526,292.5 c -0.8,1.1 -1.1,3.1 -3,2.7 -1.2,-0.3 -3.3,-0.8 -2.7,-2.8 0.3,-1.2 0.9,-3.1 2.8,-2.8 1.3,0.2 2.8,1 2.9,2.9 z"
     id="path209"
     inkscape:connector-curvature="0"
     style="fill:#5887be" /><path
     d="m 609.3,465.1 c -0.2,1.8 -1.6,2.6 -3,2.7 -1.8,0.2 -2.6,-1.6 -2.8,-2.9 -0.2,-1.7 1.7,-2.4 2.9,-2.7 2,-0.3 2.1,1.7 2.9,2.9 z"
     id="path211"
     inkscape:connector-curvature="0"
     style="fill:#5a88bf" /><path
     d="m 697,318.2 c -0.4,1.1 -0.4,3.1 -2.6,2.6 -1.2,-0.3 -3.4,-0.2 -2.8,-2.6 0.4,-1.2 0.2,-3.5 2.5,-2.9 1.3,0.4 3.2,0.5 2.9,2.9 z"
     id="path213"
     inkscape:connector-curvature="0"
     style="fill:#5d8bc0" /><path
     d="m 611.8,476.4 c -1.7,-0.7 -2.8,-1.9 -2.6,-3.4 0.2,-1.6 1.9,-2.7 3.2,-2.6 1.5,0.1 2.5,1.9 2.5,3.3 -0.1,1.8 -2.1,1.8 -3.1,2.7 z"
     id="path215"
     inkscape:connector-curvature="0"
     style="fill:#5887be" /><path
     d="m 626,490.2 c -0.5,1.7 -1.9,2.6 -3.2,2.6 -1.6,0.1 -2.5,-1.7 -2.6,-3 -0.1,-1.7 1.7,-2.5 3,-2.6 1.8,-0.1 2,1.8 2.8,3 z"
     id="path217"
     inkscape:connector-curvature="0"
     style="fill:#5182bb" /><path
     d="m 642.8,515.3 c -0.6,1.5 -1.9,2.5 -3.3,2.6 -1.8,0.1 -2.6,-1.7 -2.6,-3.1 0,-1.6 1.6,-2.7 3.1,-2.6 1.6,0 2,1.9 2.8,3.1 z"
     id="path219"
     inkscape:connector-curvature="0"
     style="fill:#5d8bc0" /><path
     d="m 629.8,163.8 c 0.2,2.4 -1.7,2.5 -2.9,2.9 -2.2,0.6 -2.3,-1.5 -2.6,-2.7 -0.7,-2.5 1.7,-2.5 3,-2.8 2.2,-0.6 1.5,2.1 2.5,2.6 z"
     id="path221"
     inkscape:connector-curvature="0"
     style="fill:#5d8bc0" /><path
     d="m 536.5,200 c -0.1,2.3 -2,2.2 -3.2,2.4 -2.1,0.3 -2.1,-1.7 -2.3,-3 -0.2,-2 1.7,-2.3 3,-2.4 2.1,-0.2 1.7,2 2.5,3 z"
     id="path223"
     inkscape:connector-curvature="0"
     style="fill:#5887be" /><path
     d="m 675.9,565.2 c -0.4,1.7 -2,2.5 -3.3,2.6 -1.8,0.2 -2.6,-1.6 -2.7,-3 -0.1,-1.7 1.7,-2.6 3.1,-2.7 1.8,0 2.1,1.9 2.9,3.1 z"
     id="path225"
     inkscape:connector-curvature="0"
     style="fill:#5a88bf" /><path
     d="m 520.9,331.8 c -0.2,1.8 -1.7,2.6 -3,2.9 -1.8,0.4 -2.5,-1.6 -2.8,-2.8 -0.4,-1.9 1.4,-2.5 2.8,-2.8 2,-0.5 2.2,1.5 3,2.7 z"
     id="path227"
     inkscape:connector-curvature="0"
     style="fill:#5a88bf" /><path
     d="m 590.3,338.9 c -1.2,-0.8 -3.1,-1.1 -3,-2.8 0.1,-1.3 0.9,-3.2 2.7,-3 1.4,0.1 3.2,0.9 2.9,2.7 0,1.3 -0.7,2.8 -2.6,3.1 z"
     id="path229"
     inkscape:connector-curvature="0"
     style="fill:#5a88bf" /><path
     d="m 517.7,286.8 c -0.8,1.3 -1.1,3.1 -2.9,3 -1.4,-0.1 -3.1,-1 -2.9,-2.7 0.1,-1.4 0.8,-3.1 2.6,-3 1.5,0.2 2.8,1.1 3.2,2.7 z"
     id="path231"
     inkscape:connector-curvature="0"
     style="fill:#5a88bf" /><path
     d="m 686.9,582 c -0.6,1.6 -2,2.6 -3.3,2.7 -1.7,0.1 -2.4,-1.8 -2.5,-3.1 -0.1,-1.7 1.6,-2.6 3,-2.6 1.7,-0.1 2.2,1.7 2.8,3 z"
     id="path233"
     inkscape:connector-curvature="0"
     style="fill:#5887be" /><path
     d="m 689.5,587.1 c 1.7,0.4 2.6,1.8 2.6,3.2 0,1.6 -1.6,2.6 -3.1,2.6 -1.7,0 -2.6,-1.8 -2.7,-3.1 0.1,-1.6 1.9,-2.1 3.2,-2.7 z"
     id="path235"
     inkscape:connector-curvature="0"
     style="fill:#5887be" /><path
     d="m 697.9,598.3 c -0.1,1.9 -1.6,2.5 -3,2.8 -1.8,0.3 -2.6,-1.4 -2.8,-2.8 -0.2,-1.8 1.6,-2.6 2.9,-2.8 1.7,-0.3 2,1.7 2.9,2.8 z"
     id="path237"
     inkscape:connector-curvature="0"
     style="fill:#5887be" /><path
     d="m 527,259.1 c -0.5,1 -0.3,3.1 -2.6,2.3 -1.2,-0.4 -3.3,-0.2 -2.6,-2.6 0.4,-1.4 0.5,-3.2 2.7,-2.7 1.3,0.3 2.9,0.7 2.5,3 z"
     id="path239"
     inkscape:connector-curvature="0"
     style="fill:#5182bb" /><path
     d="m 571,272.3 c 1.3,0.9 3.6,0.3 3.3,2.5 -0.2,1.3 -0.2,3.3 -2.3,3.1 -1.4,-0.1 -3.1,-0.3 -3,-2.4 0,-1.4 0.5,-2.8 2,-3.2 z"
     id="path241"
     inkscape:connector-curvature="0"
     style="fill:#5887be" /><path
     d="m 559.8,389.9 c -0.3,2.1 -1.8,2.7 -3.1,3 -1.9,0.4 -2.6,-1.5 -2.8,-2.8 -0.3,-1.8 1.5,-2.5 2.8,-2.8 2,-0.4 1.9,1.9 3.1,2.6 z"
     id="path243"
     inkscape:connector-curvature="0"
     style="fill:#5a88bf" /><path
     d="m 668.9,384.7 c -1,1.3 -1.3,3.3 -3.1,3 -1.3,-0.3 -3.1,-0.9 -2.8,-2.8 0.2,-1.3 0.9,-3.1 2.8,-2.7 1.4,0.2 2.8,0.9 3.1,2.5 z"
     id="path245"
     inkscape:connector-curvature="0"
     style="fill:#5887be" /><path
     d="m 632.3,360.1 c 1.1,0.9 3.2,1.1 2.7,3 -0.3,1.3 -0.9,3.2 -2.9,2.7 -1.2,-0.3 -3.2,-0.9 -2.7,-2.8 0.3,-1.3 0.9,-2.9 2.9,-2.9 z"
     id="path247"
     inkscape:connector-curvature="0"
     style="fill:#5a88bf" /><path
     d="m 534.3,298 c -0.8,1.1 -0.9,3.3 -2.9,2.7 -1.2,-0.3 -3.2,-0.9 -2.7,-2.7 0.3,-1.3 0.9,-3.2 2.8,-2.8 1.4,0.2 2.8,0.9 2.8,2.8 z"
     id="path249"
     inkscape:connector-curvature="0"
     style="fill:#5887be" /><path
     d="m 543,303 c -1,1.3 -1.2,3.3 -3.1,3 -1.3,-0.2 -3.2,-0.8 -2.8,-2.7 0.3,-1.3 0.8,-3.2 2.7,-2.8 1.3,0.3 2.7,1.1 3.2,2.5 z"
     id="path251"
     inkscape:connector-curvature="0"
     style="fill:#5887be" /><path
     d="m 540.2,368.1 c -2,-0.4 -2.8,-1.9 -2.9,-3.2 -0.1,-1.7 1.7,-2.6 3,-2.7 1.7,-0.1 2.5,1.7 2.6,3.1 0.2,1.8 -2,1.8 -2.7,2.8 z"
     id="path253"
     inkscape:connector-curvature="0"
     style="fill:#5887be" /><path
     d="m 554,381.9 c -0.4,1.7 -1.8,2.6 -3.1,2.7 -1.7,0.2 -2.5,-1.7 -2.6,-3 -0.2,-1.7 1.7,-2.4 3,-2.6 1.8,-0.2 2.1,1.6 2.7,2.9 z"
     id="path255"
     inkscape:connector-curvature="0"
     style="fill:#5182bb" /><path
     d="m 677.1,390 c -0.5,1.4 -1,3.1 -2.7,3 -1.3,-0.1 -3.2,-0.9 -3.1,-2.6 0.1,-1.3 0.9,-3.1 2.6,-3.1 1.4,0.1 2.7,1.1 3.2,2.7 z"
     id="path257"
     inkscape:connector-curvature="0"
     style="fill:#5a88bf" /><path
     d="m 688,401.1 c 0.9,-1.1 1.1,-3.2 2.9,-2.8 1.3,0.3 3.1,1 2.8,2.8 -0.3,1.3 -0.9,3.2 -2.8,2.7 -1.2,-0.2 -2.9,-0.8 -2.9,-2.7 z"
     id="path259"
     inkscape:connector-curvature="0"
     style="fill:#5887be" /><path
     d="m 573.4,412 c 1.7,0.4 2.6,1.8 2.6,3.2 0,1.7 -1.7,2.6 -3.1,2.6 -1.7,0.1 -2.6,-1.7 -2.6,-3.1 0,-1.5 1.8,-2 3.1,-2.7 z"
     id="path261"
     inkscape:connector-curvature="0"
     style="fill:#5d8bc0" /><path
     d="m 719.1,417.3 c -0.6,1.3 -1,3.1 -2.8,2.8 -1.3,-0.2 -3.3,-0.7 -2.9,-2.6 0.2,-1.3 0.9,-3.2 2.7,-3 1.3,0.2 2.6,1.1 3,2.8 z"
     id="path263"
     inkscape:connector-curvature="0"
     style="fill:#5887be" /><path
     d="m 587.2,431.9 c -0.3,1.7 -1.7,2.6 -3.1,2.7 -1.8,0.2 -2.4,-1.8 -2.7,-3 -0.3,-1.8 1.6,-2.5 2.9,-2.6 1.9,-0.3 2.3,1.6 2.9,2.9 z"
     id="path265"
     inkscape:connector-curvature="0"
     style="fill:#5a88bf" /><path
     d="m 600.8,453.8 c 2,0.4 2.8,1.8 2.9,3.2 0.2,1.8 -1.7,2.6 -3,2.7 -1.6,0.2 -2.5,-1.6 -2.7,-3 -0.2,-2.1 2,-2 2.8,-2.9 z"
     id="path267"
     inkscape:connector-curvature="0"
     style="fill:#5887be" /><path
     d="m 672.5,312.1 c 0.7,-1.7 0.7,-3.5 2.8,-3.2 1.4,0.2 3.1,0.4 2.8,2.5 -0.2,1.3 -0.3,3.1 -2.5,2.8 -1.4,-0.3 -2.8,-0.6 -3.1,-2.1 z"
     id="path269"
     inkscape:connector-curvature="0"
     style="fill:#5d8bc0" /><path
     d="m 634,509.8 c -1.7,-0.3 -2.4,-1.7 -2.7,-3.1 -0.4,-1.9 1.4,-2.5 2.8,-2.8 1.9,-0.3 2.5,1.5 2.8,2.8 0.2,1.9 -1.7,2.2 -2.9,3.1 z"
     id="path271"
     inkscape:connector-curvature="0"
     style="fill:#5887be" /><path
     d="m 576.4,324.8 c -0.6,1.3 -0.9,3.1 -2.7,3.1 -1.5,0 -3.1,-1 -3,-2.6 0.1,-1.3 0.7,-3.2 2.5,-3.1 1.4,0 2.7,1 3.2,2.6 z"
     id="path273"
     inkscape:connector-curvature="0"
     style="fill:#5a88bf" /><path
     d="m 667.1,553.8 c 2.1,0.3 2.9,1.7 2.9,3.1 0.1,1.7 -1.6,2.6 -3,2.7 -1.8,0.2 -2.4,-1.8 -2.6,-3 -0.3,-1.9 1.9,-1.8 2.7,-2.8 z"
     id="path275"
     inkscape:connector-curvature="0"
     style="fill:#5887be" /><path
     d="m 605,171 c 1,-1 2,-2 3,-3 2.4,0 2.8,1.9 2.9,3.6 0.2,2 -1.8,1.8 -3,2.5 -1.5,-0.5 -1.6,-2.4 -2.9,-3.1 z"
     id="path277"
     inkscape:connector-curvature="0"
     style="fill:#4e7fb9" /><path
     d="m 556.9,317.1 c -1.4,-0.5 -3.1,-1 -3,-2.7 0.1,-1.3 0.8,-3.2 2.6,-3.1 1.3,0.1 3.2,0.8 3.2,2.5 -0.1,1.4 -1.1,2.8 -2.8,3.3 z"
     id="path279"
     inkscape:connector-curvature="0"
     style="fill:#5887be" /><path
     d="m 707.7,408.9 c 1.3,0.9 3.3,1.2 2.9,3.1 -0.3,1.3 -1,3.2 -2.8,2.8 -1.2,-0.3 -3.2,-0.9 -2.8,-2.8 0.3,-1.4 1.1,-2.8 2.7,-3.1 z"
     id="path281"
     inkscape:connector-curvature="0"
     style="fill:#5887be" /><path
     d="m 567.7,409.7 c -1.8,-0.1 -2.5,-1.7 -2.7,-3 -0.3,-1.9 1.4,-2.6 2.8,-2.8 1.8,-0.2 2.6,1.5 2.8,2.8 0.3,1.9 -1.8,2.1 -2.9,3 z"
     id="path283"
     inkscape:connector-curvature="0"
     style="fill:#5887be" /><path
     d="m 523.5,337.1 c 1.9,0.2 2.5,1.7 2.8,3.1 0.2,1.6 -1.3,2.3 -2.5,2.6 -2,0.5 -2.6,-1.3 -2.9,-2.7 -0.5,-1.9 1.4,-2.1 2.6,-3 z"
     id="path285"
     inkscape:connector-curvature="0"
     style="fill:#5887be" /><path
     d="m 645.5,526.2 c -2.2,0 -2.9,-1.5 -3.2,-2.8 -0.5,-1.9 1.5,-2.5 2.7,-2.8 1.8,-0.5 2.4,1.4 2.8,2.6 0.7,2.1 -1.6,2 -2.3,3 z"
     id="path287"
     inkscape:connector-curvature="0"
     style="fill:#5887be" /><path
     d="m 551.3,308.4 c -0.8,1.4 -1.1,3.3 -2.8,3.2 -1.2,-0.1 -3.2,-0.9 -3.2,-2.5 0,-1.4 1,-3 2.6,-3.1 1.6,-0.1 2.7,1 3.4,2.4 z"
     id="path289"
     inkscape:connector-curvature="0"
     style="fill:#5887be" /><path
     d="m 532,348.5 c -0.3,1.8 -1.8,2.6 -3.1,2.7 -1.7,0.1 -2.5,-1.7 -2.7,-3 -0.2,-1.8 1.8,-2.5 3.1,-2.6 1.6,-0.3 2,1.7 2.7,2.9 z"
     id="path291"
     inkscape:connector-curvature="0"
     style="fill:#5887be" /><path
     d="m 608.1,291.1 c -2,-1.9 -1.6,-3.7 0.4,-5.3 1.7,0.3 3.9,0 3.5,2.9 -0.3,2.3 -2,2.7 -3.9,2.4 z"
     id="path293"
     inkscape:connector-curvature="0"
     style="fill:#5081bb" /><path
     d="m 606.3,341.4 c 0.2,-0.5 0.3,-0.9 0.5,-1.4 -0.1,0.5 -0.3,0.9 -0.5,1.4 z"
     id="path295"
     inkscape:connector-curvature="0"
     style="fill:#5a88bf" /><path
     d="m 600,345.1 c -0.1,-0.8 0.2,-1.4 1,-1.6 0.1,0.7 0.2,1.6 -1,1.6 z"
     id="path297"
     inkscape:connector-curvature="0"
     style="fill:#fcfcfb" /><path
     d="m 455.9,208 c 12,0 24,0.1 36,-0.1 3,0 4.3,0.4 4.3,3.9 -0.2,13.8 -0.2,27.7 0,41.5 0.1,3.3 -1.1,3.7 -4,3.7 -24.5,-0.1 -49,-0.1 -73.5,0 -3.3,0 -3.8,-1 -3.7,-3.9 0.1,-13.8 0.2,-27.7 0,-41.5 -0.1,-3.3 1.1,-3.8 4,-3.7 12.2,0.2 24.5,0.1 36.9,0.1 z"
     id="path299"
     inkscape:connector-curvature="0"
     style="fill:#fefefe" /><path
     d="m 455.5,328 c -12.3,0 -24.7,-0.1 -37,0.1 -2.8,0 -3.6,-0.7 -3.6,-3.6 0.1,-14 0.1,-28 0,-42 0,-2.8 0.7,-3.6 3.6,-3.6 24.7,0.1 49.3,0.1 74,0 2.8,0 3.6,0.7 3.6,3.6 -0.1,14 -0.1,28 0,42 0,2.8 -0.7,3.6 -3.6,3.6 -12.3,-0.2 -24.7,-0.1 -37,-0.1 z"
     id="path301"
     inkscape:connector-curvature="0"
     style="fill:#fefefe" /><text
     style="font-style:normal;font-variant:normal;font-weight:normal;font-stretch:normal;font-size:23.09250069px;line-height:125%;font-family:Gulim;-inkscape-font-specification:'Gulim, Normal';text-align:start;writing-mode:lr-tb;text-anchor:start"
     id="text305"
     font-size="23.0931"
     x="274.15399"
     y="105.9255"
     sodipodi:linespacing="125%"></text>
<text
     font-size="24"
     id="text307"
     style="font-style:normal;font-variant:normal;font-weight:normal;font-stretch:normal;font-size:24px;line-height:125%;font-family:Gulim;-inkscape-font-specification:'Gulim, Normal';text-align:start;writing-mode:lr-tb;text-anchor:start"
     sodipodi:linespacing="125%"
     x="214"
     y="162"> </text>
<text
     font-size="24"
     id="text309"
     sodipodi:linespacing="125%"
     style="font-style:normal;font-variant:normal;font-weight:normal;font-stretch:normal;font-size:24px;line-height:125%;font-family:Gulim;-inkscape-font-specification:'Gulim, Normal';text-align:start;writing-mode:lr-tb;text-anchor:start"
     x="423"
     y="241"><tspan
   style="font-style:normal;font-variant:normal;font-weight:normal;font-stretch:normal;font-size:24px;line-height:125%;font-family:Gulim;-inkscape-font-specification:'Gulim, Normal';text-align:start;writing-mode:lr-tb;text-anchor:start"
   id="tspan4867"></tspan> 1</text>
<text
     font-size="24"
     id="text311"
     style="font-style:normal;font-variant:normal;font-weight:normal;font-stretch:normal;font-size:24px;line-height:125%;font-family:Gulim;-inkscape-font-specification:'Gulim, Normal';text-align:start;writing-mode:lr-tb;text-anchor:start"
     sodipodi:linespacing="125%"
     x="423"
     y="311"> 2</text>
<text
     font-size="24"
     id="text313"
     style="font-style:normal;font-variant:normal;font-weight:normal;font-stretch:normal;font-size:24px;line-height:125%;font-family:Gulim;-inkscape-font-specification:'Gulim, Normal';text-align:start;writing-mode:lr-tb;text-anchor:start"
     sodipodi:linespacing="125%"
     x="402.97861"
     y="162">  </text>
<text
     transform="matrix(1 0 0 1 238 216)"
     fill="#FFFFFF"
     font-family="'Helvetica'"
     font-size="24"
     id="text315">1</text>
<text
     transform="matrix(1 0 0 1 238 260)"
     fill="#FFFFFF"
     font-family="'Helvetica'"
     font-size="24"
     id="text317">2</text>
<text
     transform="matrix(1 0 0 1 236.9992 301)"
     fill="#FFFFFF"
     font-family="'Helvetica'"
     font-size="24"
     id="text319">3</text>
<text
     sodipodi:linespacing="125%"
     style="font-style:normal;font-variant:normal;font-weight:normal;font-stretch:normal;font-size:21px;line-height:125%;font-family:Gulim;-inkscape-font-specification:'Gulim, Normal';text-align:start;writing-mode:lr-tb;text-anchor:start"
     id="text323"
     x="300.77539"
     y="510.13531"><tspan
       style="font-style:normal;font-variant:normal;font-weight:normal;font-stretch:normal;font-size:21px;line-height:125%;font-family:Gulim;-inkscape-font-specification:'Gulim, Normal';text-align:start;writing-mode:lr-tb;text-anchor:start;fill:#ffffff"
       id="tspan325"
       font-size="21"
       y="510.13531"
       x="300.77539"> 1 </tspan><tspan
       style="font-style:normal;font-variant:normal;font-weight:normal;font-stretch:normal;font-size:21px;line-height:125%;font-family:Gulim;-inkscape-font-specification:'Gulim, Normal';text-align:start;writing-mode:lr-tb;text-anchor:start;fill:#ffffff"
       id="tspan327"
       font-size="21"
       y="535.33533"
       x="288.4754"></tspan></text>
<text
     id="text331"
     x="300.7756"
     y="605.13531"
     style="font-style:normal;font-variant:normal;font-weight:normal;font-stretch:normal;font-size:21px;line-height:125%;font-family:Gulim;-inkscape-font-specification:'Gulim, Normal';text-align:start;writing-mode:lr-tb;text-anchor:start"
     sodipodi:linespacing="125%"><tspan
       style="font-style:normal;font-variant:normal;font-weight:normal;font-stretch:normal;font-size:21px;line-height:125%;font-family:Gulim;-inkscape-font-specification:'Gulim, Normal';text-align:start;writing-mode:lr-tb;text-anchor:start;fill:#ffffff"
       id="tspan333"
       font-size="21"
       y="605.13531"
       x="300.7756"> 2 </tspan><tspan
       style="font-style:normal;font-variant:normal;font-weight:normal;font-stretch:normal;font-size:21px;line-height:125%;font-family:Gulim;-inkscape-font-specification:'Gulim, Normal';text-align:start;writing-mode:lr-tb;text-anchor:start;fill:#ffffff"
       id="tspan335"
       font-size="21"
       y="630.33533"
       x="288.47559"></tspan></text>
<text
     id="text339"
     x="300.7756"
     y="700.86151"
     style="font-style:normal;font-variant:normal;font-weight:normal;font-stretch:normal;font-size:21px;line-height:125%;font-family:Gulim;-inkscape-font-specification:'Gulim, Normal';text-align:start;writing-mode:lr-tb;text-anchor:start"
     sodipodi:linespacing="125%"><tspan
       style="font-style:normal;font-variant:normal;font-weight:normal;font-stretch:normal;font-size:21px;line-height:125%;font-family:Gulim;-inkscape-font-specification:'Gulim, Normal';text-align:start;writing-mode:lr-tb;text-anchor:start;fill:#ffffff"
       id="tspan341"
       font-size="21"
       y="700.86151"
       x="300.7756"> 3 </tspan><tspan
       style="font-style:normal;font-variant:normal;font-weight:normal;font-stretch:normal;font-size:21px;line-height:125%;font-family:Gulim;-inkscape-font-specification:'Gulim, Normal';text-align:start;writing-mode:lr-tb;text-anchor:start;fill:#ffffff"
       id="tspan343"
       font-size="21"
       y="726.06152"
       x="288.47559"></tspan></text>
<text
     style="font-size:23.09250116px;font-family:Gulim;-inkscape-font-specification:'Gulim, Normal';font-weight:normal;font-style:normal;font-stretch:normal;font-variant:normal;text-anchor:start;text-align:start;writing-mode:lr;line-height:125%;"
     id="text347"
     font-size="23.0931"
     x="174.66389"
     y="443.92551"
     sodipodi:linespacing="125%"> </text>
<text
     style="font-size:19.77912903px;line-height:125%;font-family:HelvNeueBoldforIBM"
     id="text351"
     font-size="23.0931"
     x="900.03949"
     y="94.153313"
     sodipodi:linespacing="125%"
     transform="scale(0.85649518,1.1675489)">Dave<tspan
   style="font-style:normal;font-variant:normal;font-weight:normal;font-stretch:normal;font-size:19.77861595px;line-height:125%;font-family:Gulim;-inkscape-font-specification:'Gulim, Normal';text-align:start;writing-mode:lr-tb;text-anchor:start"
   id="tspan4869">  1  </tspan></text>
<text
     transform="matrix(1 0 0 1 815.0016 179.0059)"
     fill="#FFFFFF"
     font-family="'Helvetica'"
     font-size="24"
     id="text353">1</text>
<text
     transform="matrix(1 0 0 1 815.0016 223.0059)"
     fill="#FFFFFF"
     font-family="'Helvetica'"
     font-size="24"
     id="text355">2</text>
<text
     id="text359"
     x="922.7746"
     y="167.4994"
     style="font-style:normal;font-variant:normal;font-weight:normal;font-stretch:normal;font-size:21px;line-height:125%;font-family:Gulim;-inkscape-font-specification:'Gulim, Normal';text-align:start;writing-mode:lr-tb;text-anchor:start"
     sodipodi:linespacing="125%"><tspan
       style="font-style:normal;font-variant:normal;font-weight:normal;font-stretch:normal;font-size:21px;line-height:125%;font-family:Gulim;-inkscape-font-specification:'Gulim, Normal';text-align:start;writing-mode:lr-tb;text-anchor:start;fill:#ffffff"
       id="tspan361"
       font-size="21"
       y="167.4994"
       x="922.7746"> 1 </tspan><tspan
       style="font-style:normal;font-variant:normal;font-weight:normal;font-stretch:normal;font-size:21px;line-height:125%;font-family:Gulim;-inkscape-font-specification:'Gulim, Normal';text-align:start;writing-mode:lr-tb;text-anchor:start;fill:#ffffff"
       id="tspan363"
       font-size="21"
       y="192.6994"
       x="910.47461"></tspan></text>
<text
     id="text367"
     x="922.77478"
     y="262.49939"
     style="font-style:normal;font-variant:normal;font-weight:normal;font-stretch:normal;font-size:21px;line-height:125%;font-family:Gulim;-inkscape-font-specification:'Gulim, Normal';text-align:start;writing-mode:lr-tb;text-anchor:start"
     sodipodi:linespacing="125%"><tspan
       style="font-style:normal;font-variant:normal;font-weight:normal;font-stretch:normal;font-size:21px;line-height:125%;font-family:Gulim;-inkscape-font-specification:'Gulim, Normal';text-align:start;writing-mode:lr-tb;text-anchor:start;fill:#ffffff"
       id="tspan369"
       font-size="21"
       y="262.49939"
       x="922.77478"> 2 </tspan><tspan
       style="font-style:normal;font-variant:normal;font-weight:normal;font-stretch:normal;font-size:21px;line-height:125%;font-family:Gulim;-inkscape-font-specification:'Gulim, Normal';text-align:start;writing-mode:lr-tb;text-anchor:start;fill:#ffffff"
       id="tspan371"
       font-size="21"
       y="287.6994"
       x="910.47479"></tspan></text>
<text
     transform="matrix(1 0 0 1 816.5026 500.0008)"
     fill="#FFFFFF"
     font-family="'Helvetica'"
     font-size="24"
     id="text373">2</text>
<text
     transform="matrix(1 0 0 1 815.5018 542.0016)"
     fill="#FFFFFF"
     font-family="'Helvetica'"
     font-size="24"
     id="text375">3</text>
<text
     style="font-size:19.72861862px;line-height:125%;font-family:HelvNeueBoldforIBM"
     id="text379"
     font-size="23.0931"
     x="903.41193"
     y="362.16849"
     sodipodi:linespacing="125%"
     transform="scale(0.85430795,1.1705381)">Phil<tspan
   style="font-style:normal;font-variant:normal;font-weight:normal;font-stretch:normal;font-size:19.72810745px;line-height:125%;font-family:Gulim;-inkscape-font-specification:'Gulim, Normal';text-align:start;writing-mode:lr-tb;text-anchor:start"
   id="tspan4871">  2  </tspan></text>
<text
     id="text383"
     x="925.77692"
     y="484.2269"
     style="font-style:normal;font-variant:normal;font-weight:normal;font-stretch:normal;font-size:21px;line-height:125%;font-family:Gulim;-inkscape-font-specification:'Gulim, Normal';text-align:start;writing-mode:lr-tb;text-anchor:start"
     sodipodi:linespacing="125%"><tspan
       style="font-style:normal;font-variant:normal;font-weight:normal;font-stretch:normal;font-size:21px;line-height:125%;font-family:Gulim;-inkscape-font-specification:'Gulim, Normal';text-align:start;writing-mode:lr-tb;text-anchor:start;fill:#ffffff"
       id="tspan385"
       font-size="21"
       y="484.2269"
       x="925.77692"> 2 </tspan><tspan
       style="font-style:normal;font-variant:normal;font-weight:normal;font-stretch:normal;font-size:21px;line-height:125%;font-family:Gulim;-inkscape-font-specification:'Gulim, Normal';text-align:start;writing-mode:lr-tb;text-anchor:start;fill:#ffffff"
       id="tspan387"
       font-size="21"
       y="509.42691"
       x="913.47693"></tspan></text>
<text
     id="text391"
     x="925.7771"
     y="579.22693"
     style="font-style:normal;font-variant:normal;font-weight:normal;font-stretch:normal;font-size:21px;line-height:125%;font-family:Gulim;-inkscape-font-specification:'Gulim, Normal';text-align:start;writing-mode:lr-tb;text-anchor:start"
     sodipodi:linespacing="125%"><tspan
       style="font-style:normal;font-variant:normal;font-weight:normal;font-stretch:normal;font-size:21px;line-height:125%;font-family:Gulim;-inkscape-font-specification:'Gulim, Normal';text-align:start;writing-mode:lr-tb;text-anchor:start;fill:#ffffff"
       id="tspan393"
       font-size="21"
       y="579.22693"
       x="925.7771"> 3 </tspan><tspan
       style="font-style:normal;font-variant:normal;font-weight:normal;font-stretch:normal;font-size:21px;line-height:125%;font-family:Gulim;-inkscape-font-specification:'Gulim, Normal';text-align:start;writing-mode:lr-tb;text-anchor:start;fill:#ffffff"
       id="tspan395"
       font-size="21"
       y="604.42688"
       x="913.47711"></tspan></text>
<text
     style="font-size:23.09250116px;font-family:Gulim;-inkscape-font-specification:'Gulim, Normal';font-weight:normal;font-style:normal;font-stretch:normal;font-variant:normal;text-anchor:start;text-align:start;writing-mode:lr;line-height:125%;"
     id="text399"
     font-size="23.0931"
     x="178.1689"
     y="40.986401"
     sodipodi:linespacing="125%">  </text>
<text
     id="text403"
     x="758.76068"
     y="38.984798"
     style="font-style:normal;font-variant:normal;font-weight:normal;font-stretch:normal;font-size:23.09250069px;line-height:125%;font-family:Gulim;-inkscape-font-specification:'Gulim, Normal';text-align:start;writing-mode:lr-tb;text-anchor:start"
     sodipodi:linespacing="125%"><tspan
       style="font-style:normal;font-variant:normal;font-weight:normal;font-stretch:normal;font-size:23.09250069px;line-height:125%;font-family:Gulim;-inkscape-font-specification:'Gulim, Normal';text-align:start;writing-mode:lr-tb;text-anchor:start"
       id="tspan405"
       font-size="23.0931"
       y="38.984798"
       x="758.76068">    </tspan><tspan
       style="font-style:normal;font-variant:normal;font-weight:normal;font-stretch:normal;font-size:23.09250069px;line-height:125%;font-family:Gulim;-inkscape-font-specification:'Gulim, Normal';text-align:start;writing-mode:lr-tb;text-anchor:start"
       id="tspan407"
       font-size="23.0931"
       y="66.684799"
       x="766.96069">(  )</tspan></text>
</svg>
