<?xml version="1.0" encoding="UTF-8" standalone="no"?>
<!-- Generator: Adobe Illustrator 18.1.1, SVG Export Plug-In . SVG Version: 6.00 Build 0)  -->

<svg
   xmlns:dc="http://purl.org/dc/elements/1.1/"
   xmlns:cc="http://creativecommons.org/ns#"
   xmlns:rdf="http://www.w3.org/1999/02/22-rdf-syntax-ns#"
   xmlns:svg="http://www.w3.org/2000/svg"
   xmlns="http://www.w3.org/2000/svg"
   xmlns:sodipodi="http://sodipodi.sourceforge.net/DTD/sodipodi-0.dtd"
   xmlns:inkscape="http://www.inkscape.org/namespaces/inkscape"
   version="1.1"
   id="Layer_1"
   x="0px"
   y="0px"
   viewBox="0 0 612 792"
   enable-background="new 0 0 612 792"
   xml:space="preserve"
   inkscape:version="0.91 r13725"
   sodipodi:docname="wks_datagt.svg"
   inkscape:export-filename="\\nlszone\BM130\PUB\ABD202\ART\WORK\ship1\wks_datagt.png"
   inkscape:export-xdpi="94.619499"
   inkscape:export-ydpi="94.619499"><metadata
     id="metadata47"><rdf:RDF><cc:Work
         rdf:about=""><dc:format>image/svg+xml</dc:format><dc:type
           rdf:resource="http://purl.org/dc/dcmitype/StillImage" /></cc:Work></rdf:RDF></metadata><defs
     id="defs45" /><sodipodi:namedview
     pagecolor="#ffffff"
     bordercolor="#666666"
     borderopacity="1"
     objecttolerance="10"
     gridtolerance="10"
     guidetolerance="10"
     inkscape:pageopacity="0"
     inkscape:pageshadow="2"
     inkscape:window-width="1920"
     inkscape:window-height="1015"
     id="namedview43"
     showgrid="false"
     inkscape:zoom="2.3658269"
     inkscape:cx="307"
     inkscape:cy="395.5"
     inkscape:window-x="-8"
     inkscape:window-y="-8"
     inkscape:window-maximized="1"
     inkscape:current-layer="Layer_1" /><g
     id="g3"><g
       id="g5"><path
         fill="#FCFCFA"
         d="M307,579c-82,0-164,0-246,0.1c-3.4,0-4.1-0.7-4.1-4.1c0.1-119,0.1-238,0-357c0-3.4,0.7-4.1,4.1-4.1    c164,0.1,328,0.1,492,0c3.4,0,4.1,0.7,4.1,4.1c-0.1,119-0.1,238,0,357c0,3.4-0.7,4.1-4.1,4.1C471,579,389,579,307,579z M334.4,361    C334.4,361,334.4,361,334.4,361c28.3,0,56.6,0,84.9,0.1c3.6,0,4.8-0.7,4.8-4.6c-0.2-24.3-0.2-48.6,0-72.9c0-3.9-1.1-4.6-4.8-4.6    c-56.4,0.1-112.9,0.1-169.3,0c-3.8,0-5.1,0.7-5.1,4.9c0.2,24.1,0.2,48.3,0,72.4c0,4.1,1.3,4.9,5.1,4.9    C278.1,360.9,306.2,361,334.4,361z M334.6,374c-28.3,0-56.6,0.1-84.9-0.1c-3.6,0-4.8,0.7-4.8,4.6c0.2,24.3,0.2,48.6,0,72.9    c0,3.9,1.2,4.6,4.8,4.6c56.4-0.1,112.9-0.1,169.3,0c3.8,0,5.1-0.8,5.1-4.9c-0.2-24.1-0.2-48.3,0-72.4c0-4.1-1.3-4.9-5-4.9    C390.9,374.1,362.8,374,334.6,374z M333.9,551C333.9,551,333.9,551,333.9,551c28.5,0,56.9,0,85.4,0.1c3.7,0,4.8-0.9,4.7-4.7    c-0.2-24.3-0.2-48.6,0-72.9c0-4-1.3-4.6-4.8-4.5c-56.4,0.1-112.9,0.1-169.4,0c-3.9,0-5,1-5,4.9c0.2,24,0.2,48,0,71.9    c-0.1,4.7,1.5,5.3,5.7,5.3C278.3,550.9,306.1,551,333.9,551z M306.3,573c61.5,0,123,0,184.4,0c32.2,0,57.3-25,57.3-57.3    c0.1-73.1,0.1-146.3,0-219.4c0-33.2-25.1-58.1-58.2-58.1c-55,0-110,0-165,0.1c-1.9,0-5.6-1.7-5.6,1.8c-0.1,4.2,3.9,1.9,5.8,1.9    c54,0.1,108,0.4,161.9,0c35.5-0.3,57.6,26.4,57.3,57.4c-0.7,71.5-0.2,143-0.3,214.4c0,32.6-22.7,55.3-55.3,55.3    c-121,0.1-241.9,0-362.9,0c-5.5,0-11-0.2-16.3-1.6C85,561.2,69.2,540.4,69.1,514c-0.1-28.7,0-57.3,0-86c0-43.5-0.1-87,0-130.5    c0.1-27.1,16-47.7,41.6-54c3.5-0.9,7.2-0.9,10.9-1.5c1.4-0.2,3.7,0.7,3.5-2.2c-0.2-2.7-2.4-1.7-3.8-1.8c-1.5-0.1-3,0.1-4.5,0.3    c-30.4,3.7-51.5,27.4-51.6,58.1c-0.1,22.3,0,44.7,0,67c0,50.3-0.1,100.6,0,151c0.1,34,24.9,58.5,58.8,58.5    C184.6,573,245.5,573,306.3,573z"
         id="path7" /><path
         fill="#97B758"
         d="M334.4,361c-28.1,0-56.3-0.1-84.4,0.1c-3.8,0-5.1-0.7-5.1-4.9c0.2-24.1,0.2-48.3,0-72.4    c0-4.1,1.3-4.9,5.1-4.9c56.4,0.1,112.9,0.1,169.3,0c3.6,0,4.8,0.8,4.8,4.6c-0.2,24.3-0.2,48.6,0,72.9c0,3.9-1.2,4.6-4.8,4.6    C391,361,362.7,361,334.4,361C334.4,361,334.4,361,334.4,361z"
         id="path9" /><path
         fill="#97B758"
         d="M334.6,374c28.1,0,56.3,0.1,84.4-0.1c3.8,0,5.1,0.8,5,4.9c-0.2,24.1-0.2,48.3,0,72.4    c0,4.1-1.3,4.9-5.1,4.9c-56.4-0.1-112.9-0.1-169.3,0c-3.6,0-4.8-0.7-4.8-4.6c0.2-24.3,0.2-48.6,0-72.9c0-3.9,1.2-4.6,4.8-4.6    C278,374.1,306.3,374,334.6,374z"
         id="path11" /><path
         fill="#97B758"
         d="M333.9,551c-27.8,0-55.6-0.1-83.4,0.1c-4.1,0-5.7-0.6-5.7-5.3c0.3-24,0.2-48,0-71.9c0-4,1.1-4.9,5-4.9    c56.4,0.1,112.9,0.1,169.4,0c3.5,0,4.9,0.6,4.8,4.5c-0.2,24.3-0.2,48.6,0,72.9c0,3.8-1,4.7-4.7,4.7    C390.9,550.9,362.4,551,333.9,551C333.9,551,333.9,551,333.9,551z"
         id="path13" /><path
         fill="#42638E"
         d="M306.3,573c-60.8,0-121.6,0-182.4,0c-33.9,0-58.7-24.5-58.8-58.5c-0.1-50.3,0-100.6,0-151    c0-22.3,0-44.7,0-67c0.1-30.7,21.2-54.4,51.6-58.1c1.5-0.2,3-0.4,4.5-0.3c1.4,0.1,3.6-1,3.8,1.8c0.3,2.9-2.1,2-3.5,2.2    c-3.6,0.6-7.3,0.6-10.9,1.5c-25.6,6.3-41.5,26.9-41.6,54c-0.1,43.5,0,87,0,130.5c0,28.7-0.1,57.3,0,86    c0.1,26.4,15.9,47.2,40.4,53.5c5.4,1.4,10.8,1.6,16.3,1.6c121,0,241.9,0,362.9,0c32.6,0,55.3-22.7,55.3-55.3    c0.1-71.5-0.5-143,0.3-214.4c0.3-31-21.8-57.7-57.3-57.4c-54,0.4-108,0.1-161.9,0c-1.9,0-5.9,2.2-5.8-1.9c0.1-3.4,3.7-1.8,5.6-1.8    c55-0.1,110-0.1,165-0.1c33.1,0,58.2,25,58.2,58.1c0.1,73.1,0.1,146.3,0,219.4c0,32.3-25.1,57.3-57.3,57.3    C429.2,573,367.7,573,306.3,573z"
         id="path15" /></g></g><text
     id="text19"
     x="292.48569"
     y="313.12579"
     style="font-style:normal;font-variant:normal;font-weight:normal;font-stretch:normal;font-size:20px;line-height:125%;font-family:Gulim;-inkscape-font-specification:'Gulim, Normal';text-align:start;writing-mode:lr-tb;text-anchor:start"
     sodipodi:linespacing="125%"><tspan
       style="font-style:normal;font-variant:normal;font-weight:normal;font-stretch:normal;font-size:20px;line-height:125%;font-family:Gulim;-inkscape-font-specification:'Gulim, Normal';text-align:start;writing-mode:lr-tb;text-anchor:start;fill:#ffffff"
       id="tspan21"
       font-size="20"
       y="313.12579"
       x="292.48569">문서 1의 </tspan><tspan
       style="font-style:normal;font-variant:normal;font-weight:normal;font-stretch:normal;font-size:20px;line-height:125%;font-family:Gulim;-inkscape-font-specification:'Gulim, Normal';text-align:start;writing-mode:lr-tb;text-anchor:start;fill:#ffffff"
       id="tspan23"
       font-size="20"
       y="337.12579"
       x="280.78571">어노테이션</tspan></text>
<text
     id="text27"
     x="292.48599"
     y="408.1257"
     style="font-style:normal;font-variant:normal;font-weight:normal;font-stretch:normal;font-size:20px;line-height:125%;font-family:Gulim;-inkscape-font-specification:'Gulim, Normal';text-align:start;writing-mode:lr-tb;text-anchor:start"
     sodipodi:linespacing="125%"><tspan
       style="font-style:normal;font-variant:normal;font-weight:normal;font-stretch:normal;font-size:20px;line-height:125%;font-family:Gulim;-inkscape-font-specification:'Gulim, Normal';text-align:start;writing-mode:lr-tb;text-anchor:start;fill:#ffffff"
       id="tspan29"
       font-size="20"
       y="408.1257"
       x="292.48599">문서 2의 </tspan><tspan
       style="font-style:normal;font-variant:normal;font-weight:normal;font-stretch:normal;font-size:20px;line-height:125%;font-family:Gulim;-inkscape-font-specification:'Gulim, Normal';text-align:start;writing-mode:lr-tb;text-anchor:start;fill:#ffffff"
       id="tspan31"
       font-size="20"
       y="432.1257"
       x="280.78601">어노테이션</tspan></text>
<text
     id="text35"
     x="292.4859"
     y="503.8519"
     style="font-style:normal;font-variant:normal;font-weight:normal;font-stretch:normal;font-size:20px;line-height:125%;font-family:Gulim;-inkscape-font-specification:'Gulim, Normal';text-align:start;writing-mode:lr-tb;text-anchor:start"
     sodipodi:linespacing="125%"><tspan
       style="font-style:normal;font-variant:normal;font-weight:normal;font-stretch:normal;font-size:20px;line-height:125%;font-family:Gulim;-inkscape-font-specification:'Gulim, Normal';text-align:start;writing-mode:lr-tb;text-anchor:start;fill:#ffffff"
       id="tspan37"
       font-size="20"
       y="503.8519"
       x="292.4859">문서 3의 </tspan><tspan
       style="font-style:normal;font-variant:normal;font-weight:normal;font-stretch:normal;font-size:20px;line-height:125%;font-family:Gulim;-inkscape-font-specification:'Gulim, Normal';text-align:start;writing-mode:lr-tb;text-anchor:start;fill:#ffffff"
       id="tspan39"
       font-size="20"
       y="527.85193"
       x="280.78589">어노테이션</tspan></text>
<text
     transform="matrix(1 0 0 1 150.9883 246.9159)"
     font-family="'Helvetica'"
     font-size="26"
     id="text41"
     style="-inkscape-font-specification:'Gulim, Normal';font-family:Gulim;font-weight:normal;font-style:normal;font-stretch:normal;font-variant:normal;font-size:25.99999905px;text-anchor:start;text-align:start;writing-mode:lr;line-height:125%;"
     sodipodi:linespacing="125%">기준 실제값</text>
</svg>
