<?xml version="1.0" encoding="UTF-8" standalone="no"?>
<!-- Generator: Adobe Illustrator 18.1.1, SVG Export Plug-In . SVG Version: 6.00 Build 0)  -->

<svg
   xmlns:dc="http://purl.org/dc/elements/1.1/"
   xmlns:cc="http://creativecommons.org/ns#"
   xmlns:rdf="http://www.w3.org/1999/02/22-rdf-syntax-ns#"
   xmlns:svg="http://www.w3.org/2000/svg"
   xmlns="http://www.w3.org/2000/svg"
   xmlns:sodipodi="http://sodipodi.sourceforge.net/DTD/sodipodi-0.dtd"
   xmlns:inkscape="http://www.inkscape.org/namespaces/inkscape"
   version="1.1"
   id="Layer_1"
   x="0px"
   y="0px"
   viewBox="0 0 903 586.5"
   enable-background="new 0 0 903 586.5"
   xml:space="preserve"
   inkscape:version="0.91 r13725"
   sodipodi:docname="wks_flow.svg"
   inkscape:export-filename="\\nlszone\BM130\PUB\ABD202\ART\WORK\ship1\wks_flow.png"
   inkscape:export-xdpi="94.619499"
   inkscape:export-ydpi="94.619499"><metadata
     id="metadata67"><rdf:RDF><cc:Work
         rdf:about=""><dc:format>image/svg+xml</dc:format><dc:type
           rdf:resource="http://purl.org/dc/dcmitype/StillImage" /></cc:Work></rdf:RDF></metadata><defs
     id="defs65" /><sodipodi:namedview
     pagecolor="#ffffff"
     bordercolor="#666666"
     borderopacity="1"
     objecttolerance="10"
     gridtolerance="10"
     guidetolerance="10"
     inkscape:pageopacity="0"
     inkscape:pageshadow="2"
     inkscape:window-width="1920"
     inkscape:window-height="1015"
     id="namedview63"
     showgrid="false"
     inkscape:zoom="1.6679293"
     inkscape:cx="454.6"
     inkscape:cy="299.8"
     inkscape:window-x="-8"
     inkscape:window-y="-8"
     inkscape:window-maximized="1"
     inkscape:current-layer="Layer_1" /><path
     style="fill:#fbfcfc"
     inkscape:connector-curvature="0"
     id="path5"
     d="m 454.6,526.6 c -130.9,0 -261.7,0 -392.6,0.1 -2.8,0 -3.4,-0.6 -3.4,-3.4 0.1,-157.7 0.1,-315.5 0,-473.2 0,-2.8 0.6,-3.4 3.4,-3.4 261.7,0.1 523.5,0.1 785.2,0 2.8,0 3.4,0.6 3.4,3.4 -0.1,157.7 -0.1,315.5 0,473.2 0,2.8 -0.6,3.4 -3.4,3.4 -130.8,-0.1 -261.7,-0.1 -392.6,-0.1 z M 542.4,97.4 c 0,-8.8 0,-16.7 0,-24.7 0,-9.6 -5.8,-15.4 -15.4,-15.4 -55.9,0 -111.8,0 -167.6,0 -9.8,0 -15.7,5.9 -15.7,15.6 0,7 -0.1,14 0.1,21 0.1,2.4 -0.6,3.1 -3.1,3.2 -23.6,0.5 -46.7,4 -69.4,10.4 -27.2,7.7 -52.9,18.7 -75.6,36 -16.7,12.7 -30.7,27.5 -35.2,49 -1.1,-0.5 -1.1,-1.6 -1.7,-2.4 -0.5,-0.7 -0.8,-1.9 -1.9,-1.4 -1.4,0.6 -0.5,1.7 -0.1,2.5 1,2.2 2.1,4.4 3.4,7 -2.2,0 -3.8,0 -5.4,0 -25.7,0 -51.5,0 -77.2,0 -9.8,0 -15.8,5.9 -15.8,15.6 0,16.9 0,33.7 0,50.6 0,9.8 5.8,15.5 15.7,15.5 26.4,0 52.7,0 79.1,-0.1 2.8,0 3.5,0.7 3.6,3.5 1.5,33.2 12.4,63 33.2,88.9 10.1,12.5 22.1,22.8 37.5,28.4 3.2,1.2 6.6,1.9 9.9,2.9 -0.3,1 -1.1,1.1 -1.7,1.5 -0.8,0.5 -2.2,0.9 -1.6,2.1 0.7,1.5 1.9,0.4 2.9,-0.1 2.1,-1 4.2,-2.1 6.7,-3.4 0,8.3 0,16.1 0,24 0,10.2 5.7,15.8 15.8,15.8 55.7,0 111.5,0 167.2,0 10.2,0 15.7,-5.5 15.7,-15.7 0,-16.7 0,-33.5 0,-50.2 0,-10 -5.8,-15.7 -15.9,-15.7 -55.5,0 -111,0 -166.5,0 -10.7,0 -16.4,5.7 -16.4,16.5 0,7.6 0,15.1 0,22.6 -0.5,0.1 -0.7,0.2 -0.7,0.2 -1.6,-1 -3.2,-2 -4.8,-2.9 -1,-0.6 -2,-1.9 -3.3,-1.1 -1.5,1 1.2,2 0.2,3.3 -1.2,-0.3 -2.4,-0.5 -3.6,-0.9 -16.7,-5.1 -29.3,-15.8 -39.9,-29.1 -20.2,-25.4 -30.8,-54.5 -32.4,-86.9 -0.1,-2.9 0.6,-3.5 3.3,-3.4 26.4,0.1 52.7,0.1 79.1,0.1 10,0 15.6,-5.6 15.6,-15.5 0,-16.7 0,-33.5 0,-50.2 0,-10.3 -5.7,-15.9 -16,-15.9 -25.9,0 -51.7,0 -77.6,0 -1.3,0 -2.7,0.4 -4.1,-0.6 1.1,-1.7 2.2,-3.2 3.1,-4.8 0.6,-1 2.2,-2 1.1,-3.2 -1.3,-1.5 -1.9,1.1 -3.1,1 -0.2,0 -0.4,-0.2 -0.6,-0.3 1.3,-3.6 2.3,-7.3 4,-10.8 6.6,-13.7 17,-24.2 28.9,-33.4 19.3,-14.9 41.1,-25 64,-32.7 25.5,-8.5 51.8,-13.1 78.6,-13.9 5.6,-0.2 4.8,-0.7 4.9,4.6 0.1,6.6 0,13.2 0,19.9 0.1,9.2 6,15 15.1,15 8.6,0 17.2,0 25.9,0 47.4,0 94.7,0 142.1,0 10.2,0 15.7,-5.5 15.7,-15.8 0,-7 0,-14 0,-21 0,-0.9 -0.5,-2 0.6,-2.8 1.8,1.1 3.6,2.2 5.5,3.2 1.1,0.6 2.5,2.3 3.5,0.7 0.9,-1.3 -1.4,-1.7 -2,-2.7 -0.1,-0.2 0,-0.5 0.1,-0.9 6.1,0.1 12.2,0.5 18.2,1 35.8,2.9 70.5,10.8 103.7,24.7 20.4,8.5 39.6,19.1 55.6,34.6 8.6,8.3 15.4,17.8 17.8,29.7 1,4.8 0.8,4.9 -3.9,4.9 -25.9,0 -51.7,0 -77.6,0 -10,0 -15.8,5.9 -15.8,15.9 0,16.7 0,33.5 0,50.2 0,9.9 5.8,15.6 15.6,15.6 26.1,0 52.2,0 78.4,0 1.3,0 2.6,0 4.6,0 -1.6,2.6 -2.9,4.5 -4.1,6.5 -0.5,0.9 -1.8,2.1 -0.6,2.9 1.3,1 1.8,-0.7 2.5,-1.5 0.3,-0.3 0.5,-0.9 1.2,-0.7 0.5,1.3 0.2,2.7 0.1,4 -1.8,19.5 -7.1,38 -15.9,55.4 -9.4,18.8 -21.8,35.2 -39.3,47.4 -9,6.2 -18.7,10.4 -29.7,11.3 -2.4,0.2 -3,-0.5 -3,-2.8 0.1,-7.1 0.1,-14.2 0,-21.4 -0.1,-8.9 -5.9,-14.9 -14.8,-14.9 -56.4,0 -112.7,0 -169.1,0 -8.6,0 -14.8,6 -14.8,14.6 -0.1,17.2 -0.1,34.5 0,51.7 0.1,8.9 6.1,14.6 15,14.6 56.2,0 112.5,0 168.7,0 9.2,0 14.9,-5.8 14.9,-15 0,-7 0.1,-14 -0.1,-21 -0.1,-2.6 0.8,-3.5 3.3,-3.6 3,-0.1 5.9,-0.7 8.8,-1.5 18.7,-5 32.7,-16.8 44.5,-31.4 18.3,-22.6 29,-48.5 32.8,-77.2 0.5,-3.5 0.9,-6.9 1.4,-10.9 0.6,0.8 0.8,1.1 1,1.4 0.6,0.8 0.9,2.6 2.2,2 1.5,-0.8 0.3,-2.1 -0.2,-3.2 -1,-2.2 -2.8,-4.1 -3,-6.8 1.6,0 2.9,0 4.3,0 26,0 52,0 78,0 10.3,0 15.8,-5.5 15.8,-15.7 0,-16.5 0,-33 0,-49.5 0,-11.1 -5.5,-16.5 -16.6,-16.5 -26.1,0 -52.2,0 -78.4,0 -1.8,0 -3.6,0.4 -3.9,-2.6 -0.7,-7.9 -4,-14.9 -8.4,-21.4 -8.2,-12.1 -19.3,-21.3 -31.5,-29 C 668.4,116.9 624.4,105 578.5,99.6 568.8,98.4 559,98 549.2,97.2 c 0.1,-0.9 0.8,-1 1.3,-1.3 0.8,-0.5 2.1,-1 1.4,-2.2 -0.7,-1.3 -1.8,-0.3 -2.6,0.2 -1.9,0.7 -4,1.9 -6.9,3.5 z M 402.3,340.2 c -0.2,7.2 -0.2,7.2 4.9,7.2 3.6,0 7.3,-0.2 10.9,0.1 2.7,0.2 3.5,-0.9 3.4,-3.4 -0.1,-4.9 0.5,-9.7 1.6,-14.5 3.9,-17.7 12,-32.6 27.6,-42.9 9.3,-6.2 18.2,-6.5 27.8,-0.2 13.3,8.7 21.4,21 26,35.9 1.7,5.4 1.7,5.4 -3.8,5.9 -1,0.1 -2.1,0 -2.5,1.2 -0.3,1 0.7,1.5 1.3,2.1 5.4,5 10.9,9.9 16.3,14.9 1.5,1.3 2.5,1.2 3.7,-0.2 4.3,-4.9 8.7,-9.7 13,-14.5 0.6,-0.7 1.7,-1.4 1.2,-2.5 -0.5,-1 -1.6,-1 -2.7,-0.9 -0.7,0 -1.5,-0.1 -2.2,0 -2.9,0.5 -3.9,-0.9 -4.4,-3.5 -1.2,-5.8 -3.4,-11.2 -6.2,-16.4 -7.9,-14.5 -18.8,-25.5 -35.4,-29.4 -9.5,-2.2 -19.2,-1.2 -28.7,-1 -9.1,0.2 -17.4,3.5 -24.6,9 -18.4,13.7 -25.6,33.2 -27.2,53.1 z m 64.1,180.5 c 3.4,0 6.3,0 9.2,0 8,0.1 15.4,-1.9 22.1,-6.1 22.6,-14.1 31,-35.7 32.1,-61.2 0.1,-2 -1,-2.6 -2.8,-2.5 -4.2,0 -8.5,0.2 -12.7,0 -3.1,-0.2 -3.9,1.1 -3.8,3.9 0.1,6.3 -0.9,12.5 -2.6,18.5 -4.9,17.6 -14,32.1 -30.8,40.9 -6.9,3.6 -13.2,3.7 -20.2,0.1 -15.8,-8.3 -25,-21.7 -30.2,-38.3 -1.7,-5.4 -1.7,-5.4 3.8,-5.7 0.8,-0.1 1.9,0.2 2.4,-0.7 0.5,-1 -0.4,-1.6 -1,-2.2 -5.5,-5 -11.1,-10.1 -16.6,-15.1 -1,-0.9 -2,-1.4 -3.2,-0.1 -4.7,5.2 -9.4,10.4 -14,15.6 -1.3,1.5 -0.8,2.5 1.2,2.5 1,0 2,0.1 3,0 2.8,-0.4 3.9,0.8 4.5,3.5 1.2,5.6 3.3,11 6.1,16.1 7.8,14.6 18.7,25.5 35.2,29.9 6.1,1.4 12.5,0.7 18.3,0.9 z" /><path
     style="fill:#14b4ef"
     inkscape:connector-curvature="0"
     id="path7"
     d="m 542.4,97.4 c 2.8,-1.6 5,-2.8 7.2,-4 0.8,-0.4 1.9,-1.4 2.6,-0.2 0.7,1.2 -0.6,1.7 -1.4,2.2 -0.5,0.3 -1.2,0.4 -1.3,1.3 9.8,0.8 19.6,1.3 29.3,2.4 45.9,5.5 89.9,17.3 129.4,42.3 12.2,7.7 23.3,16.9 31.5,29 4.4,6.5 7.7,13.5 8.4,21.4 0.3,3 2,2.6 3.9,2.6 26.1,0 52.2,0 78.4,0 11.1,0 16.6,5.4 16.6,16.5 0,16.5 0,33 0,49.5 0,10.2 -5.6,15.7 -15.8,15.7 -26,0 -52,0 -78,0 -1.4,0 -2.7,0 -4.3,0 0.2,2.7 2,4.6 3,6.8 0.5,1.1 1.7,2.4 0.2,3.2 -1.3,0.7 -1.6,-1.2 -2.2,-2 -0.2,-0.3 -0.4,-0.6 -1,-1.4 -0.5,4 -0.9,7.4 -1.4,10.9 -3.9,28.7 -14.6,54.6 -32.8,77.2 -11.8,14.6 -25.8,26.4 -44.5,31.4 -2.9,0.8 -5.8,1.4 -8.8,1.5 -2.5,0.1 -3.4,1 -3.3,3.6 0.2,7 0.1,14 0.1,21 0,9.2 -5.8,15 -14.9,15 -56.2,0 -112.5,0 -168.7,0 -9,0 -15,-5.7 -15,-14.6 -0.1,-17.2 -0.1,-34.5 0,-51.7 0.1,-8.5 6.2,-14.5 14.8,-14.6 56.4,0 112.7,0 169.1,0 8.9,0 14.7,6 14.8,14.9 0,7.1 0.1,14.3 0,21.4 0,2.3 0.6,3 3,2.8 11,-0.9 20.8,-5.1 29.7,-11.3 17.5,-12.1 29.9,-28.6 39.3,-47.4 8.8,-17.5 14.1,-36 15.9,-55.4 0.1,-1.3 0.5,-2.7 -0.1,-4 -0.7,-0.2 -0.9,0.4 -1.2,0.7 -0.7,0.7 -1.1,2.5 -2.5,1.5 -1.2,-0.9 0.1,-2 0.6,-2.9 1.2,-2 2.5,-3.9 4.1,-6.5 -1.9,0 -3.3,0 -4.6,0 -26.1,0 -52.2,0 -78.4,0 -9.8,0 -15.6,-5.7 -15.6,-15.6 0,-16.7 0,-33.5 0,-50.2 0,-10 5.9,-15.9 15.8,-15.9 25.9,0 51.7,0 77.6,0 4.7,0 4.9,-0.1 3.9,-4.9 -2.5,-12 -9.3,-21.4 -17.8,-29.7 -16,-15.6 -35.2,-26.1 -55.6,-34.6 -33.2,-13.9 -67.9,-21.8 -103.7,-24.7 -6.1,-0.5 -12.2,-0.9 -18.2,-1 0,0.4 -0.2,0.7 -0.1,0.9 0.6,1 2.8,1.4 2,2.7 -1,1.6 -2.4,-0.1 -3.5,-0.7 -1.9,-1 -3.6,-2.1 -5.5,-3.2 -1.1,0.9 -0.6,1.9 -0.6,2.8 0,7 0,14 0,21 0,10.3 -5.5,15.8 -15.7,15.8 -47.4,0 -94.7,0 -142.1,0 -8.6,0 -17.2,0 -25.9,0 -9.1,0 -15,-5.8 -15.1,-15 -0.1,-6.6 0,-13.2 0,-19.9 0,-5.3 0.7,-4.8 -4.9,-4.6 -26.9,0.9 -53.1,5.4 -78.6,13.9 -23,7.7 -44.8,17.8 -64,32.7 -11.9,9.2 -22.3,19.7 -28.9,33.4 -1.7,3.5 -2.7,7.2 -4,10.8 0.2,0.1 0.4,0.2 0.6,0.3 1.2,0.1 1.7,-2.5 3.1,-1 1.1,1.2 -0.5,2.2 -1.1,3.2 -0.9,1.6 -2,3.1 -3.1,4.8 1.4,1 2.8,0.6 4.1,0.6 25.9,0 51.7,0 77.6,0 10.4,0 16,5.6 16,15.9 0,16.7 0,33.5 0,50.2 0,9.9 -5.6,15.5 -15.6,15.5 -26.4,0 -52.7,0 -79.1,-0.1 -2.7,0 -3.5,0.5 -3.3,3.4 1.6,32.4 12.2,61.5 32.4,86.9 10.6,13.3 23.2,24 39.9,29.1 1.2,0.4 2.4,0.6 3.6,0.9 1,-1.3 -1.7,-2.3 -0.2,-3.3 1.3,-0.9 2.3,0.5 3.3,1.1 1.6,0.9 3.2,2 4.8,2.9 0.1,0 0.2,-0.1 0.7,-0.2 0,-7.5 0,-15 0,-22.6 0,-10.8 5.7,-16.5 16.4,-16.5 55.5,0 111,0 166.5,0 10.1,0 15.9,5.7 15.9,15.7 0,16.7 0,33.5 0,50.2 0,10.2 -5.6,15.7 -15.7,15.7 -55.7,0 -111.5,0 -167.2,0 -10.1,0 -15.7,-5.7 -15.8,-15.8 0,-7.8 0,-15.7 0,-24 -2.5,1.3 -4.6,2.3 -6.7,3.4 -0.9,0.5 -2.1,1.5 -2.9,0.1 -0.6,-1.2 0.9,-1.5 1.6,-2.1 0.6,-0.4 1.4,-0.5 1.7,-1.5 -3.3,-1 -6.7,-1.7 -9.9,-2.9 -15.4,-5.6 -27.4,-15.8 -37.5,-28.4 -20.8,-25.9 -31.7,-55.7 -33.2,-88.9 -0.1,-2.8 -0.8,-3.5 -3.6,-3.5 -26.4,0.1 -52.7,0.1 -79.1,0.1 -9.9,0 -15.7,-5.7 -15.7,-15.5 0,-16.9 0,-33.7 0,-50.6 0,-9.7 6,-15.5 15.8,-15.6 25.7,0 51.5,0 77.2,0 1.6,0 3.2,0 5.4,0 -1.3,-2.6 -2.3,-4.8 -3.4,-7 -0.4,-0.9 -1.2,-1.9 0.1,-2.5 1.1,-0.4 1.4,0.7 1.9,1.4 0.5,0.8 0.6,1.9 1.7,2.4 4.6,-21.5 18.6,-36.3 35.2,-49 22.6,-17.3 48.4,-28.3 75.6,-36 22.7,-6.5 45.8,-10 69.4,-10.4 2.5,0 3.1,-0.8 3.1,-3.2 -0.1,-7 -0.1,-14 -0.1,-21 0,-9.7 6,-15.6 15.7,-15.6 55.9,0 111.8,0 167.6,0 9.6,0 15.4,5.8 15.4,15.4 -0.3,8.5 -0.3,16.4 -0.3,25.2 z M 747.7,274 c 27.5,0 55,0 82.4,0 10.1,0 14.5,-4.5 14.5,-14.7 0,-16 0,-32 0,-48 0,-10 -4.6,-14.6 -14.7,-14.6 -55,0 -109.9,0 -164.9,0 -9.9,0 -14.6,4.8 -14.6,14.8 0,15.9 0,31.7 0,47.6 0,10.3 4.6,14.9 14.8,14.9 27.5,0 55,0 82.5,0 z M 346.2,441.2 c 27.6,0 55.2,0 82.8,0 9.9,0 14.3,-4.6 14.4,-14.5 0,-16 0,-32 0,-48 0,-10.2 -4.6,-14.8 -14.9,-14.8 -54.8,0 -109.7,0 -164.5,0 -10.1,0 -14.8,4.8 -14.8,15 0,15.7 0,31.5 0,47.2 0,10.6 4.5,15.1 15,15.1 27.3,0 54.7,0 82,0 z M 161,277.7 c 27.5,0 55,0 82.4,0 10.3,0 14.7,-4.4 14.7,-14.9 0,-15.9 0,-31.7 0,-47.6 0,-10.2 -4.6,-14.8 -14.9,-14.8 -54.8,0 -109.7,0 -164.5,0 -10.2,0 -14.8,4.8 -14.8,15 0,15.7 0,31.5 0,47.2 0,10.6 4.5,15.1 15,15.1 27.4,0 54.7,0 82.1,0 z m 282,-141 c 27.6,0 55.2,0 82.8,0 9.8,0 14.4,-4.6 14.4,-14.5 0,-16 0,-32 0,-48 0,-10.3 -4.5,-14.9 -14.9,-14.9 -54.8,0 -109.7,0 -164.5,0 -10.2,0 -14.8,4.8 -14.9,15 0,15.7 0,31.5 0,47.2 0,10.6 4.5,15.1 15,15.1 27.3,0.1 54.7,0.1 82.1,0.1 z m 115.3,304.5 c 27.6,0 55.2,0 82.9,0 10,0 14.5,-4.5 14.5,-14.3 0,-15.9 0,-31.7 0,-47.6 0,-10 -4.6,-14.6 -14.7,-14.6 -54.9,0 -109.7,0 -164.6,0 -10.4,0 -14.9,4.5 -14.9,14.8 0,15.6 0,31.2 0,46.9 0,10.4 4.4,14.8 14.8,14.8 27.3,0 54.7,0 82,0 z m -318.6,-41.1 -0.1,0.2 0.2,0.2 c 0,-0.1 0.1,-0.3 0.1,-0.4 l -0.2,0 z" /><path
     style="fill:#14b4ef"
     inkscape:connector-curvature="0"
     id="path9"
     d="m 402.3,340.2 c 1.6,-19.9 8.8,-39.4 27.2,-53.3 7.2,-5.5 15.5,-8.8 24.6,-9 9.6,-0.2 19.3,-1.2 28.7,1 16.6,3.9 27.6,14.9 35.4,29.4 2.8,5.2 5,10.6 6.2,16.4 0.5,2.6 1.6,4 4.4,3.5 0.7,-0.1 1.5,0 2.2,0 1,0 2.2,0 2.7,0.9 0.5,1.1 -0.6,1.8 -1.2,2.5 -4.3,4.8 -8.7,9.6 -13,14.5 -1.3,1.4 -2.3,1.6 -3.7,0.2 -5.4,-5 -10.9,-9.9 -16.3,-14.9 -0.6,-0.6 -1.6,-1.1 -1.3,-2.1 0.3,-1.2 1.5,-1.1 2.5,-1.2 5.4,-0.5 5.5,-0.5 3.8,-5.9 -4.7,-14.8 -12.7,-27.1 -26,-35.9 -9.6,-6.3 -18.4,-5.9 -27.8,0.2 -15.6,10.3 -23.7,25.2 -27.6,42.9 -1.1,4.8 -1.7,9.6 -1.6,14.5 0.1,2.5 -0.8,3.6 -3.4,3.4 -3.6,-0.2 -7.2,-0.1 -10.9,-0.1 -5.1,0.2 -5.1,0.2 -4.9,-7 z M 458,280 c -16.2,0.2 -28.5,7.1 -38.1,19.2 -10,12.7 -14.3,27.5 -15.5,43.3 -0.1,1.9 0.5,2.7 2.5,2.6 3.1,-0.1 6.2,-0.1 9.4,0 2.3,0.1 2.9,-0.8 3,-3 1.9,-27.2 12.6,-49 38.7,-62.1 z m 72.7,50.1 c -7.4,2.1 -8.1,-1.9 -8.8,-6.2 -0.2,-1.5 -0.8,-2.9 -1.4,-4.3 -5.5,-15.3 -14.4,-27.9 -29.3,-35.4 -6.5,-3.2 -14.6,-4.8 -19.4,-3.8 19.7,8.5 30.2,24.4 35.9,44.3 1.6,5.4 1.4,5.5 -4.2,6.1 -0.1,0 -0.2,0.3 -0.4,0.7 4.3,3.9 8.6,7.9 12.9,11.8 0.9,0.8 1.6,1.5 2.7,0.2 3.7,-4.1 7.3,-8.1 12,-13.4 z" /><path
     style="fill:#14b4ef"
     inkscape:connector-curvature="0"
     id="path11"
     d="m 466.4,520.7 c -5.8,-0.2 -12.2,0.5 -18.4,-1.1 -16.4,-4.4 -27.4,-15.3 -35.2,-29.9 -2.7,-5.1 -4.8,-10.4 -6.1,-16.1 -0.6,-2.7 -1.7,-3.9 -4.5,-3.5 -1,0.2 -2,0 -3,0 -2.1,0 -2.6,-1 -1.2,-2.5 4.6,-5.2 9.3,-10.4 14,-15.6 1.2,-1.3 2.1,-0.8 3.2,0.1 5.5,5 11.1,10.1 16.6,15.1 0.6,0.6 1.5,1.2 1,2.2 -0.5,0.9 -1.5,0.7 -2.4,0.7 -5.5,0.3 -5.5,0.3 -3.8,5.7 5.2,16.6 14.3,30 30.2,38.3 6.9,3.6 13.3,3.5 20.2,-0.1 16.8,-8.8 25.9,-23.3 30.8,-40.9 1.7,-6 2.6,-12.2 2.6,-18.5 0,-2.8 0.8,-4.1 3.8,-3.9 4.2,0.2 8.5,0.1 12.7,0 1.8,0 2.8,0.5 2.8,2.5 -1,25.5 -9.5,47.1 -32.1,61.2 -6.7,4.2 -14.1,6.2 -22.1,6.1 -2.8,0.1 -5.7,0.2 -9.1,0.2 z m 7.2,-2.4 c 7.1,0.4 13.1,-1 18.9,-3.6 23.7,-10.7 34.4,-37.6 34.9,-59.4 0.1,-2 -0.9,-2.3 -2.5,-2.2 -3.1,0.1 -6.2,0.1 -9.4,0 -2.2,-0.1 -2.8,0.8 -2.9,2.8 -0.2,3.4 -0.3,6.7 -0.9,10 -4.3,23.3 -15,41.9 -38.1,52.4 z m -14.2,0.1 c -0.3,-0.4 -0.3,-0.7 -0.5,-0.7 -20.3,-9 -30.7,-25.7 -35.9,-46.4 -0.7,-2.8 0.1,-3.7 2.8,-3.6 0.7,0 1.5,0.3 2.3,-0.6 -4.5,-4.1 -9,-8.2 -13.5,-12.3 -0.7,-0.6 -1.2,-0.7 -1.9,0 -3.6,4 -7.3,8.1 -10.9,12.1 -0.1,0.3 -0.2,0.7 -0.3,1 6.3,-1.7 6.6,2.3 7.7,6.2 3,11.1 8.1,21.2 16.3,29.5 9.2,9.4 20.2,15 33.9,14.8 z" /><path
     style="fill:#fcfdfd"
     inkscape:connector-curvature="0"
     id="path13"
     d="m 747.7,274 c -27.5,0 -55,0 -82.4,0 -10.3,0 -14.8,-4.6 -14.8,-14.9 0,-15.9 0,-31.7 0,-47.6 0,-10 4.7,-14.8 14.6,-14.8 55,0 109.9,0 164.9,0 10.1,0 14.7,4.7 14.7,14.6 0,16 0,32 0,48 0,10.2 -4.4,14.7 -14.5,14.7 -27.6,0 -55,0 -82.5,0 z" /><path
     style="fill:#fcfdfd"
     inkscape:connector-curvature="0"
     id="path15"
     d="m 346.2,441.2 c -27.4,0 -54.7,0 -82.1,0 -10.5,0 -15,-4.5 -15,-15.1 0,-15.7 0,-31.5 0,-47.2 0,-10.2 4.7,-15 14.8,-15 54.8,0 109.7,0 164.5,0 10.3,0 14.9,4.6 14.9,14.8 0,16 0,32 0,48 0,9.9 -4.5,14.5 -14.4,14.5 -27.5,0 -55.1,0 -82.7,0 z" /><path
     style="fill:#fcfdfd"
     inkscape:connector-curvature="0"
     id="path17"
     d="m 161,277.7 c -27.4,0 -54.7,0 -82.1,0 -10.5,0 -15,-4.5 -15,-15.1 0,-15.7 0,-31.5 0,-47.2 0,-10.2 4.7,-15 14.8,-15 54.8,0 109.7,0 164.5,0 10.3,0 14.9,4.6 14.9,14.8 0,15.9 0,31.7 0,47.6 0,10.4 -4.4,14.9 -14.7,14.9 -27.4,0 -54.9,0 -82.4,0 z" /><path
     style="fill:#fcfdfd"
     inkscape:connector-curvature="0"
     id="path19"
     d="m 443,136.7 c -27.4,0 -54.7,0 -82.1,0 -10.5,0 -15,-4.5 -15,-15.1 0,-15.7 0,-31.5 0,-47.2 0,-10.2 4.7,-15 14.9,-15 54.8,0 109.7,0 164.5,0 10.3,0 14.8,4.6 14.9,14.9 0,16 0,32 0,48 0,9.9 -4.5,14.4 -14.4,14.5 -27.6,-0.1 -55.2,-0.1 -82.8,-0.1 z" /><path
     style="fill:#fcfdfd"
     inkscape:connector-curvature="0"
     id="path21"
     d="m 558.3,441.2 c -27.4,0 -54.7,0 -82.1,0 -10.4,0 -14.8,-4.5 -14.8,-14.8 0,-15.6 0,-31.2 0,-46.9 0,-10.3 4.5,-14.8 14.9,-14.8 54.9,0 109.7,0 164.6,0 10.1,0 14.7,4.6 14.7,14.6 0,15.9 0,31.7 0,47.6 0,9.9 -4.5,14.3 -14.5,14.3 -27.5,0 -55.2,0 -82.8,0 z" /><path
     style="fill:#fbfcfc"
     inkscape:connector-curvature="0"
     id="path23"
     d="m 239.7,400.1 0.2,0 c 0,0.1 -0.1,0.3 -0.1,0.4 l -0.2,-0.2 0.1,-0.2 z" /><path
     style="fill:#c6c9cb"
     inkscape:connector-curvature="0"
     id="path25"
     d="m 458,280 c -26,13.1 -36.8,34.9 -38.6,62.2 -0.1,2.2 -0.7,3.1 -3,3 -3.1,-0.2 -6.2,-0.2 -9.4,0 -2,0.1 -2.6,-0.7 -2.5,-2.6 1.1,-15.9 5.5,-30.7 15.5,-43.3 9.5,-12.2 21.7,-19.2 38,-19.3 z" /><path
     style="fill:#fbfcfc"
     inkscape:connector-curvature="0"
     id="path27"
     d="m 530.7,330.1 c -4.7,5.2 -8.3,9.3 -11.9,13.4 -1.1,1.3 -1.9,0.6 -2.7,-0.2 -4.3,-4 -8.6,-7.9 -12.9,-11.8 0.2,-0.3 0.3,-0.6 0.4,-0.7 5.6,-0.6 5.8,-0.6 4.2,-6.1 -5.7,-19.8 -16.2,-35.8 -35.9,-44.3 4.8,-1 13,0.6 19.4,3.8 15,7.5 23.8,20 29.3,35.4 0.5,1.4 1.1,2.8 1.4,4.3 0.6,4.3 1.3,8.4 8.7,6.2 z" /><path
     style="fill:#c6c9cb"
     inkscape:connector-curvature="0"
     id="path29"
     d="m 473.6,518.3 c 23.1,-10.6 33.9,-29.1 38.1,-52.4 0.6,-3.3 0.7,-6.7 0.9,-10 0.1,-2 0.8,-2.9 2.9,-2.8 3.1,0.2 6.2,0.1 9.4,0 1.6,0 2.5,0.3 2.5,2.2 -0.6,21.8 -11.2,48.7 -34.9,59.4 -5.8,2.6 -11.8,4 -18.9,3.6 z" /><path
     style="fill:#fbfcfc"
     inkscape:connector-curvature="0"
     id="path31"
     d="m 459.4,518.4 c -13.7,0.2 -24.7,-5.4 -33.9,-14.9 -8.1,-8.3 -13.3,-18.4 -16.3,-29.5 -1,-3.9 -1.4,-7.9 -7.7,-6.2 0.1,-0.3 0.2,-0.7 0.3,-1 3.6,-4 7.3,-8.1 10.9,-12.1 0.6,-0.7 1.2,-0.6 1.9,0 4.5,4.1 9,8.2 13.5,12.3 -0.8,0.9 -1.6,0.6 -2.3,0.6 -2.6,-0.1 -3.5,0.8 -2.8,3.6 5.2,20.7 15.6,37.4 35.9,46.4 0.2,0.2 0.2,0.4 0.5,0.8 z" /><text
     id="text33"
     style="font-style:normal;font-variant:normal;font-weight:normal;font-stretch:normal;font-size:26px;line-height:125%;font-family:Gulim;-inkscape-font-specification:'Gulim, Normal';text-align:center;writing-mode:lr-tb;text-anchor:middle"
     sodipodi:linespacing="125%"
     x="441.53909"
     y="90.4972"><tspan
       sodipodi:role="line"
       id="tspan4213"
       x="441.53909"
       y="90.4972">지식</tspan><tspan
       sodipodi:role="line"
       id="tspan4215"
       x="441.53909"
       y="122.9972">큐레이션</tspan></text>
<text
     id="text39"
     style="font-style:normal;font-variant:normal;font-weight:normal;font-stretch:normal;font-size:26px;line-height:125%;font-family:Gulim;-inkscape-font-specification:'Gulim, Normal';text-align:center;writing-mode:lr-tb;text-anchor:middle"
     sodipodi:linespacing="125%"
     x="559.06519"
     y="396.99109"><tspan
       sodipodi:role="line"
       id="tspan4221"
       x="559.06519"
       y="396.99109">모델</tspan><tspan
       sodipodi:role="line"
       id="tspan4223"
       x="559.06519"
       y="429.49109">평가</tspan></text>
<text
     id="text45"
     style="font-style:normal;font-variant:normal;font-weight:normal;font-stretch:normal;font-size:26px;line-height:125%;font-family:Gulim;-inkscape-font-specification:'Gulim, Normal';text-align:center;writing-mode:lr-tb;text-anchor:middle"
     sodipodi:linespacing="125%"
     x="345.577"
     y="396.9913"><tspan
       sodipodi:role="line"
       id="tspan4225"
       x="345.577"
       y="396.9913">모델</tspan><tspan
       sodipodi:role="line"
       id="tspan4227"
       x="345.577"
       y="429.4913">개발</tspan></text>
<text
     id="text51"
     style="font-style:normal;font-variant:normal;font-weight:normal;font-stretch:normal;font-size:26px;line-height:125%;font-family:Gulim;-inkscape-font-specification:'Gulim, Normal';text-align:center;writing-mode:lr-tb;text-anchor:middle"
     sodipodi:linespacing="125%"
     x="156.67151"
     y="231.9949"><tspan
       sodipodi:role="line"
       id="tspan4229"
       x="156.67151"
       y="231.9949">기준 실제값</tspan><tspan
       sodipodi:role="line"
       id="tspan4231"
       x="156.67151"
       y="264.4949">작성</tspan></text>
<text
     id="text57"
     style="font-style:normal;font-variant:normal;font-weight:normal;font-stretch:normal;font-size:26px;line-height:125%;font-family:Gulim;-inkscape-font-specification:'Gulim, Normal';text-align:center;writing-mode:lr-tb;text-anchor:middle"
     sodipodi:linespacing="125%"
     x="747.56342"
     y="231.995"><tspan
       sodipodi:role="line"
       id="tspan4217"
       x="747.56342"
       y="231.995">런타임</tspan><tspan
       sodipodi:role="line"
       id="tspan4219"
       x="751.90521"
       y="264.495">배치 </tspan></text>
</svg>
